G04 #@! TF.GenerationSoftware,KiCad,Pcbnew,(5.1.12)-1*
G04 #@! TF.CreationDate,2022-03-01T21:27:41+00:00*
G04 #@! TF.ProjectId,A600_68k_PLCC_to_DIP64_v2,41363030-5f36-4386-9b5f-504c43435f74,B*
G04 #@! TF.SameCoordinates,Original*
G04 #@! TF.FileFunction,Soldermask,Top*
G04 #@! TF.FilePolarity,Negative*
%FSLAX46Y46*%
G04 Gerber Fmt 4.6, Leading zero omitted, Abs format (unit mm)*
G04 Created by KiCad (PCBNEW (5.1.12)-1) date 2022-03-01 21:27:41*
%MOMM*%
%LPD*%
G01*
G04 APERTURE LIST*
%ADD10C,1.422400*%
%ADD11R,1.422400X1.422400*%
%ADD12C,0.700000*%
%ADD13C,4.000000*%
%ADD14C,1.408000*%
%ADD15R,1.408000X1.408000*%
G04 APERTURE END LIST*
D10*
X127000000Y-114300000D03*
X124460000Y-114300000D03*
X121920000Y-114300000D03*
X119380000Y-114300000D03*
X129540000Y-114300000D03*
X132080000Y-114300000D03*
X134620000Y-114300000D03*
X137160000Y-114300000D03*
D11*
X129540000Y-111760000D03*
D10*
X127000000Y-111760000D03*
X124460000Y-111760000D03*
X121920000Y-111760000D03*
X119380000Y-111760000D03*
X132080000Y-111760000D03*
X134620000Y-111760000D03*
X137160000Y-111760000D03*
X119380000Y-116840000D03*
X119380000Y-119380000D03*
X119380000Y-121920000D03*
X119380000Y-124460000D03*
X119380000Y-127000000D03*
X119380000Y-129540000D03*
X119380000Y-132080000D03*
X119380000Y-134620000D03*
X116840000Y-114300000D03*
X116840000Y-116840000D03*
X116840000Y-119380000D03*
X116840000Y-121920000D03*
X116840000Y-124460000D03*
X116840000Y-127000000D03*
X116840000Y-129540000D03*
X116840000Y-132080000D03*
X116840000Y-134620000D03*
X121920000Y-134620000D03*
X124460000Y-134620000D03*
X127000000Y-134620000D03*
X129540000Y-134620000D03*
X132080000Y-134620000D03*
X134620000Y-134620000D03*
X137160000Y-134620000D03*
X139700000Y-134620000D03*
X142240000Y-134620000D03*
X119380000Y-137160000D03*
X121920000Y-137160000D03*
X124460000Y-137160000D03*
X127000000Y-137160000D03*
X129540000Y-137160000D03*
X132080000Y-137160000D03*
X134620000Y-137160000D03*
X137160000Y-137160000D03*
X139700000Y-137160000D03*
X139700000Y-132080000D03*
X139700000Y-129540000D03*
X139700000Y-127000000D03*
X139700000Y-124460000D03*
X139700000Y-121920000D03*
X139700000Y-119380000D03*
X139700000Y-116840000D03*
X139700000Y-114300000D03*
X139700000Y-111760000D03*
X142240000Y-132080000D03*
X142240000Y-129540000D03*
X142240000Y-127000000D03*
X142240000Y-124460000D03*
X142240000Y-121920000D03*
X142240000Y-119380000D03*
X142240000Y-116840000D03*
X142240000Y-114300000D03*
X195580000Y-104140000D03*
X116840000Y-81280000D03*
X193040000Y-104140000D03*
X119380000Y-81280000D03*
X190500000Y-104140000D03*
X121920000Y-81280000D03*
X187960000Y-104140000D03*
X124460000Y-81280000D03*
X185420000Y-104140000D03*
X127000000Y-81280000D03*
X182880000Y-104140000D03*
X129540000Y-81280000D03*
X180340000Y-104140000D03*
X132080000Y-81280000D03*
X177800000Y-104140000D03*
X134620000Y-81280000D03*
X175260000Y-104140000D03*
X137160000Y-81280000D03*
X172720000Y-104140000D03*
X139700000Y-81280000D03*
X170180000Y-104140000D03*
X142240000Y-81280000D03*
X167640000Y-104140000D03*
X144780000Y-81280000D03*
X165100000Y-104140000D03*
X147320000Y-81280000D03*
X162560000Y-104140000D03*
X149860000Y-81280000D03*
X160020000Y-104140000D03*
X152400000Y-81280000D03*
X157480000Y-104140000D03*
X154940000Y-81280000D03*
X154940000Y-104140000D03*
X157480000Y-81280000D03*
X152400000Y-104140000D03*
X160020000Y-81280000D03*
X149860000Y-104140000D03*
X162560000Y-81280000D03*
X147320000Y-104140000D03*
X165100000Y-81280000D03*
X144780000Y-104140000D03*
X167640000Y-81280000D03*
X142240000Y-104140000D03*
X170180000Y-81280000D03*
X139700000Y-104140000D03*
X172720000Y-81280000D03*
X137160000Y-104140000D03*
X175260000Y-81280000D03*
X134620000Y-104140000D03*
X177800000Y-81280000D03*
X132080000Y-104140000D03*
X180340000Y-81280000D03*
X129540000Y-104140000D03*
X182880000Y-81280000D03*
X127000000Y-104140000D03*
X185420000Y-81280000D03*
X124460000Y-104140000D03*
X187960000Y-81280000D03*
X121920000Y-104140000D03*
X190500000Y-81280000D03*
X119380000Y-104140000D03*
X193040000Y-81280000D03*
X116840000Y-104140000D03*
D11*
X195580000Y-81280000D03*
D12*
X111941000Y-119669000D03*
X110880000Y-119230000D03*
X109819000Y-119669000D03*
X109380000Y-120730000D03*
X109819000Y-121791000D03*
X110880000Y-122230000D03*
X111941000Y-121791000D03*
X112380000Y-120730000D03*
D13*
X110880000Y-120730000D03*
D12*
X205441000Y-119669000D03*
X204380000Y-119230000D03*
X203319000Y-119669000D03*
X202880000Y-120730000D03*
X203319000Y-121791000D03*
X204380000Y-122230000D03*
X205441000Y-121791000D03*
X205880000Y-120730000D03*
D13*
X204380000Y-120730000D03*
G36*
G01*
X121191000Y-122010500D02*
X122141000Y-122010500D01*
G75*
G02*
X122391000Y-122260500I0J-250000D01*
G01*
X122391000Y-122935500D01*
G75*
G02*
X122141000Y-123185500I-250000J0D01*
G01*
X121191000Y-123185500D01*
G75*
G02*
X120941000Y-122935500I0J250000D01*
G01*
X120941000Y-122260500D01*
G75*
G02*
X121191000Y-122010500I250000J0D01*
G01*
G37*
G36*
G01*
X121191000Y-119935500D02*
X122141000Y-119935500D01*
G75*
G02*
X122391000Y-120185500I0J-250000D01*
G01*
X122391000Y-120860500D01*
G75*
G02*
X122141000Y-121110500I-250000J0D01*
G01*
X121191000Y-121110500D01*
G75*
G02*
X120941000Y-120860500I0J250000D01*
G01*
X120941000Y-120185500D01*
G75*
G02*
X121191000Y-119935500I250000J0D01*
G01*
G37*
G36*
G01*
X121191000Y-127323000D02*
X122141000Y-127323000D01*
G75*
G02*
X122391000Y-127573000I0J-250000D01*
G01*
X122391000Y-128248000D01*
G75*
G02*
X122141000Y-128498000I-250000J0D01*
G01*
X121191000Y-128498000D01*
G75*
G02*
X120941000Y-128248000I0J250000D01*
G01*
X120941000Y-127573000D01*
G75*
G02*
X121191000Y-127323000I250000J0D01*
G01*
G37*
G36*
G01*
X121191000Y-125248000D02*
X122141000Y-125248000D01*
G75*
G02*
X122391000Y-125498000I0J-250000D01*
G01*
X122391000Y-126173000D01*
G75*
G02*
X122141000Y-126423000I-250000J0D01*
G01*
X121191000Y-126423000D01*
G75*
G02*
X120941000Y-126173000I0J250000D01*
G01*
X120941000Y-125498000D01*
G75*
G02*
X121191000Y-125248000I250000J0D01*
G01*
G37*
G36*
G01*
X124656000Y-132936000D02*
X124656000Y-131986000D01*
G75*
G02*
X124906000Y-131736000I250000J0D01*
G01*
X125581000Y-131736000D01*
G75*
G02*
X125831000Y-131986000I0J-250000D01*
G01*
X125831000Y-132936000D01*
G75*
G02*
X125581000Y-133186000I-250000J0D01*
G01*
X124906000Y-133186000D01*
G75*
G02*
X124656000Y-132936000I0J250000D01*
G01*
G37*
G36*
G01*
X122581000Y-132936000D02*
X122581000Y-131986000D01*
G75*
G02*
X122831000Y-131736000I250000J0D01*
G01*
X123506000Y-131736000D01*
G75*
G02*
X123756000Y-131986000I0J-250000D01*
G01*
X123756000Y-132936000D01*
G75*
G02*
X123506000Y-133186000I-250000J0D01*
G01*
X122831000Y-133186000D01*
G75*
G02*
X122581000Y-132936000I0J250000D01*
G01*
G37*
G36*
G01*
X144178000Y-125926000D02*
X145128000Y-125926000D01*
G75*
G02*
X145378000Y-126176000I0J-250000D01*
G01*
X145378000Y-126851000D01*
G75*
G02*
X145128000Y-127101000I-250000J0D01*
G01*
X144178000Y-127101000D01*
G75*
G02*
X143928000Y-126851000I0J250000D01*
G01*
X143928000Y-126176000D01*
G75*
G02*
X144178000Y-125926000I250000J0D01*
G01*
G37*
G36*
G01*
X144178000Y-123851000D02*
X145128000Y-123851000D01*
G75*
G02*
X145378000Y-124101000I0J-250000D01*
G01*
X145378000Y-124776000D01*
G75*
G02*
X145128000Y-125026000I-250000J0D01*
G01*
X144178000Y-125026000D01*
G75*
G02*
X143928000Y-124776000I0J250000D01*
G01*
X143928000Y-124101000D01*
G75*
G02*
X144178000Y-123851000I250000J0D01*
G01*
G37*
G36*
G01*
X124860000Y-117036001D02*
X124860000Y-116135999D01*
G75*
G02*
X125109999Y-115886000I249999J0D01*
G01*
X125810001Y-115886000D01*
G75*
G02*
X126060000Y-116135999I0J-249999D01*
G01*
X126060000Y-117036001D01*
G75*
G02*
X125810001Y-117286000I-249999J0D01*
G01*
X125109999Y-117286000D01*
G75*
G02*
X124860000Y-117036001I0J249999D01*
G01*
G37*
G36*
G01*
X122860000Y-117036001D02*
X122860000Y-116135999D01*
G75*
G02*
X123109999Y-115886000I249999J0D01*
G01*
X123810001Y-115886000D01*
G75*
G02*
X124060000Y-116135999I0J-249999D01*
G01*
X124060000Y-117036001D01*
G75*
G02*
X123810001Y-117286000I-249999J0D01*
G01*
X123109999Y-117286000D01*
G75*
G02*
X122860000Y-117036001I0J249999D01*
G01*
G37*
G36*
G01*
X164230000Y-77920001D02*
X164230000Y-77019999D01*
G75*
G02*
X164479999Y-76770000I249999J0D01*
G01*
X165180001Y-76770000D01*
G75*
G02*
X165430000Y-77019999I0J-249999D01*
G01*
X165430000Y-77920001D01*
G75*
G02*
X165180001Y-78170000I-249999J0D01*
G01*
X164479999Y-78170000D01*
G75*
G02*
X164230000Y-77920001I0J249999D01*
G01*
G37*
G36*
G01*
X162230000Y-77920001D02*
X162230000Y-77019999D01*
G75*
G02*
X162479999Y-76770000I249999J0D01*
G01*
X163180001Y-76770000D01*
G75*
G02*
X163430000Y-77019999I0J-249999D01*
G01*
X163430000Y-77920001D01*
G75*
G02*
X163180001Y-78170000I-249999J0D01*
G01*
X162479999Y-78170000D01*
G75*
G02*
X162230000Y-77920001I0J249999D01*
G01*
G37*
G36*
G01*
X191490000Y-108170275D02*
X191490000Y-109119725D01*
G75*
G02*
X191239725Y-109370000I-250275J0D01*
G01*
X190565275Y-109370000D01*
G75*
G02*
X190315000Y-109119725I0J250275D01*
G01*
X190315000Y-108170275D01*
G75*
G02*
X190565275Y-107920000I250275J0D01*
G01*
X191239725Y-107920000D01*
G75*
G02*
X191490000Y-108170275I0J-250275D01*
G01*
G37*
G36*
G01*
X189415000Y-108110000D02*
X189415000Y-109060000D01*
G75*
G02*
X189165000Y-109310000I-250000J0D01*
G01*
X188490000Y-109310000D01*
G75*
G02*
X188240000Y-109060000I0J250000D01*
G01*
X188240000Y-108110000D01*
G75*
G02*
X188490000Y-107860000I250000J0D01*
G01*
X189165000Y-107860000D01*
G75*
G02*
X189415000Y-108110000I0J-250000D01*
G01*
G37*
D14*
X194840000Y-116145000D03*
X194840000Y-113645000D03*
X194840000Y-111145000D03*
D15*
X194840000Y-108645000D03*
M02*
