G04 #@! TF.GenerationSoftware,KiCad,Pcbnew,(5.1.12)-1*
G04 #@! TF.CreationDate,2022-01-03T17:24:41+00:00*
G04 #@! TF.ProjectId,A600_68k_PLCC_to_DIP64_v2,41363030-5f36-4386-9b5f-504c43435f74,B*
G04 #@! TF.SameCoordinates,Original*
G04 #@! TF.FileFunction,Legend,Bot*
G04 #@! TF.FilePolarity,Positive*
%FSLAX46Y46*%
G04 Gerber Fmt 4.6, Leading zero omitted, Abs format (unit mm)*
G04 Created by KiCad (PCBNEW (5.1.12)-1) date 2022-01-03 17:24:41*
%MOMM*%
%LPD*%
G01*
G04 APERTURE LIST*
%ADD10C,0.150000*%
%ADD11C,0.120000*%
%ADD12C,1.422400*%
%ADD13R,1.422400X1.422400*%
%ADD14C,0.700000*%
%ADD15C,4.000000*%
%ADD16C,1.408000*%
%ADD17R,1.408000X1.408000*%
G04 APERTURE END LIST*
D10*
X190712619Y-106707380D02*
X190141190Y-106707380D01*
X190426904Y-107707380D02*
X190426904Y-106707380D01*
X189807857Y-107707380D02*
X189807857Y-106707380D01*
X189807857Y-107183571D02*
X189236428Y-107183571D01*
X189236428Y-107707380D02*
X189236428Y-106707380D01*
X188760238Y-107707380D02*
X188760238Y-106707380D01*
X188331666Y-107659761D02*
X188188809Y-107707380D01*
X187950714Y-107707380D01*
X187855476Y-107659761D01*
X187807857Y-107612142D01*
X187760238Y-107516904D01*
X187760238Y-107421666D01*
X187807857Y-107326428D01*
X187855476Y-107278809D01*
X187950714Y-107231190D01*
X188141190Y-107183571D01*
X188236428Y-107135952D01*
X188284047Y-107088333D01*
X188331666Y-106993095D01*
X188331666Y-106897857D01*
X188284047Y-106802619D01*
X188236428Y-106755000D01*
X188141190Y-106707380D01*
X187903095Y-106707380D01*
X187760238Y-106755000D01*
X185998333Y-107612142D02*
X186045952Y-107659761D01*
X186188809Y-107707380D01*
X186284047Y-107707380D01*
X186426904Y-107659761D01*
X186522142Y-107564523D01*
X186569761Y-107469285D01*
X186617380Y-107278809D01*
X186617380Y-107135952D01*
X186569761Y-106945476D01*
X186522142Y-106850238D01*
X186426904Y-106755000D01*
X186284047Y-106707380D01*
X186188809Y-106707380D01*
X186045952Y-106755000D01*
X185998333Y-106802619D01*
X185379285Y-106707380D02*
X185188809Y-106707380D01*
X185093571Y-106755000D01*
X184998333Y-106850238D01*
X184950714Y-107040714D01*
X184950714Y-107374047D01*
X184998333Y-107564523D01*
X185093571Y-107659761D01*
X185188809Y-107707380D01*
X185379285Y-107707380D01*
X185474523Y-107659761D01*
X185569761Y-107564523D01*
X185617380Y-107374047D01*
X185617380Y-107040714D01*
X185569761Y-106850238D01*
X185474523Y-106755000D01*
X185379285Y-106707380D01*
X184522142Y-107707380D02*
X184522142Y-106707380D01*
X183950714Y-107707380D01*
X183950714Y-106707380D01*
X183474523Y-107707380D02*
X183474523Y-106707380D01*
X182903095Y-107707380D01*
X182903095Y-106707380D01*
X182426904Y-107183571D02*
X182093571Y-107183571D01*
X181950714Y-107707380D02*
X182426904Y-107707380D01*
X182426904Y-106707380D01*
X181950714Y-106707380D01*
X180950714Y-107612142D02*
X180998333Y-107659761D01*
X181141190Y-107707380D01*
X181236428Y-107707380D01*
X181379285Y-107659761D01*
X181474523Y-107564523D01*
X181522142Y-107469285D01*
X181569761Y-107278809D01*
X181569761Y-107135952D01*
X181522142Y-106945476D01*
X181474523Y-106850238D01*
X181379285Y-106755000D01*
X181236428Y-106707380D01*
X181141190Y-106707380D01*
X180998333Y-106755000D01*
X180950714Y-106802619D01*
X180665000Y-106707380D02*
X180093571Y-106707380D01*
X180379285Y-107707380D02*
X180379285Y-106707380D01*
X179569761Y-106707380D02*
X179379285Y-106707380D01*
X179284047Y-106755000D01*
X179188809Y-106850238D01*
X179141190Y-107040714D01*
X179141190Y-107374047D01*
X179188809Y-107564523D01*
X179284047Y-107659761D01*
X179379285Y-107707380D01*
X179569761Y-107707380D01*
X179665000Y-107659761D01*
X179760238Y-107564523D01*
X179807857Y-107374047D01*
X179807857Y-107040714D01*
X179760238Y-106850238D01*
X179665000Y-106755000D01*
X179569761Y-106707380D01*
X178141190Y-107707380D02*
X178474523Y-107231190D01*
X178712619Y-107707380D02*
X178712619Y-106707380D01*
X178331666Y-106707380D01*
X178236428Y-106755000D01*
X178188809Y-106802619D01*
X178141190Y-106897857D01*
X178141190Y-107040714D01*
X178188809Y-107135952D01*
X178236428Y-107183571D01*
X178331666Y-107231190D01*
X178712619Y-107231190D01*
X176950714Y-107707380D02*
X176950714Y-106707380D01*
X176522142Y-107659761D02*
X176379285Y-107707380D01*
X176141190Y-107707380D01*
X176045952Y-107659761D01*
X175998333Y-107612142D01*
X175950714Y-107516904D01*
X175950714Y-107421666D01*
X175998333Y-107326428D01*
X176045952Y-107278809D01*
X176141190Y-107231190D01*
X176331666Y-107183571D01*
X176426904Y-107135952D01*
X176474523Y-107088333D01*
X176522142Y-106993095D01*
X176522142Y-106897857D01*
X176474523Y-106802619D01*
X176426904Y-106755000D01*
X176331666Y-106707380D01*
X176093571Y-106707380D01*
X175950714Y-106755000D01*
X174426904Y-107183571D02*
X174760238Y-107183571D01*
X174760238Y-107707380D02*
X174760238Y-106707380D01*
X174284047Y-106707380D01*
X173712619Y-106707380D02*
X173522142Y-106707380D01*
X173426904Y-106755000D01*
X173331666Y-106850238D01*
X173284047Y-107040714D01*
X173284047Y-107374047D01*
X173331666Y-107564523D01*
X173426904Y-107659761D01*
X173522142Y-107707380D01*
X173712619Y-107707380D01*
X173807857Y-107659761D01*
X173903095Y-107564523D01*
X173950714Y-107374047D01*
X173950714Y-107040714D01*
X173903095Y-106850238D01*
X173807857Y-106755000D01*
X173712619Y-106707380D01*
X172284047Y-107707380D02*
X172617380Y-107231190D01*
X172855476Y-107707380D02*
X172855476Y-106707380D01*
X172474523Y-106707380D01*
X172379285Y-106755000D01*
X172331666Y-106802619D01*
X172284047Y-106897857D01*
X172284047Y-107040714D01*
X172331666Y-107135952D01*
X172379285Y-107183571D01*
X172474523Y-107231190D01*
X172855476Y-107231190D01*
X171141190Y-107421666D02*
X170665000Y-107421666D01*
X171236428Y-107707380D02*
X170903095Y-106707380D01*
X170569761Y-107707380D01*
X170236428Y-107707380D02*
X170236428Y-106707380D01*
X169855476Y-106707380D01*
X169760238Y-106755000D01*
X169712619Y-106802619D01*
X169665000Y-106897857D01*
X169665000Y-107040714D01*
X169712619Y-107135952D01*
X169760238Y-107183571D01*
X169855476Y-107231190D01*
X170236428Y-107231190D01*
X169236428Y-107707380D02*
X169236428Y-106707380D01*
X168855476Y-106707380D01*
X168760238Y-106755000D01*
X168712619Y-106802619D01*
X168665000Y-106897857D01*
X168665000Y-107040714D01*
X168712619Y-107135952D01*
X168760238Y-107183571D01*
X168855476Y-107231190D01*
X169236428Y-107231190D01*
X167760238Y-107707380D02*
X168236428Y-107707380D01*
X168236428Y-106707380D01*
X167236428Y-107231190D02*
X167236428Y-107707380D01*
X167569761Y-106707380D02*
X167236428Y-107231190D01*
X166903095Y-106707380D01*
X166569761Y-107707380D02*
X166569761Y-106707380D01*
X166093571Y-107707380D02*
X166093571Y-106707380D01*
X165522142Y-107707380D01*
X165522142Y-106707380D01*
X164522142Y-106755000D02*
X164617380Y-106707380D01*
X164760238Y-106707380D01*
X164903095Y-106755000D01*
X164998333Y-106850238D01*
X165045952Y-106945476D01*
X165093571Y-107135952D01*
X165093571Y-107278809D01*
X165045952Y-107469285D01*
X164998333Y-107564523D01*
X164903095Y-107659761D01*
X164760238Y-107707380D01*
X164665000Y-107707380D01*
X164522142Y-107659761D01*
X164474523Y-107612142D01*
X164474523Y-107278809D01*
X164665000Y-107278809D01*
X186569761Y-109071666D02*
X186093571Y-109071666D01*
X186665000Y-109357380D02*
X186331666Y-108357380D01*
X185998333Y-109357380D01*
X185665000Y-109357380D02*
X185665000Y-108357380D01*
X185426904Y-108357380D01*
X185284047Y-108405000D01*
X185188809Y-108500238D01*
X185141190Y-108595476D01*
X185093571Y-108785952D01*
X185093571Y-108928809D01*
X185141190Y-109119285D01*
X185188809Y-109214523D01*
X185284047Y-109309761D01*
X185426904Y-109357380D01*
X185665000Y-109357380D01*
X184665000Y-109357380D02*
X184665000Y-108357380D01*
X184426904Y-108357380D01*
X184284047Y-108405000D01*
X184188809Y-108500238D01*
X184141190Y-108595476D01*
X184093571Y-108785952D01*
X184093571Y-108928809D01*
X184141190Y-109119285D01*
X184188809Y-109214523D01*
X184284047Y-109309761D01*
X184426904Y-109357380D01*
X184665000Y-109357380D01*
X183665000Y-109357380D02*
X183665000Y-108357380D01*
X183331666Y-108357380D02*
X182760238Y-108357380D01*
X183045952Y-109357380D02*
X183045952Y-108357380D01*
X182426904Y-109357380D02*
X182426904Y-108357380D01*
X181760238Y-108357380D02*
X181569761Y-108357380D01*
X181474523Y-108405000D01*
X181379285Y-108500238D01*
X181331666Y-108690714D01*
X181331666Y-109024047D01*
X181379285Y-109214523D01*
X181474523Y-109309761D01*
X181569761Y-109357380D01*
X181760238Y-109357380D01*
X181855476Y-109309761D01*
X181950714Y-109214523D01*
X181998333Y-109024047D01*
X181998333Y-108690714D01*
X181950714Y-108500238D01*
X181855476Y-108405000D01*
X181760238Y-108357380D01*
X180903095Y-109357380D02*
X180903095Y-108357380D01*
X180331666Y-109357380D01*
X180331666Y-108357380D01*
X179903095Y-109071666D02*
X179426904Y-109071666D01*
X179998333Y-109357380D02*
X179665000Y-108357380D01*
X179331666Y-109357380D01*
X178522142Y-109357380D02*
X178998333Y-109357380D01*
X178998333Y-108357380D01*
X177426904Y-109357380D02*
X177426904Y-108357380D01*
X177045952Y-108357380D01*
X176950714Y-108405000D01*
X176903095Y-108452619D01*
X176855476Y-108547857D01*
X176855476Y-108690714D01*
X176903095Y-108785952D01*
X176950714Y-108833571D01*
X177045952Y-108881190D01*
X177426904Y-108881190D01*
X176236428Y-108357380D02*
X176045952Y-108357380D01*
X175950714Y-108405000D01*
X175855476Y-108500238D01*
X175807857Y-108690714D01*
X175807857Y-109024047D01*
X175855476Y-109214523D01*
X175950714Y-109309761D01*
X176045952Y-109357380D01*
X176236428Y-109357380D01*
X176331666Y-109309761D01*
X176426904Y-109214523D01*
X176474523Y-109024047D01*
X176474523Y-108690714D01*
X176426904Y-108500238D01*
X176331666Y-108405000D01*
X176236428Y-108357380D01*
X175474523Y-108357380D02*
X175236428Y-109357380D01*
X175045952Y-108643095D01*
X174855476Y-109357380D01*
X174617380Y-108357380D01*
X174236428Y-108833571D02*
X173903095Y-108833571D01*
X173760238Y-109357380D02*
X174236428Y-109357380D01*
X174236428Y-108357380D01*
X173760238Y-108357380D01*
X172760238Y-109357380D02*
X173093571Y-108881190D01*
X173331666Y-109357380D02*
X173331666Y-108357380D01*
X172950714Y-108357380D01*
X172855476Y-108405000D01*
X172807857Y-108452619D01*
X172760238Y-108547857D01*
X172760238Y-108690714D01*
X172807857Y-108785952D01*
X172855476Y-108833571D01*
X172950714Y-108881190D01*
X173331666Y-108881190D01*
X171379285Y-108357380D02*
X171188809Y-108357380D01*
X171093571Y-108405000D01*
X170998333Y-108500238D01*
X170950714Y-108690714D01*
X170950714Y-109024047D01*
X170998333Y-109214523D01*
X171093571Y-109309761D01*
X171188809Y-109357380D01*
X171379285Y-109357380D01*
X171474523Y-109309761D01*
X171569761Y-109214523D01*
X171617380Y-109024047D01*
X171617380Y-108690714D01*
X171569761Y-108500238D01*
X171474523Y-108405000D01*
X171379285Y-108357380D01*
X170522142Y-109357380D02*
X170522142Y-108357380D01*
X169950714Y-109357380D01*
X169950714Y-108357380D01*
X168998333Y-109357380D02*
X169474523Y-109357380D01*
X169474523Y-108357380D01*
X168474523Y-108881190D02*
X168474523Y-109357380D01*
X168807857Y-108357380D02*
X168474523Y-108881190D01*
X168141190Y-108357380D01*
X167807857Y-109262142D02*
X167760238Y-109309761D01*
X167807857Y-109357380D01*
X167855476Y-109309761D01*
X167807857Y-109262142D01*
X167807857Y-109357380D01*
X167807857Y-108976428D02*
X167855476Y-108405000D01*
X167807857Y-108357380D01*
X167760238Y-108405000D01*
X167807857Y-108976428D01*
X167807857Y-108357380D01*
X187998333Y-111007380D02*
X187998333Y-110007380D01*
X187760238Y-110007380D01*
X187617380Y-110055000D01*
X187522142Y-110150238D01*
X187474523Y-110245476D01*
X187426904Y-110435952D01*
X187426904Y-110578809D01*
X187474523Y-110769285D01*
X187522142Y-110864523D01*
X187617380Y-110959761D01*
X187760238Y-111007380D01*
X187998333Y-111007380D01*
X186807857Y-110007380D02*
X186617380Y-110007380D01*
X186522142Y-110055000D01*
X186426904Y-110150238D01*
X186379285Y-110340714D01*
X186379285Y-110674047D01*
X186426904Y-110864523D01*
X186522142Y-110959761D01*
X186617380Y-111007380D01*
X186807857Y-111007380D01*
X186903095Y-110959761D01*
X186998333Y-110864523D01*
X187045952Y-110674047D01*
X187045952Y-110340714D01*
X186998333Y-110150238D01*
X186903095Y-110055000D01*
X186807857Y-110007380D01*
X185188809Y-111007380D02*
X185188809Y-110007380D01*
X184617380Y-111007380D01*
X184617380Y-110007380D01*
X183950714Y-110007380D02*
X183760238Y-110007380D01*
X183665000Y-110055000D01*
X183569761Y-110150238D01*
X183522142Y-110340714D01*
X183522142Y-110674047D01*
X183569761Y-110864523D01*
X183665000Y-110959761D01*
X183760238Y-111007380D01*
X183950714Y-111007380D01*
X184045952Y-110959761D01*
X184141190Y-110864523D01*
X184188809Y-110674047D01*
X184188809Y-110340714D01*
X184141190Y-110150238D01*
X184045952Y-110055000D01*
X183950714Y-110007380D01*
X183236428Y-110007380D02*
X182665000Y-110007380D01*
X182950714Y-111007380D02*
X182950714Y-110007380D01*
X181569761Y-110007380D02*
X181569761Y-110816904D01*
X181522142Y-110912142D01*
X181474523Y-110959761D01*
X181379285Y-111007380D01*
X181188809Y-111007380D01*
X181093571Y-110959761D01*
X181045952Y-110912142D01*
X180998333Y-110816904D01*
X180998333Y-110007380D01*
X180569761Y-110959761D02*
X180426904Y-111007380D01*
X180188809Y-111007380D01*
X180093571Y-110959761D01*
X180045952Y-110912142D01*
X179998333Y-110816904D01*
X179998333Y-110721666D01*
X180045952Y-110626428D01*
X180093571Y-110578809D01*
X180188809Y-110531190D01*
X180379285Y-110483571D01*
X180474523Y-110435952D01*
X180522142Y-110388333D01*
X180569761Y-110293095D01*
X180569761Y-110197857D01*
X180522142Y-110102619D01*
X180474523Y-110055000D01*
X180379285Y-110007380D01*
X180141190Y-110007380D01*
X179998333Y-110055000D01*
X179569761Y-110483571D02*
X179236428Y-110483571D01*
X179093571Y-111007380D02*
X179569761Y-111007380D01*
X179569761Y-110007380D01*
X179093571Y-110007380D01*
X177569761Y-110483571D02*
X177903095Y-110483571D01*
X177903095Y-111007380D02*
X177903095Y-110007380D01*
X177426904Y-110007380D01*
X176855476Y-110007380D02*
X176665000Y-110007380D01*
X176569761Y-110055000D01*
X176474523Y-110150238D01*
X176426904Y-110340714D01*
X176426904Y-110674047D01*
X176474523Y-110864523D01*
X176569761Y-110959761D01*
X176665000Y-111007380D01*
X176855476Y-111007380D01*
X176950714Y-110959761D01*
X177045952Y-110864523D01*
X177093571Y-110674047D01*
X177093571Y-110340714D01*
X177045952Y-110150238D01*
X176950714Y-110055000D01*
X176855476Y-110007380D01*
X175426904Y-111007380D02*
X175760238Y-110531190D01*
X175998333Y-111007380D02*
X175998333Y-110007380D01*
X175617380Y-110007380D01*
X175522142Y-110055000D01*
X175474523Y-110102619D01*
X175426904Y-110197857D01*
X175426904Y-110340714D01*
X175474523Y-110435952D01*
X175522142Y-110483571D01*
X175617380Y-110531190D01*
X175998333Y-110531190D01*
X174236428Y-111007380D02*
X174236428Y-110007380D01*
X173855476Y-110007380D01*
X173760238Y-110055000D01*
X173712619Y-110102619D01*
X173665000Y-110197857D01*
X173665000Y-110340714D01*
X173712619Y-110435952D01*
X173760238Y-110483571D01*
X173855476Y-110531190D01*
X174236428Y-110531190D01*
X173045952Y-110007380D02*
X172855476Y-110007380D01*
X172760238Y-110055000D01*
X172665000Y-110150238D01*
X172617380Y-110340714D01*
X172617380Y-110674047D01*
X172665000Y-110864523D01*
X172760238Y-110959761D01*
X172855476Y-111007380D01*
X173045952Y-111007380D01*
X173141190Y-110959761D01*
X173236428Y-110864523D01*
X173284047Y-110674047D01*
X173284047Y-110340714D01*
X173236428Y-110150238D01*
X173141190Y-110055000D01*
X173045952Y-110007380D01*
X172284047Y-110007380D02*
X172045952Y-111007380D01*
X171855476Y-110293095D01*
X171665000Y-111007380D01*
X171426904Y-110007380D01*
X171045952Y-110483571D02*
X170712619Y-110483571D01*
X170569761Y-111007380D02*
X171045952Y-111007380D01*
X171045952Y-110007380D01*
X170569761Y-110007380D01*
X169569761Y-111007380D02*
X169903095Y-110531190D01*
X170141190Y-111007380D02*
X170141190Y-110007380D01*
X169760238Y-110007380D01*
X169665000Y-110055000D01*
X169617380Y-110102619D01*
X169569761Y-110197857D01*
X169569761Y-110340714D01*
X169617380Y-110435952D01*
X169665000Y-110483571D01*
X169760238Y-110531190D01*
X170141190Y-110531190D01*
X169141190Y-111007380D02*
X169141190Y-110007380D01*
X168665000Y-111007380D02*
X168665000Y-110007380D01*
X168093571Y-111007380D01*
X168093571Y-110007380D01*
X167093571Y-110055000D02*
X167188809Y-110007380D01*
X167331666Y-110007380D01*
X167474523Y-110055000D01*
X167569761Y-110150238D01*
X167617380Y-110245476D01*
X167665000Y-110435952D01*
X167665000Y-110578809D01*
X167617380Y-110769285D01*
X167569761Y-110864523D01*
X167474523Y-110959761D01*
X167331666Y-111007380D01*
X167236428Y-111007380D01*
X167093571Y-110959761D01*
X167045952Y-110912142D01*
X167045952Y-110578809D01*
X167236428Y-110578809D01*
X184212619Y-112133571D02*
X183879285Y-112133571D01*
X183736428Y-112657380D02*
X184212619Y-112657380D01*
X184212619Y-111657380D01*
X183736428Y-111657380D01*
X183403095Y-111657380D02*
X182736428Y-112657380D01*
X182736428Y-111657380D02*
X183403095Y-112657380D01*
X182498333Y-111657380D02*
X181926904Y-111657380D01*
X182212619Y-112657380D02*
X182212619Y-111657380D01*
X181593571Y-112133571D02*
X181260238Y-112133571D01*
X181117380Y-112657380D02*
X181593571Y-112657380D01*
X181593571Y-111657380D01*
X181117380Y-111657380D01*
X180117380Y-112657380D02*
X180450714Y-112181190D01*
X180688809Y-112657380D02*
X180688809Y-111657380D01*
X180307857Y-111657380D01*
X180212619Y-111705000D01*
X180165000Y-111752619D01*
X180117380Y-111847857D01*
X180117380Y-111990714D01*
X180165000Y-112085952D01*
X180212619Y-112133571D01*
X180307857Y-112181190D01*
X180688809Y-112181190D01*
X179688809Y-112657380D02*
X179688809Y-111657380D01*
X179117380Y-112657380D01*
X179117380Y-111657380D01*
X178688809Y-112371666D02*
X178212619Y-112371666D01*
X178784047Y-112657380D02*
X178450714Y-111657380D01*
X178117380Y-112657380D01*
X177307857Y-112657380D02*
X177784047Y-112657380D01*
X177784047Y-111657380D01*
X176212619Y-112657380D02*
X176212619Y-111657380D01*
X175974523Y-111657380D01*
X175831666Y-111705000D01*
X175736428Y-111800238D01*
X175688809Y-111895476D01*
X175641190Y-112085952D01*
X175641190Y-112228809D01*
X175688809Y-112419285D01*
X175736428Y-112514523D01*
X175831666Y-112609761D01*
X175974523Y-112657380D01*
X176212619Y-112657380D01*
X175212619Y-112133571D02*
X174879285Y-112133571D01*
X174736428Y-112657380D02*
X175212619Y-112657380D01*
X175212619Y-111657380D01*
X174736428Y-111657380D01*
X174450714Y-111657380D02*
X174117380Y-112657380D01*
X173784047Y-111657380D01*
X173450714Y-112657380D02*
X173450714Y-111657380D01*
X172403095Y-112562142D02*
X172450714Y-112609761D01*
X172593571Y-112657380D01*
X172688809Y-112657380D01*
X172831666Y-112609761D01*
X172926904Y-112514523D01*
X172974523Y-112419285D01*
X173022142Y-112228809D01*
X173022142Y-112085952D01*
X172974523Y-111895476D01*
X172926904Y-111800238D01*
X172831666Y-111705000D01*
X172688809Y-111657380D01*
X172593571Y-111657380D01*
X172450714Y-111705000D01*
X172403095Y-111752619D01*
X171974523Y-112133571D02*
X171641190Y-112133571D01*
X171498333Y-112657380D02*
X171974523Y-112657380D01*
X171974523Y-111657380D01*
X171498333Y-111657380D01*
X171117380Y-112609761D02*
X170974523Y-112657380D01*
X170736428Y-112657380D01*
X170641190Y-112609761D01*
X170593571Y-112562142D01*
X170545952Y-112466904D01*
X170545952Y-112371666D01*
X170593571Y-112276428D01*
X170641190Y-112228809D01*
X170736428Y-112181190D01*
X170926904Y-112133571D01*
X171022142Y-112085952D01*
X171069761Y-112038333D01*
X171117380Y-111943095D01*
X171117380Y-111847857D01*
X171069761Y-111752619D01*
X171022142Y-111705000D01*
X170926904Y-111657380D01*
X170688809Y-111657380D01*
X170545952Y-111705000D01*
X170117380Y-112562142D02*
X170069761Y-112609761D01*
X170117380Y-112657380D01*
X170165000Y-112609761D01*
X170117380Y-112562142D01*
X170117380Y-112657380D01*
X170117380Y-112276428D02*
X170165000Y-111705000D01*
X170117380Y-111657380D01*
X170069761Y-111705000D01*
X170117380Y-112276428D01*
X170117380Y-111657380D01*
X188974523Y-115957380D02*
X188974523Y-114957380D01*
X188736428Y-114957380D01*
X188593571Y-115005000D01*
X188498333Y-115100238D01*
X188450714Y-115195476D01*
X188403095Y-115385952D01*
X188403095Y-115528809D01*
X188450714Y-115719285D01*
X188498333Y-115814523D01*
X188593571Y-115909761D01*
X188736428Y-115957380D01*
X188974523Y-115957380D01*
X187784047Y-114957380D02*
X187593571Y-114957380D01*
X187498333Y-115005000D01*
X187403095Y-115100238D01*
X187355476Y-115290714D01*
X187355476Y-115624047D01*
X187403095Y-115814523D01*
X187498333Y-115909761D01*
X187593571Y-115957380D01*
X187784047Y-115957380D01*
X187879285Y-115909761D01*
X187974523Y-115814523D01*
X188022142Y-115624047D01*
X188022142Y-115290714D01*
X187974523Y-115100238D01*
X187879285Y-115005000D01*
X187784047Y-114957380D01*
X186165000Y-115957380D02*
X186165000Y-114957380D01*
X185593571Y-115957380D01*
X185593571Y-114957380D01*
X184926904Y-114957380D02*
X184736428Y-114957380D01*
X184641190Y-115005000D01*
X184545952Y-115100238D01*
X184498333Y-115290714D01*
X184498333Y-115624047D01*
X184545952Y-115814523D01*
X184641190Y-115909761D01*
X184736428Y-115957380D01*
X184926904Y-115957380D01*
X185022142Y-115909761D01*
X185117380Y-115814523D01*
X185165000Y-115624047D01*
X185165000Y-115290714D01*
X185117380Y-115100238D01*
X185022142Y-115005000D01*
X184926904Y-114957380D01*
X184212619Y-114957380D02*
X183641190Y-114957380D01*
X183926904Y-115957380D02*
X183926904Y-114957380D01*
X182593571Y-115671666D02*
X182117380Y-115671666D01*
X182688809Y-115957380D02*
X182355476Y-114957380D01*
X182022142Y-115957380D01*
X181688809Y-115957380D02*
X181688809Y-114957380D01*
X181307857Y-114957380D01*
X181212619Y-115005000D01*
X181165000Y-115052619D01*
X181117380Y-115147857D01*
X181117380Y-115290714D01*
X181165000Y-115385952D01*
X181212619Y-115433571D01*
X181307857Y-115481190D01*
X181688809Y-115481190D01*
X180688809Y-115957380D02*
X180688809Y-114957380D01*
X180307857Y-114957380D01*
X180212619Y-115005000D01*
X180165000Y-115052619D01*
X180117380Y-115147857D01*
X180117380Y-115290714D01*
X180165000Y-115385952D01*
X180212619Y-115433571D01*
X180307857Y-115481190D01*
X180688809Y-115481190D01*
X179212619Y-115957380D02*
X179688809Y-115957380D01*
X179688809Y-114957380D01*
X178688809Y-115481190D02*
X178688809Y-115957380D01*
X179022142Y-114957380D02*
X178688809Y-115481190D01*
X178355476Y-114957380D01*
X177260238Y-115957380D02*
X177260238Y-114957380D01*
X176926904Y-115671666D01*
X176593571Y-114957380D01*
X176593571Y-115957380D01*
X175926904Y-114957380D02*
X175736428Y-114957380D01*
X175641190Y-115005000D01*
X175545952Y-115100238D01*
X175498333Y-115290714D01*
X175498333Y-115624047D01*
X175545952Y-115814523D01*
X175641190Y-115909761D01*
X175736428Y-115957380D01*
X175926904Y-115957380D01*
X176022142Y-115909761D01*
X176117380Y-115814523D01*
X176165000Y-115624047D01*
X176165000Y-115290714D01*
X176117380Y-115100238D01*
X176022142Y-115005000D01*
X175926904Y-114957380D01*
X174498333Y-115957380D02*
X174831666Y-115481190D01*
X175069761Y-115957380D02*
X175069761Y-114957380D01*
X174688809Y-114957380D01*
X174593571Y-115005000D01*
X174545952Y-115052619D01*
X174498333Y-115147857D01*
X174498333Y-115290714D01*
X174545952Y-115385952D01*
X174593571Y-115433571D01*
X174688809Y-115481190D01*
X175069761Y-115481190D01*
X174069761Y-115433571D02*
X173736428Y-115433571D01*
X173593571Y-115957380D02*
X174069761Y-115957380D01*
X174069761Y-114957380D01*
X173593571Y-114957380D01*
X172545952Y-114957380D02*
X171974523Y-114957380D01*
X172260238Y-115957380D02*
X172260238Y-114957380D01*
X171641190Y-115957380D02*
X171641190Y-114957380D01*
X171641190Y-115433571D02*
X171069761Y-115433571D01*
X171069761Y-115957380D02*
X171069761Y-114957380D01*
X170641190Y-115671666D02*
X170165000Y-115671666D01*
X170736428Y-115957380D02*
X170403095Y-114957380D01*
X170069761Y-115957380D01*
X169736428Y-115957380D02*
X169736428Y-114957380D01*
X169165000Y-115957380D01*
X169165000Y-114957380D01*
X167450714Y-114957380D02*
X167926904Y-114957380D01*
X167974523Y-115433571D01*
X167926904Y-115385952D01*
X167831666Y-115338333D01*
X167593571Y-115338333D01*
X167498333Y-115385952D01*
X167450714Y-115433571D01*
X167403095Y-115528809D01*
X167403095Y-115766904D01*
X167450714Y-115862142D01*
X167498333Y-115909761D01*
X167593571Y-115957380D01*
X167831666Y-115957380D01*
X167926904Y-115909761D01*
X167974523Y-115862142D01*
X167117380Y-114957380D02*
X166784047Y-115957380D01*
X166450714Y-114957380D01*
X166117380Y-115862142D02*
X166069761Y-115909761D01*
X166117380Y-115957380D01*
X166165000Y-115909761D01*
X166117380Y-115862142D01*
X166117380Y-115957380D01*
X188426904Y-117607380D02*
X188426904Y-116607380D01*
X188188809Y-116607380D01*
X188045952Y-116655000D01*
X187950714Y-116750238D01*
X187903095Y-116845476D01*
X187855476Y-117035952D01*
X187855476Y-117178809D01*
X187903095Y-117369285D01*
X187950714Y-117464523D01*
X188045952Y-117559761D01*
X188188809Y-117607380D01*
X188426904Y-117607380D01*
X187236428Y-116607380D02*
X187045952Y-116607380D01*
X186950714Y-116655000D01*
X186855476Y-116750238D01*
X186807857Y-116940714D01*
X186807857Y-117274047D01*
X186855476Y-117464523D01*
X186950714Y-117559761D01*
X187045952Y-117607380D01*
X187236428Y-117607380D01*
X187331666Y-117559761D01*
X187426904Y-117464523D01*
X187474523Y-117274047D01*
X187474523Y-116940714D01*
X187426904Y-116750238D01*
X187331666Y-116655000D01*
X187236428Y-116607380D01*
X186379285Y-117607380D02*
X186379285Y-116607380D01*
X185903095Y-117607380D02*
X185903095Y-116607380D01*
X185331666Y-117607380D01*
X185331666Y-116607380D01*
X184331666Y-116655000D02*
X184426904Y-116607380D01*
X184569761Y-116607380D01*
X184712619Y-116655000D01*
X184807857Y-116750238D01*
X184855476Y-116845476D01*
X184903095Y-117035952D01*
X184903095Y-117178809D01*
X184855476Y-117369285D01*
X184807857Y-117464523D01*
X184712619Y-117559761D01*
X184569761Y-117607380D01*
X184474523Y-117607380D01*
X184331666Y-117559761D01*
X184284047Y-117512142D01*
X184284047Y-117178809D01*
X184474523Y-117178809D01*
X183141190Y-117559761D02*
X182998333Y-117607380D01*
X182760238Y-117607380D01*
X182665000Y-117559761D01*
X182617380Y-117512142D01*
X182569761Y-117416904D01*
X182569761Y-117321666D01*
X182617380Y-117226428D01*
X182665000Y-117178809D01*
X182760238Y-117131190D01*
X182950714Y-117083571D01*
X183045952Y-117035952D01*
X183093571Y-116988333D01*
X183141190Y-116893095D01*
X183141190Y-116797857D01*
X183093571Y-116702619D01*
X183045952Y-116655000D01*
X182950714Y-116607380D01*
X182712619Y-116607380D01*
X182569761Y-116655000D01*
X181950714Y-116607380D02*
X181760238Y-116607380D01*
X181665000Y-116655000D01*
X181569761Y-116750238D01*
X181522142Y-116940714D01*
X181522142Y-117274047D01*
X181569761Y-117464523D01*
X181665000Y-117559761D01*
X181760238Y-117607380D01*
X181950714Y-117607380D01*
X182045952Y-117559761D01*
X182141190Y-117464523D01*
X182188809Y-117274047D01*
X182188809Y-116940714D01*
X182141190Y-116750238D01*
X182045952Y-116655000D01*
X181950714Y-116607380D01*
X179760238Y-117512142D02*
X179807857Y-117559761D01*
X179950714Y-117607380D01*
X180045952Y-117607380D01*
X180188809Y-117559761D01*
X180284047Y-117464523D01*
X180331666Y-117369285D01*
X180379285Y-117178809D01*
X180379285Y-117035952D01*
X180331666Y-116845476D01*
X180284047Y-116750238D01*
X180188809Y-116655000D01*
X180045952Y-116607380D01*
X179950714Y-116607380D01*
X179807857Y-116655000D01*
X179760238Y-116702619D01*
X179379285Y-117321666D02*
X178903095Y-117321666D01*
X179474523Y-117607380D02*
X179141190Y-116607380D01*
X178807857Y-117607380D01*
X178474523Y-117607380D02*
X178474523Y-116607380D01*
X177903095Y-117607380D01*
X177903095Y-116607380D01*
X176665000Y-117607380D02*
X176665000Y-116607380D01*
X176426904Y-116607380D01*
X176284047Y-116655000D01*
X176188809Y-116750238D01*
X176141190Y-116845476D01*
X176093571Y-117035952D01*
X176093571Y-117178809D01*
X176141190Y-117369285D01*
X176188809Y-117464523D01*
X176284047Y-117559761D01*
X176426904Y-117607380D01*
X176665000Y-117607380D01*
X175712619Y-117321666D02*
X175236428Y-117321666D01*
X175807857Y-117607380D02*
X175474523Y-116607380D01*
X175141190Y-117607380D01*
X174807857Y-117607380D02*
X174807857Y-116607380D01*
X174474523Y-117321666D01*
X174141190Y-116607380D01*
X174141190Y-117607380D01*
X173712619Y-117321666D02*
X173236428Y-117321666D01*
X173807857Y-117607380D02*
X173474523Y-116607380D01*
X173141190Y-117607380D01*
X172284047Y-116655000D02*
X172379285Y-116607380D01*
X172522142Y-116607380D01*
X172665000Y-116655000D01*
X172760238Y-116750238D01*
X172807857Y-116845476D01*
X172855476Y-117035952D01*
X172855476Y-117178809D01*
X172807857Y-117369285D01*
X172760238Y-117464523D01*
X172665000Y-117559761D01*
X172522142Y-117607380D01*
X172426904Y-117607380D01*
X172284047Y-117559761D01*
X172236428Y-117512142D01*
X172236428Y-117178809D01*
X172426904Y-117178809D01*
X171807857Y-117083571D02*
X171474523Y-117083571D01*
X171331666Y-117607380D02*
X171807857Y-117607380D01*
X171807857Y-116607380D01*
X171331666Y-116607380D01*
X169950714Y-117131190D02*
X169950714Y-117607380D01*
X170284047Y-116607380D02*
X169950714Y-117131190D01*
X169617380Y-116607380D01*
X169093571Y-116607380D02*
X168903095Y-116607380D01*
X168807857Y-116655000D01*
X168712619Y-116750238D01*
X168665000Y-116940714D01*
X168665000Y-117274047D01*
X168712619Y-117464523D01*
X168807857Y-117559761D01*
X168903095Y-117607380D01*
X169093571Y-117607380D01*
X169188809Y-117559761D01*
X169284047Y-117464523D01*
X169331666Y-117274047D01*
X169331666Y-116940714D01*
X169284047Y-116750238D01*
X169188809Y-116655000D01*
X169093571Y-116607380D01*
X168236428Y-116607380D02*
X168236428Y-117416904D01*
X168188809Y-117512142D01*
X168141190Y-117559761D01*
X168045952Y-117607380D01*
X167855476Y-117607380D01*
X167760238Y-117559761D01*
X167712619Y-117512142D01*
X167665000Y-117416904D01*
X167665000Y-116607380D01*
X166617380Y-117607380D02*
X166950714Y-117131190D01*
X167188809Y-117607380D02*
X167188809Y-116607380D01*
X166807857Y-116607380D01*
X166712619Y-116655000D01*
X166665000Y-116702619D01*
X166617380Y-116797857D01*
X166617380Y-116940714D01*
X166665000Y-117035952D01*
X166712619Y-117083571D01*
X166807857Y-117131190D01*
X167188809Y-117131190D01*
X180403095Y-119257380D02*
X180403095Y-118257380D01*
X180069761Y-118971666D01*
X179736428Y-118257380D01*
X179736428Y-119257380D01*
X179307857Y-118971666D02*
X178831666Y-118971666D01*
X179403095Y-119257380D02*
X179069761Y-118257380D01*
X178736428Y-119257380D01*
X177831666Y-119162142D02*
X177879285Y-119209761D01*
X178022142Y-119257380D01*
X178117380Y-119257380D01*
X178260238Y-119209761D01*
X178355476Y-119114523D01*
X178403095Y-119019285D01*
X178450714Y-118828809D01*
X178450714Y-118685952D01*
X178403095Y-118495476D01*
X178355476Y-118400238D01*
X178260238Y-118305000D01*
X178117380Y-118257380D01*
X178022142Y-118257380D01*
X177879285Y-118305000D01*
X177831666Y-118352619D01*
X177403095Y-119257380D02*
X177403095Y-118257380D01*
X177403095Y-118733571D02*
X176831666Y-118733571D01*
X176831666Y-119257380D02*
X176831666Y-118257380D01*
X176355476Y-119257380D02*
X176355476Y-118257380D01*
X175879285Y-119257380D02*
X175879285Y-118257380D01*
X175307857Y-119257380D01*
X175307857Y-118257380D01*
X174831666Y-118733571D02*
X174498333Y-118733571D01*
X174355476Y-119257380D02*
X174831666Y-119257380D01*
X174831666Y-118257380D01*
X174355476Y-118257380D01*
X173926904Y-119162142D02*
X173879285Y-119209761D01*
X173926904Y-119257380D01*
X173974523Y-119209761D01*
X173926904Y-119162142D01*
X173926904Y-119257380D01*
X173926904Y-118876428D02*
X173974523Y-118305000D01*
X173926904Y-118257380D01*
X173879285Y-118305000D01*
X173926904Y-118876428D01*
X173926904Y-118257380D01*
X192857380Y-106680714D02*
X191857380Y-106680714D01*
X191857380Y-107061666D01*
X191905000Y-107156904D01*
X191952619Y-107204523D01*
X192047857Y-107252142D01*
X192190714Y-107252142D01*
X192285952Y-107204523D01*
X192333571Y-107156904D01*
X192381190Y-107061666D01*
X192381190Y-106680714D01*
X191857380Y-107871190D02*
X191857380Y-108061666D01*
X191905000Y-108156904D01*
X192000238Y-108252142D01*
X192190714Y-108299761D01*
X192524047Y-108299761D01*
X192714523Y-108252142D01*
X192809761Y-108156904D01*
X192857380Y-108061666D01*
X192857380Y-107871190D01*
X192809761Y-107775952D01*
X192714523Y-107680714D01*
X192524047Y-107633095D01*
X192190714Y-107633095D01*
X192000238Y-107680714D01*
X191905000Y-107775952D01*
X191857380Y-107871190D01*
X191857380Y-108633095D02*
X192857380Y-108871190D01*
X192143095Y-109061666D01*
X192857380Y-109252142D01*
X191857380Y-109490238D01*
X192333571Y-109871190D02*
X192333571Y-110204523D01*
X192857380Y-110347380D02*
X192857380Y-109871190D01*
X191857380Y-109871190D01*
X191857380Y-110347380D01*
X192857380Y-111347380D02*
X192381190Y-111014047D01*
X192857380Y-110775952D02*
X191857380Y-110775952D01*
X191857380Y-111156904D01*
X191905000Y-111252142D01*
X191952619Y-111299761D01*
X192047857Y-111347380D01*
X192190714Y-111347380D01*
X192285952Y-111299761D01*
X192333571Y-111252142D01*
X192381190Y-111156904D01*
X192381190Y-110775952D01*
X192857380Y-112537857D02*
X191857380Y-112537857D01*
X192857380Y-113014047D02*
X191857380Y-113014047D01*
X192857380Y-113585476D01*
X191857380Y-113585476D01*
X191857380Y-115014047D02*
X191857380Y-115204523D01*
X191905000Y-115299761D01*
X192000238Y-115395000D01*
X192190714Y-115442619D01*
X192524047Y-115442619D01*
X192714523Y-115395000D01*
X192809761Y-115299761D01*
X192857380Y-115204523D01*
X192857380Y-115014047D01*
X192809761Y-114918809D01*
X192714523Y-114823571D01*
X192524047Y-114775952D01*
X192190714Y-114775952D01*
X192000238Y-114823571D01*
X191905000Y-114918809D01*
X191857380Y-115014047D01*
X192857380Y-115871190D02*
X191857380Y-115871190D01*
X192857380Y-116442619D01*
X191857380Y-116442619D01*
X192857380Y-117395000D02*
X192857380Y-116918809D01*
X191857380Y-116918809D01*
X192381190Y-117918809D02*
X192857380Y-117918809D01*
X191857380Y-117585476D02*
X192381190Y-117918809D01*
X191857380Y-118252142D01*
D11*
X145165000Y-108835000D02*
X114935000Y-108839000D01*
X145165000Y-140085000D02*
X145165000Y-108835000D01*
X113915000Y-140085000D02*
X145165000Y-140085000D01*
X113915000Y-109835000D02*
X113915000Y-140085000D01*
X114915000Y-108835000D02*
X113915000Y-109835000D01*
%LPC*%
D12*
X127000000Y-114300000D03*
X124460000Y-114300000D03*
X121920000Y-114300000D03*
X119380000Y-114300000D03*
X129540000Y-114300000D03*
X132080000Y-114300000D03*
X134620000Y-114300000D03*
X137160000Y-114300000D03*
D13*
X129540000Y-111760000D03*
D12*
X127000000Y-111760000D03*
X124460000Y-111760000D03*
X121920000Y-111760000D03*
X119380000Y-111760000D03*
X132080000Y-111760000D03*
X134620000Y-111760000D03*
X137160000Y-111760000D03*
X119380000Y-116840000D03*
X119380000Y-119380000D03*
X119380000Y-121920000D03*
X119380000Y-124460000D03*
X119380000Y-127000000D03*
X119380000Y-129540000D03*
X119380000Y-132080000D03*
X119380000Y-134620000D03*
X116840000Y-114300000D03*
X116840000Y-116840000D03*
X116840000Y-119380000D03*
X116840000Y-121920000D03*
X116840000Y-124460000D03*
X116840000Y-127000000D03*
X116840000Y-129540000D03*
X116840000Y-132080000D03*
X116840000Y-134620000D03*
X121920000Y-134620000D03*
X124460000Y-134620000D03*
X127000000Y-134620000D03*
X129540000Y-134620000D03*
X132080000Y-134620000D03*
X134620000Y-134620000D03*
X137160000Y-134620000D03*
X139700000Y-134620000D03*
X142240000Y-134620000D03*
X119380000Y-137160000D03*
X121920000Y-137160000D03*
X124460000Y-137160000D03*
X127000000Y-137160000D03*
X129540000Y-137160000D03*
X132080000Y-137160000D03*
X134620000Y-137160000D03*
X137160000Y-137160000D03*
X139700000Y-137160000D03*
X139700000Y-132080000D03*
X139700000Y-129540000D03*
X139700000Y-127000000D03*
X139700000Y-124460000D03*
X139700000Y-121920000D03*
X139700000Y-119380000D03*
X139700000Y-116840000D03*
X139700000Y-114300000D03*
X139700000Y-111760000D03*
X142240000Y-132080000D03*
X142240000Y-129540000D03*
X142240000Y-127000000D03*
X142240000Y-124460000D03*
X142240000Y-121920000D03*
X142240000Y-119380000D03*
X142240000Y-116840000D03*
X142240000Y-114300000D03*
X195580000Y-104140000D03*
X116840000Y-81280000D03*
X193040000Y-104140000D03*
X119380000Y-81280000D03*
X190500000Y-104140000D03*
X121920000Y-81280000D03*
X187960000Y-104140000D03*
X124460000Y-81280000D03*
X185420000Y-104140000D03*
X127000000Y-81280000D03*
X182880000Y-104140000D03*
X129540000Y-81280000D03*
X180340000Y-104140000D03*
X132080000Y-81280000D03*
X177800000Y-104140000D03*
X134620000Y-81280000D03*
X175260000Y-104140000D03*
X137160000Y-81280000D03*
X172720000Y-104140000D03*
X139700000Y-81280000D03*
X170180000Y-104140000D03*
X142240000Y-81280000D03*
X167640000Y-104140000D03*
X144780000Y-81280000D03*
X165100000Y-104140000D03*
X147320000Y-81280000D03*
X162560000Y-104140000D03*
X149860000Y-81280000D03*
X160020000Y-104140000D03*
X152400000Y-81280000D03*
X157480000Y-104140000D03*
X154940000Y-81280000D03*
X154940000Y-104140000D03*
X157480000Y-81280000D03*
X152400000Y-104140000D03*
X160020000Y-81280000D03*
X149860000Y-104140000D03*
X162560000Y-81280000D03*
X147320000Y-104140000D03*
X165100000Y-81280000D03*
X144780000Y-104140000D03*
X167640000Y-81280000D03*
X142240000Y-104140000D03*
X170180000Y-81280000D03*
X139700000Y-104140000D03*
X172720000Y-81280000D03*
X137160000Y-104140000D03*
X175260000Y-81280000D03*
X134620000Y-104140000D03*
X177800000Y-81280000D03*
X132080000Y-104140000D03*
X180340000Y-81280000D03*
X129540000Y-104140000D03*
X182880000Y-81280000D03*
X127000000Y-104140000D03*
X185420000Y-81280000D03*
X124460000Y-104140000D03*
X187960000Y-81280000D03*
X121920000Y-104140000D03*
X190500000Y-81280000D03*
X119380000Y-104140000D03*
X193040000Y-81280000D03*
X116840000Y-104140000D03*
D13*
X195580000Y-81280000D03*
D14*
X111941000Y-119669000D03*
X110880000Y-119230000D03*
X109819000Y-119669000D03*
X109380000Y-120730000D03*
X109819000Y-121791000D03*
X110880000Y-122230000D03*
X111941000Y-121791000D03*
X112380000Y-120730000D03*
D15*
X110880000Y-120730000D03*
D14*
X205441000Y-119669000D03*
X204380000Y-119230000D03*
X203319000Y-119669000D03*
X202880000Y-120730000D03*
X203319000Y-121791000D03*
X204380000Y-122230000D03*
X205441000Y-121791000D03*
X205880000Y-120730000D03*
D15*
X204380000Y-120730000D03*
D16*
X194840000Y-116145000D03*
X194840000Y-113645000D03*
X194840000Y-111145000D03*
D17*
X194840000Y-108645000D03*
M02*
