%FSLAX45Y45*%
G04 Gerber Fmt 4.5, Leading zero omitted, Abs format (unit mm)*
G04 Created by KiCad (PCBNEW (5.1.12)-1) date 2022-01-03 18:38:48*
%MOMM*%
%LPD*%
G01*
G04 APERTURE LIST*
%TA.AperFunction,Profile*%
%ADD10C,0.050000*%
%TD*%
%ADD11C,0.200000*%
%ADD12C,0.300000*%
G04 APERTURE END LIST*
D10*
X13589000Y-12954000D02*
G75*
G02*
X13462000Y-13081000I-127000J0D01*
G01*
X12446000Y-13081000D02*
G75*
G02*
X12319000Y-12954000I0J127000D01*
G01*
X12319000Y-11938000D02*
G75*
G02*
X12446000Y-11811000I127000J0D01*
G01*
X13462000Y-11811000D02*
G75*
G02*
X13589000Y-11938000I0J-127000D01*
G01*
X13462000Y-11811000D02*
X12446000Y-11811000D01*
X13589000Y-12954000D02*
X13589000Y-11938000D01*
X12446000Y-13081000D02*
X13462000Y-13081000D01*
X12319000Y-11938000D02*
X12319000Y-12954000D01*
X10896600Y-14478000D02*
G75*
G02*
X10642600Y-14224000I0J254000D01*
G01*
X10642600Y-7747000D02*
X10642600Y-14224000D01*
X20828000Y-7747000D02*
X20828000Y-12192000D01*
X10896600Y-7493000D02*
X20574000Y-7493000D01*
X14986000Y-12700000D02*
G75*
G02*
X15240000Y-12446000I254000J0D01*
G01*
X20828000Y-12192000D02*
G75*
G02*
X20574000Y-12446000I-254000J0D01*
G01*
X20574000Y-7493000D02*
G75*
G02*
X20828000Y-7747000I0J-254000D01*
G01*
X10642600Y-7747000D02*
G75*
G02*
X10896600Y-7493000I254000J0D01*
G01*
X14986000Y-14224000D02*
G75*
G02*
X14732000Y-14478000I-254000J0D01*
G01*
X15240000Y-12446000D02*
X20574000Y-12446000D01*
X14986000Y-12700000D02*
X14986000Y-14224000D01*
X14732000Y-14478000D02*
X10896600Y-14478000D01*
D11*
X10918000Y-12053000D02*
X10958000Y-12093000D01*
X10958000Y-12053000D02*
X10918000Y-12093000D01*
X10961900Y-11946900D02*
X11001900Y-11986900D01*
X11001900Y-11946900D02*
X10961900Y-11986900D01*
X10961900Y-12159100D02*
X11001900Y-12199100D01*
X11001900Y-12159100D02*
X10961900Y-12199100D01*
X11068000Y-11903000D02*
X11108000Y-11943000D01*
X11108000Y-11903000D02*
X11068000Y-11943000D01*
X11068000Y-12203000D02*
X11108000Y-12243000D01*
X11108000Y-12203000D02*
X11068000Y-12243000D01*
X11174100Y-11946900D02*
X11214100Y-11986900D01*
X11214100Y-11946900D02*
X11174100Y-11986900D01*
X11174100Y-12159100D02*
X11214100Y-12199100D01*
X11214100Y-12159100D02*
X11174100Y-12199100D01*
X11218000Y-12053000D02*
X11258000Y-12093000D01*
X11258000Y-12053000D02*
X11218000Y-12093000D01*
X20268000Y-12053000D02*
X20308000Y-12093000D01*
X20308000Y-12053000D02*
X20268000Y-12093000D01*
X20311900Y-11946900D02*
X20351900Y-11986900D01*
X20351900Y-11946900D02*
X20311900Y-11986900D01*
X20311900Y-12159100D02*
X20351900Y-12199100D01*
X20351900Y-12159100D02*
X20311900Y-12199100D01*
X20418000Y-11903000D02*
X20458000Y-11943000D01*
X20458000Y-11903000D02*
X20418000Y-11943000D01*
X20418000Y-12203000D02*
X20458000Y-12243000D01*
X20458000Y-12203000D02*
X20418000Y-12243000D01*
X20524100Y-11946900D02*
X20564100Y-11986900D01*
X20564100Y-11946900D02*
X20524100Y-11986900D01*
X20524100Y-12159100D02*
X20564100Y-12199100D01*
X20564100Y-12159100D02*
X20524100Y-12199100D01*
X20568000Y-12053000D02*
X20608000Y-12093000D01*
X20608000Y-12053000D02*
X20568000Y-12093000D01*
X11724000Y-8128000D02*
G75*
G03*
X11724000Y-8128000I-40000J0D01*
G01*
X11724000Y-10414000D02*
G75*
G03*
X11724000Y-10414000I-40000J0D01*
G01*
X11724000Y-11430000D02*
G75*
G03*
X11724000Y-11430000I-40000J0D01*
G01*
X11724000Y-11684000D02*
G75*
G03*
X11724000Y-11684000I-40000J0D01*
G01*
X11724000Y-11938000D02*
G75*
G03*
X11724000Y-11938000I-40000J0D01*
G01*
X11724000Y-12192000D02*
G75*
G03*
X11724000Y-12192000I-40000J0D01*
G01*
X11724000Y-12446000D02*
G75*
G03*
X11724000Y-12446000I-40000J0D01*
G01*
X11724000Y-12700000D02*
G75*
G03*
X11724000Y-12700000I-40000J0D01*
G01*
X11724000Y-12954000D02*
G75*
G03*
X11724000Y-12954000I-40000J0D01*
G01*
X11724000Y-13208000D02*
G75*
G03*
X11724000Y-13208000I-40000J0D01*
G01*
X11724000Y-13462000D02*
G75*
G03*
X11724000Y-13462000I-40000J0D01*
G01*
X11978000Y-8128000D02*
G75*
G03*
X11978000Y-8128000I-40000J0D01*
G01*
X11978000Y-10414000D02*
G75*
G03*
X11978000Y-10414000I-40000J0D01*
G01*
X11978000Y-11176000D02*
G75*
G03*
X11978000Y-11176000I-40000J0D01*
G01*
X11978000Y-11430000D02*
G75*
G03*
X11978000Y-11430000I-40000J0D01*
G01*
X11978000Y-11684000D02*
G75*
G03*
X11978000Y-11684000I-40000J0D01*
G01*
X11978000Y-11938000D02*
G75*
G03*
X11978000Y-11938000I-40000J0D01*
G01*
X11978000Y-12192000D02*
G75*
G03*
X11978000Y-12192000I-40000J0D01*
G01*
X11978000Y-12446000D02*
G75*
G03*
X11978000Y-12446000I-40000J0D01*
G01*
X11978000Y-12700000D02*
G75*
G03*
X11978000Y-12700000I-40000J0D01*
G01*
X11978000Y-12954000D02*
G75*
G03*
X11978000Y-12954000I-40000J0D01*
G01*
X11978000Y-13208000D02*
G75*
G03*
X11978000Y-13208000I-40000J0D01*
G01*
X11978000Y-13462000D02*
G75*
G03*
X11978000Y-13462000I-40000J0D01*
G01*
X11978000Y-13716000D02*
G75*
G03*
X11978000Y-13716000I-40000J0D01*
G01*
X12232000Y-8128000D02*
G75*
G03*
X12232000Y-8128000I-40000J0D01*
G01*
X12232000Y-10414000D02*
G75*
G03*
X12232000Y-10414000I-40000J0D01*
G01*
X12232000Y-11176000D02*
G75*
G03*
X12232000Y-11176000I-40000J0D01*
G01*
X12232000Y-11430000D02*
G75*
G03*
X12232000Y-11430000I-40000J0D01*
G01*
X12232000Y-13462000D02*
G75*
G03*
X12232000Y-13462000I-40000J0D01*
G01*
X12232000Y-13716000D02*
G75*
G03*
X12232000Y-13716000I-40000J0D01*
G01*
X12486000Y-8128000D02*
G75*
G03*
X12486000Y-8128000I-40000J0D01*
G01*
X12486000Y-10414000D02*
G75*
G03*
X12486000Y-10414000I-40000J0D01*
G01*
X12486000Y-11176000D02*
G75*
G03*
X12486000Y-11176000I-40000J0D01*
G01*
X12486000Y-11430000D02*
G75*
G03*
X12486000Y-11430000I-40000J0D01*
G01*
X12486000Y-13462000D02*
G75*
G03*
X12486000Y-13462000I-40000J0D01*
G01*
X12486000Y-13716000D02*
G75*
G03*
X12486000Y-13716000I-40000J0D01*
G01*
X12740000Y-8128000D02*
G75*
G03*
X12740000Y-8128000I-40000J0D01*
G01*
X12740000Y-10414000D02*
G75*
G03*
X12740000Y-10414000I-40000J0D01*
G01*
X12740000Y-11176000D02*
G75*
G03*
X12740000Y-11176000I-40000J0D01*
G01*
X12740000Y-11430000D02*
G75*
G03*
X12740000Y-11430000I-40000J0D01*
G01*
X12740000Y-13462000D02*
G75*
G03*
X12740000Y-13462000I-40000J0D01*
G01*
X12740000Y-13716000D02*
G75*
G03*
X12740000Y-13716000I-40000J0D01*
G01*
X12994000Y-8128000D02*
G75*
G03*
X12994000Y-8128000I-40000J0D01*
G01*
X12994000Y-10414000D02*
G75*
G03*
X12994000Y-10414000I-40000J0D01*
G01*
X12994000Y-11176000D02*
G75*
G03*
X12994000Y-11176000I-40000J0D01*
G01*
X12994000Y-11430000D02*
G75*
G03*
X12994000Y-11430000I-40000J0D01*
G01*
X12994000Y-13462000D02*
G75*
G03*
X12994000Y-13462000I-40000J0D01*
G01*
X12994000Y-13716000D02*
G75*
G03*
X12994000Y-13716000I-40000J0D01*
G01*
X13248000Y-8128000D02*
G75*
G03*
X13248000Y-8128000I-40000J0D01*
G01*
X13248000Y-10414000D02*
G75*
G03*
X13248000Y-10414000I-40000J0D01*
G01*
X13248000Y-11176000D02*
G75*
G03*
X13248000Y-11176000I-40000J0D01*
G01*
X13248000Y-11430000D02*
G75*
G03*
X13248000Y-11430000I-40000J0D01*
G01*
X13248000Y-13462000D02*
G75*
G03*
X13248000Y-13462000I-40000J0D01*
G01*
X13248000Y-13716000D02*
G75*
G03*
X13248000Y-13716000I-40000J0D01*
G01*
X13502000Y-8128000D02*
G75*
G03*
X13502000Y-8128000I-40000J0D01*
G01*
X13502000Y-10414000D02*
G75*
G03*
X13502000Y-10414000I-40000J0D01*
G01*
X13502000Y-11176000D02*
G75*
G03*
X13502000Y-11176000I-40000J0D01*
G01*
X13502000Y-11430000D02*
G75*
G03*
X13502000Y-11430000I-40000J0D01*
G01*
X13502000Y-13462000D02*
G75*
G03*
X13502000Y-13462000I-40000J0D01*
G01*
X13502000Y-13716000D02*
G75*
G03*
X13502000Y-13716000I-40000J0D01*
G01*
X13756000Y-8128000D02*
G75*
G03*
X13756000Y-8128000I-40000J0D01*
G01*
X13756000Y-10414000D02*
G75*
G03*
X13756000Y-10414000I-40000J0D01*
G01*
X13756000Y-11176000D02*
G75*
G03*
X13756000Y-11176000I-40000J0D01*
G01*
X13756000Y-11430000D02*
G75*
G03*
X13756000Y-11430000I-40000J0D01*
G01*
X13756000Y-13462000D02*
G75*
G03*
X13756000Y-13462000I-40000J0D01*
G01*
X13756000Y-13716000D02*
G75*
G03*
X13756000Y-13716000I-40000J0D01*
G01*
X14010000Y-8128000D02*
G75*
G03*
X14010000Y-8128000I-40000J0D01*
G01*
X14010000Y-10414000D02*
G75*
G03*
X14010000Y-10414000I-40000J0D01*
G01*
X14010000Y-11176000D02*
G75*
G03*
X14010000Y-11176000I-40000J0D01*
G01*
X14010000Y-11430000D02*
G75*
G03*
X14010000Y-11430000I-40000J0D01*
G01*
X14010000Y-11684000D02*
G75*
G03*
X14010000Y-11684000I-40000J0D01*
G01*
X14010000Y-11938000D02*
G75*
G03*
X14010000Y-11938000I-40000J0D01*
G01*
X14010000Y-12192000D02*
G75*
G03*
X14010000Y-12192000I-40000J0D01*
G01*
X14010000Y-12446000D02*
G75*
G03*
X14010000Y-12446000I-40000J0D01*
G01*
X14010000Y-12700000D02*
G75*
G03*
X14010000Y-12700000I-40000J0D01*
G01*
X14010000Y-12954000D02*
G75*
G03*
X14010000Y-12954000I-40000J0D01*
G01*
X14010000Y-13208000D02*
G75*
G03*
X14010000Y-13208000I-40000J0D01*
G01*
X14010000Y-13462000D02*
G75*
G03*
X14010000Y-13462000I-40000J0D01*
G01*
X14010000Y-13716000D02*
G75*
G03*
X14010000Y-13716000I-40000J0D01*
G01*
X14264000Y-8128000D02*
G75*
G03*
X14264000Y-8128000I-40000J0D01*
G01*
X14264000Y-10414000D02*
G75*
G03*
X14264000Y-10414000I-40000J0D01*
G01*
X14264000Y-11430000D02*
G75*
G03*
X14264000Y-11430000I-40000J0D01*
G01*
X14264000Y-11684000D02*
G75*
G03*
X14264000Y-11684000I-40000J0D01*
G01*
X14264000Y-11938000D02*
G75*
G03*
X14264000Y-11938000I-40000J0D01*
G01*
X14264000Y-12192000D02*
G75*
G03*
X14264000Y-12192000I-40000J0D01*
G01*
X14264000Y-12446000D02*
G75*
G03*
X14264000Y-12446000I-40000J0D01*
G01*
X14264000Y-12700000D02*
G75*
G03*
X14264000Y-12700000I-40000J0D01*
G01*
X14264000Y-12954000D02*
G75*
G03*
X14264000Y-12954000I-40000J0D01*
G01*
X14264000Y-13208000D02*
G75*
G03*
X14264000Y-13208000I-40000J0D01*
G01*
X14264000Y-13462000D02*
G75*
G03*
X14264000Y-13462000I-40000J0D01*
G01*
X14518000Y-8128000D02*
G75*
G03*
X14518000Y-8128000I-40000J0D01*
G01*
X14518000Y-10414000D02*
G75*
G03*
X14518000Y-10414000I-40000J0D01*
G01*
X14772000Y-8128000D02*
G75*
G03*
X14772000Y-8128000I-40000J0D01*
G01*
X14772000Y-10414000D02*
G75*
G03*
X14772000Y-10414000I-40000J0D01*
G01*
X15026000Y-8128000D02*
G75*
G03*
X15026000Y-8128000I-40000J0D01*
G01*
X15026000Y-10414000D02*
G75*
G03*
X15026000Y-10414000I-40000J0D01*
G01*
X15280000Y-8128000D02*
G75*
G03*
X15280000Y-8128000I-40000J0D01*
G01*
X15280000Y-10414000D02*
G75*
G03*
X15280000Y-10414000I-40000J0D01*
G01*
X15534000Y-8128000D02*
G75*
G03*
X15534000Y-8128000I-40000J0D01*
G01*
X15534000Y-10414000D02*
G75*
G03*
X15534000Y-10414000I-40000J0D01*
G01*
X15788000Y-8128000D02*
G75*
G03*
X15788000Y-8128000I-40000J0D01*
G01*
X15788000Y-10414000D02*
G75*
G03*
X15788000Y-10414000I-40000J0D01*
G01*
X16042000Y-8128000D02*
G75*
G03*
X16042000Y-8128000I-40000J0D01*
G01*
X16042000Y-10414000D02*
G75*
G03*
X16042000Y-10414000I-40000J0D01*
G01*
X16296000Y-8128000D02*
G75*
G03*
X16296000Y-8128000I-40000J0D01*
G01*
X16296000Y-10414000D02*
G75*
G03*
X16296000Y-10414000I-40000J0D01*
G01*
X16550000Y-8128000D02*
G75*
G03*
X16550000Y-8128000I-40000J0D01*
G01*
X16550000Y-10414000D02*
G75*
G03*
X16550000Y-10414000I-40000J0D01*
G01*
X16804000Y-8128000D02*
G75*
G03*
X16804000Y-8128000I-40000J0D01*
G01*
X16804000Y-10414000D02*
G75*
G03*
X16804000Y-10414000I-40000J0D01*
G01*
X17058000Y-8128000D02*
G75*
G03*
X17058000Y-8128000I-40000J0D01*
G01*
X17058000Y-10414000D02*
G75*
G03*
X17058000Y-10414000I-40000J0D01*
G01*
X17312000Y-8128000D02*
G75*
G03*
X17312000Y-8128000I-40000J0D01*
G01*
X17312000Y-10414000D02*
G75*
G03*
X17312000Y-10414000I-40000J0D01*
G01*
X17566000Y-8128000D02*
G75*
G03*
X17566000Y-8128000I-40000J0D01*
G01*
X17566000Y-10414000D02*
G75*
G03*
X17566000Y-10414000I-40000J0D01*
G01*
X17820000Y-8128000D02*
G75*
G03*
X17820000Y-8128000I-40000J0D01*
G01*
X17820000Y-10414000D02*
G75*
G03*
X17820000Y-10414000I-40000J0D01*
G01*
X18074000Y-8128000D02*
G75*
G03*
X18074000Y-8128000I-40000J0D01*
G01*
X18074000Y-10414000D02*
G75*
G03*
X18074000Y-10414000I-40000J0D01*
G01*
X18328000Y-8128000D02*
G75*
G03*
X18328000Y-8128000I-40000J0D01*
G01*
X18328000Y-10414000D02*
G75*
G03*
X18328000Y-10414000I-40000J0D01*
G01*
X18582000Y-8128000D02*
G75*
G03*
X18582000Y-8128000I-40000J0D01*
G01*
X18582000Y-10414000D02*
G75*
G03*
X18582000Y-10414000I-40000J0D01*
G01*
X18836000Y-8128000D02*
G75*
G03*
X18836000Y-8128000I-40000J0D01*
G01*
X18836000Y-10414000D02*
G75*
G03*
X18836000Y-10414000I-40000J0D01*
G01*
X19090000Y-8128000D02*
G75*
G03*
X19090000Y-8128000I-40000J0D01*
G01*
X19090000Y-10414000D02*
G75*
G03*
X19090000Y-10414000I-40000J0D01*
G01*
X19344000Y-8128000D02*
G75*
G03*
X19344000Y-8128000I-40000J0D01*
G01*
X19344000Y-10414000D02*
G75*
G03*
X19344000Y-10414000I-40000J0D01*
G01*
X19598000Y-8128000D02*
G75*
G03*
X19598000Y-8128000I-40000J0D01*
G01*
X19598000Y-10414000D02*
G75*
G03*
X19598000Y-10414000I-40000J0D01*
G01*
X19484000Y-10819500D02*
X19484000Y-10909500D01*
X19439000Y-10864500D02*
X19529000Y-10864500D01*
X19484000Y-11069500D02*
X19484000Y-11159500D01*
X19439000Y-11114500D02*
X19529000Y-11114500D01*
X19484000Y-11319500D02*
X19484000Y-11409500D01*
X19439000Y-11364500D02*
X19529000Y-11364500D01*
X19484000Y-11569500D02*
X19484000Y-11659500D01*
X19439000Y-11614500D02*
X19529000Y-11614500D01*
X11158711Y-12143711D02*
X11158711Y-12002289D01*
X11017289Y-12002289D01*
X11017289Y-12143711D01*
X11158711Y-12143711D01*
X20508711Y-12143711D02*
X20508711Y-12002289D01*
X20367289Y-12002289D01*
X20367289Y-12143711D01*
X20508711Y-12143711D01*
D12*
X10926528Y-14946214D02*
X10926528Y-14646214D01*
X10997957Y-14646214D01*
X11040814Y-14660500D01*
X11069386Y-14689071D01*
X11083671Y-14717643D01*
X11097957Y-14774786D01*
X11097957Y-14817643D01*
X11083671Y-14874786D01*
X11069386Y-14903357D01*
X11040814Y-14931929D01*
X10997957Y-14946214D01*
X10926528Y-14946214D01*
X11226528Y-14946214D02*
X11226528Y-14746214D01*
X11226528Y-14803357D02*
X11240814Y-14774786D01*
X11255100Y-14760500D01*
X11283671Y-14746214D01*
X11312243Y-14746214D01*
X11412243Y-14946214D02*
X11412243Y-14746214D01*
X11412243Y-14646214D02*
X11397957Y-14660500D01*
X11412243Y-14674786D01*
X11426528Y-14660500D01*
X11412243Y-14646214D01*
X11412243Y-14674786D01*
X11597957Y-14946214D02*
X11569386Y-14931929D01*
X11555100Y-14903357D01*
X11555100Y-14646214D01*
X11755100Y-14946214D02*
X11726528Y-14931929D01*
X11712243Y-14903357D01*
X11712243Y-14646214D01*
X12097957Y-14946214D02*
X12097957Y-14646214D01*
X12197957Y-14860500D01*
X12297957Y-14646214D01*
X12297957Y-14946214D01*
X12569386Y-14946214D02*
X12569386Y-14789071D01*
X12555100Y-14760500D01*
X12526528Y-14746214D01*
X12469386Y-14746214D01*
X12440814Y-14760500D01*
X12569386Y-14931929D02*
X12540814Y-14946214D01*
X12469386Y-14946214D01*
X12440814Y-14931929D01*
X12426528Y-14903357D01*
X12426528Y-14874786D01*
X12440814Y-14846214D01*
X12469386Y-14831929D01*
X12540814Y-14831929D01*
X12569386Y-14817643D01*
X12712243Y-14746214D02*
X12712243Y-15046214D01*
X12712243Y-14760500D02*
X12740814Y-14746214D01*
X12797957Y-14746214D01*
X12826528Y-14760500D01*
X12840814Y-14774786D01*
X12855100Y-14803357D01*
X12855100Y-14889071D01*
X12840814Y-14917643D01*
X12826528Y-14931929D01*
X12797957Y-14946214D01*
X12740814Y-14946214D01*
X12712243Y-14931929D01*
X12983671Y-14917643D02*
X12997957Y-14931929D01*
X12983671Y-14946214D01*
X12969386Y-14931929D01*
X12983671Y-14917643D01*
X12983671Y-14946214D01*
X12983671Y-14760500D02*
X12997957Y-14774786D01*
X12983671Y-14789071D01*
X12969386Y-14774786D01*
X12983671Y-14760500D01*
X12983671Y-14789071D01*
X10600100Y-15420500D02*
X10640100Y-15460500D01*
X10640100Y-15420500D02*
X10600100Y-15460500D01*
X10983671Y-15276214D02*
X11012243Y-15276214D01*
X11040814Y-15290500D01*
X11055100Y-15304786D01*
X11069386Y-15333357D01*
X11083671Y-15390500D01*
X11083671Y-15461929D01*
X11069386Y-15519071D01*
X11055100Y-15547643D01*
X11040814Y-15561929D01*
X11012243Y-15576214D01*
X10983671Y-15576214D01*
X10955100Y-15561929D01*
X10940814Y-15547643D01*
X10926528Y-15519071D01*
X10912243Y-15461929D01*
X10912243Y-15390500D01*
X10926528Y-15333357D01*
X10940814Y-15304786D01*
X10955100Y-15290500D01*
X10983671Y-15276214D01*
X11212243Y-15547643D02*
X11226528Y-15561929D01*
X11212243Y-15576214D01*
X11197957Y-15561929D01*
X11212243Y-15547643D01*
X11212243Y-15576214D01*
X11483671Y-15376214D02*
X11483671Y-15576214D01*
X11412243Y-15261929D02*
X11340814Y-15476214D01*
X11526528Y-15476214D01*
X11697957Y-15276214D02*
X11726528Y-15276214D01*
X11755100Y-15290500D01*
X11769386Y-15304786D01*
X11783671Y-15333357D01*
X11797957Y-15390500D01*
X11797957Y-15461929D01*
X11783671Y-15519071D01*
X11769386Y-15547643D01*
X11755100Y-15561929D01*
X11726528Y-15576214D01*
X11697957Y-15576214D01*
X11669386Y-15561929D01*
X11655100Y-15547643D01*
X11640814Y-15519071D01*
X11626528Y-15461929D01*
X11626528Y-15390500D01*
X11640814Y-15333357D01*
X11655100Y-15304786D01*
X11669386Y-15290500D01*
X11697957Y-15276214D01*
X11983671Y-15276214D02*
X12012243Y-15276214D01*
X12040814Y-15290500D01*
X12055100Y-15304786D01*
X12069386Y-15333357D01*
X12083671Y-15390500D01*
X12083671Y-15461929D01*
X12069386Y-15519071D01*
X12055100Y-15547643D01*
X12040814Y-15561929D01*
X12012243Y-15576214D01*
X11983671Y-15576214D01*
X11955100Y-15561929D01*
X11940814Y-15547643D01*
X11926528Y-15519071D01*
X11912243Y-15461929D01*
X11912243Y-15390500D01*
X11926528Y-15333357D01*
X11940814Y-15304786D01*
X11955100Y-15290500D01*
X11983671Y-15276214D01*
X12212243Y-15576214D02*
X12212243Y-15376214D01*
X12212243Y-15404786D02*
X12226528Y-15390500D01*
X12255100Y-15376214D01*
X12297957Y-15376214D01*
X12326528Y-15390500D01*
X12340814Y-15419071D01*
X12340814Y-15576214D01*
X12340814Y-15419071D02*
X12355100Y-15390500D01*
X12383671Y-15376214D01*
X12426528Y-15376214D01*
X12455100Y-15390500D01*
X12469386Y-15419071D01*
X12469386Y-15576214D01*
X12612243Y-15576214D02*
X12612243Y-15376214D01*
X12612243Y-15404786D02*
X12626528Y-15390500D01*
X12655100Y-15376214D01*
X12697957Y-15376214D01*
X12726528Y-15390500D01*
X12740814Y-15419071D01*
X12740814Y-15576214D01*
X12740814Y-15419071D02*
X12755100Y-15390500D01*
X12783671Y-15376214D01*
X12826528Y-15376214D01*
X12855100Y-15390500D01*
X12869386Y-15419071D01*
X12869386Y-15576214D01*
X13455100Y-15261929D02*
X13197957Y-15647643D01*
X13840814Y-15276214D02*
X13869386Y-15276214D01*
X13897957Y-15290500D01*
X13912243Y-15304786D01*
X13926528Y-15333357D01*
X13940814Y-15390500D01*
X13940814Y-15461929D01*
X13926528Y-15519071D01*
X13912243Y-15547643D01*
X13897957Y-15561929D01*
X13869386Y-15576214D01*
X13840814Y-15576214D01*
X13812243Y-15561929D01*
X13797957Y-15547643D01*
X13783671Y-15519071D01*
X13769386Y-15461929D01*
X13769386Y-15390500D01*
X13783671Y-15333357D01*
X13797957Y-15304786D01*
X13812243Y-15290500D01*
X13840814Y-15276214D01*
X14069386Y-15547643D02*
X14083671Y-15561929D01*
X14069386Y-15576214D01*
X14055100Y-15561929D01*
X14069386Y-15547643D01*
X14069386Y-15576214D01*
X14269386Y-15276214D02*
X14297957Y-15276214D01*
X14326528Y-15290500D01*
X14340814Y-15304786D01*
X14355100Y-15333357D01*
X14369386Y-15390500D01*
X14369386Y-15461929D01*
X14355100Y-15519071D01*
X14340814Y-15547643D01*
X14326528Y-15561929D01*
X14297957Y-15576214D01*
X14269386Y-15576214D01*
X14240814Y-15561929D01*
X14226528Y-15547643D01*
X14212243Y-15519071D01*
X14197957Y-15461929D01*
X14197957Y-15390500D01*
X14212243Y-15333357D01*
X14226528Y-15304786D01*
X14240814Y-15290500D01*
X14269386Y-15276214D01*
X14655100Y-15576214D02*
X14483671Y-15576214D01*
X14569386Y-15576214D02*
X14569386Y-15276214D01*
X14540814Y-15319071D01*
X14512243Y-15347643D01*
X14483671Y-15361929D01*
X14926528Y-15276214D02*
X14783671Y-15276214D01*
X14769386Y-15419071D01*
X14783671Y-15404786D01*
X14812243Y-15390500D01*
X14883671Y-15390500D01*
X14912243Y-15404786D01*
X14926528Y-15419071D01*
X14940814Y-15447643D01*
X14940814Y-15519071D01*
X14926528Y-15547643D01*
X14912243Y-15561929D01*
X14883671Y-15576214D01*
X14812243Y-15576214D01*
X14783671Y-15561929D01*
X14769386Y-15547643D01*
X15040814Y-15276214D02*
X15240814Y-15276214D01*
X15112243Y-15576214D01*
X15340814Y-15276214D02*
X15340814Y-15333357D01*
X15455100Y-15276214D02*
X15455100Y-15333357D01*
X15897957Y-15690500D02*
X15883671Y-15676214D01*
X15855100Y-15633357D01*
X15840814Y-15604786D01*
X15826528Y-15561929D01*
X15812243Y-15490500D01*
X15812243Y-15433357D01*
X15826528Y-15361929D01*
X15840814Y-15319071D01*
X15855100Y-15290500D01*
X15883671Y-15247643D01*
X15897957Y-15233357D01*
X16169386Y-15576214D02*
X15997957Y-15576214D01*
X16083671Y-15576214D02*
X16083671Y-15276214D01*
X16055100Y-15319071D01*
X16026528Y-15347643D01*
X15997957Y-15361929D01*
X16426528Y-15276214D02*
X16369386Y-15276214D01*
X16340814Y-15290500D01*
X16326528Y-15304786D01*
X16297957Y-15347643D01*
X16283671Y-15404786D01*
X16283671Y-15519071D01*
X16297957Y-15547643D01*
X16312243Y-15561929D01*
X16340814Y-15576214D01*
X16397957Y-15576214D01*
X16426528Y-15561929D01*
X16440814Y-15547643D01*
X16455100Y-15519071D01*
X16455100Y-15447643D01*
X16440814Y-15419071D01*
X16426528Y-15404786D01*
X16397957Y-15390500D01*
X16340814Y-15390500D01*
X16312243Y-15404786D01*
X16297957Y-15419071D01*
X16283671Y-15447643D01*
X16812243Y-15576214D02*
X16812243Y-15276214D01*
X16940814Y-15576214D02*
X16940814Y-15419071D01*
X16926528Y-15390500D01*
X16897957Y-15376214D01*
X16855100Y-15376214D01*
X16826528Y-15390500D01*
X16812243Y-15404786D01*
X17126528Y-15576214D02*
X17097957Y-15561929D01*
X17083671Y-15547643D01*
X17069386Y-15519071D01*
X17069386Y-15433357D01*
X17083671Y-15404786D01*
X17097957Y-15390500D01*
X17126528Y-15376214D01*
X17169386Y-15376214D01*
X17197957Y-15390500D01*
X17212243Y-15404786D01*
X17226528Y-15433357D01*
X17226528Y-15519071D01*
X17212243Y-15547643D01*
X17197957Y-15561929D01*
X17169386Y-15576214D01*
X17126528Y-15576214D01*
X17397957Y-15576214D02*
X17369386Y-15561929D01*
X17355100Y-15533357D01*
X17355100Y-15276214D01*
X17626528Y-15561929D02*
X17597957Y-15576214D01*
X17540814Y-15576214D01*
X17512243Y-15561929D01*
X17497957Y-15533357D01*
X17497957Y-15419071D01*
X17512243Y-15390500D01*
X17540814Y-15376214D01*
X17597957Y-15376214D01*
X17626528Y-15390500D01*
X17640814Y-15419071D01*
X17640814Y-15447643D01*
X17497957Y-15476214D01*
X17755100Y-15561929D02*
X17783671Y-15576214D01*
X17840814Y-15576214D01*
X17869386Y-15561929D01*
X17883671Y-15533357D01*
X17883671Y-15519071D01*
X17869386Y-15490500D01*
X17840814Y-15476214D01*
X17797957Y-15476214D01*
X17769386Y-15461929D01*
X17755100Y-15433357D01*
X17755100Y-15419071D01*
X17769386Y-15390500D01*
X17797957Y-15376214D01*
X17840814Y-15376214D01*
X17869386Y-15390500D01*
X17983671Y-15690500D02*
X17997957Y-15676214D01*
X18026528Y-15633357D01*
X18040814Y-15604786D01*
X18055100Y-15561929D01*
X18069386Y-15490500D01*
X18069386Y-15433357D01*
X18055100Y-15361929D01*
X18040814Y-15319071D01*
X18026528Y-15290500D01*
X17997957Y-15247643D01*
X17983671Y-15233357D01*
X10640100Y-15836500D02*
G75*
G03*
X10640100Y-15836500I-40000J0D01*
G01*
X10983671Y-15672214D02*
X11012243Y-15672214D01*
X11040814Y-15686500D01*
X11055100Y-15700786D01*
X11069386Y-15729357D01*
X11083671Y-15786500D01*
X11083671Y-15857929D01*
X11069386Y-15915071D01*
X11055100Y-15943643D01*
X11040814Y-15957929D01*
X11012243Y-15972214D01*
X10983671Y-15972214D01*
X10955100Y-15957929D01*
X10940814Y-15943643D01*
X10926528Y-15915071D01*
X10912243Y-15857929D01*
X10912243Y-15786500D01*
X10926528Y-15729357D01*
X10940814Y-15700786D01*
X10955100Y-15686500D01*
X10983671Y-15672214D01*
X11212243Y-15943643D02*
X11226528Y-15957929D01*
X11212243Y-15972214D01*
X11197957Y-15957929D01*
X11212243Y-15943643D01*
X11212243Y-15972214D01*
X11397957Y-15800786D02*
X11369386Y-15786500D01*
X11355100Y-15772214D01*
X11340814Y-15743643D01*
X11340814Y-15729357D01*
X11355100Y-15700786D01*
X11369386Y-15686500D01*
X11397957Y-15672214D01*
X11455100Y-15672214D01*
X11483671Y-15686500D01*
X11497957Y-15700786D01*
X11512243Y-15729357D01*
X11512243Y-15743643D01*
X11497957Y-15772214D01*
X11483671Y-15786500D01*
X11455100Y-15800786D01*
X11397957Y-15800786D01*
X11369386Y-15815071D01*
X11355100Y-15829357D01*
X11340814Y-15857929D01*
X11340814Y-15915071D01*
X11355100Y-15943643D01*
X11369386Y-15957929D01*
X11397957Y-15972214D01*
X11455100Y-15972214D01*
X11483671Y-15957929D01*
X11497957Y-15943643D01*
X11512243Y-15915071D01*
X11512243Y-15857929D01*
X11497957Y-15829357D01*
X11483671Y-15815071D01*
X11455100Y-15800786D01*
X11697957Y-15672214D02*
X11726528Y-15672214D01*
X11755100Y-15686500D01*
X11769386Y-15700786D01*
X11783671Y-15729357D01*
X11797957Y-15786500D01*
X11797957Y-15857929D01*
X11783671Y-15915071D01*
X11769386Y-15943643D01*
X11755100Y-15957929D01*
X11726528Y-15972214D01*
X11697957Y-15972214D01*
X11669386Y-15957929D01*
X11655100Y-15943643D01*
X11640814Y-15915071D01*
X11626528Y-15857929D01*
X11626528Y-15786500D01*
X11640814Y-15729357D01*
X11655100Y-15700786D01*
X11669386Y-15686500D01*
X11697957Y-15672214D01*
X11983671Y-15672214D02*
X12012243Y-15672214D01*
X12040814Y-15686500D01*
X12055100Y-15700786D01*
X12069386Y-15729357D01*
X12083671Y-15786500D01*
X12083671Y-15857929D01*
X12069386Y-15915071D01*
X12055100Y-15943643D01*
X12040814Y-15957929D01*
X12012243Y-15972214D01*
X11983671Y-15972214D01*
X11955100Y-15957929D01*
X11940814Y-15943643D01*
X11926528Y-15915071D01*
X11912243Y-15857929D01*
X11912243Y-15786500D01*
X11926528Y-15729357D01*
X11940814Y-15700786D01*
X11955100Y-15686500D01*
X11983671Y-15672214D01*
X12212243Y-15972214D02*
X12212243Y-15772214D01*
X12212243Y-15800786D02*
X12226528Y-15786500D01*
X12255100Y-15772214D01*
X12297957Y-15772214D01*
X12326528Y-15786500D01*
X12340814Y-15815071D01*
X12340814Y-15972214D01*
X12340814Y-15815071D02*
X12355100Y-15786500D01*
X12383671Y-15772214D01*
X12426528Y-15772214D01*
X12455100Y-15786500D01*
X12469386Y-15815071D01*
X12469386Y-15972214D01*
X12612243Y-15972214D02*
X12612243Y-15772214D01*
X12612243Y-15800786D02*
X12626528Y-15786500D01*
X12655100Y-15772214D01*
X12697957Y-15772214D01*
X12726528Y-15786500D01*
X12740814Y-15815071D01*
X12740814Y-15972214D01*
X12740814Y-15815071D02*
X12755100Y-15786500D01*
X12783671Y-15772214D01*
X12826528Y-15772214D01*
X12855100Y-15786500D01*
X12869386Y-15815071D01*
X12869386Y-15972214D01*
X13455100Y-15657929D02*
X13197957Y-16043643D01*
X13840814Y-15672214D02*
X13869386Y-15672214D01*
X13897957Y-15686500D01*
X13912243Y-15700786D01*
X13926528Y-15729357D01*
X13940814Y-15786500D01*
X13940814Y-15857929D01*
X13926528Y-15915071D01*
X13912243Y-15943643D01*
X13897957Y-15957929D01*
X13869386Y-15972214D01*
X13840814Y-15972214D01*
X13812243Y-15957929D01*
X13797957Y-15943643D01*
X13783671Y-15915071D01*
X13769386Y-15857929D01*
X13769386Y-15786500D01*
X13783671Y-15729357D01*
X13797957Y-15700786D01*
X13812243Y-15686500D01*
X13840814Y-15672214D01*
X14069386Y-15943643D02*
X14083671Y-15957929D01*
X14069386Y-15972214D01*
X14055100Y-15957929D01*
X14069386Y-15943643D01*
X14069386Y-15972214D01*
X14269386Y-15672214D02*
X14297957Y-15672214D01*
X14326528Y-15686500D01*
X14340814Y-15700786D01*
X14355100Y-15729357D01*
X14369386Y-15786500D01*
X14369386Y-15857929D01*
X14355100Y-15915071D01*
X14340814Y-15943643D01*
X14326528Y-15957929D01*
X14297957Y-15972214D01*
X14269386Y-15972214D01*
X14240814Y-15957929D01*
X14226528Y-15943643D01*
X14212243Y-15915071D01*
X14197957Y-15857929D01*
X14197957Y-15786500D01*
X14212243Y-15729357D01*
X14226528Y-15700786D01*
X14240814Y-15686500D01*
X14269386Y-15672214D01*
X14469386Y-15672214D02*
X14655100Y-15672214D01*
X14555100Y-15786500D01*
X14597957Y-15786500D01*
X14626528Y-15800786D01*
X14640814Y-15815071D01*
X14655100Y-15843643D01*
X14655100Y-15915071D01*
X14640814Y-15943643D01*
X14626528Y-15957929D01*
X14597957Y-15972214D01*
X14512243Y-15972214D01*
X14483671Y-15957929D01*
X14469386Y-15943643D01*
X14940814Y-15972214D02*
X14769386Y-15972214D01*
X14855100Y-15972214D02*
X14855100Y-15672214D01*
X14826528Y-15715071D01*
X14797957Y-15743643D01*
X14769386Y-15757929D01*
X15212243Y-15672214D02*
X15069386Y-15672214D01*
X15055100Y-15815071D01*
X15069386Y-15800786D01*
X15097957Y-15786500D01*
X15169386Y-15786500D01*
X15197957Y-15800786D01*
X15212243Y-15815071D01*
X15226528Y-15843643D01*
X15226528Y-15915071D01*
X15212243Y-15943643D01*
X15197957Y-15957929D01*
X15169386Y-15972214D01*
X15097957Y-15972214D01*
X15069386Y-15957929D01*
X15055100Y-15943643D01*
X15340814Y-15672214D02*
X15340814Y-15729357D01*
X15455100Y-15672214D02*
X15455100Y-15729357D01*
X15897957Y-16086500D02*
X15883671Y-16072214D01*
X15855100Y-16029357D01*
X15840814Y-16000786D01*
X15826528Y-15957929D01*
X15812243Y-15886500D01*
X15812243Y-15829357D01*
X15826528Y-15757929D01*
X15840814Y-15715071D01*
X15855100Y-15686500D01*
X15883671Y-15643643D01*
X15897957Y-15629357D01*
X16169386Y-15972214D02*
X15997957Y-15972214D01*
X16083671Y-15972214D02*
X16083671Y-15672214D01*
X16055100Y-15715071D01*
X16026528Y-15743643D01*
X15997957Y-15757929D01*
X16269386Y-15672214D02*
X16455100Y-15672214D01*
X16355100Y-15786500D01*
X16397957Y-15786500D01*
X16426528Y-15800786D01*
X16440814Y-15815071D01*
X16455100Y-15843643D01*
X16455100Y-15915071D01*
X16440814Y-15943643D01*
X16426528Y-15957929D01*
X16397957Y-15972214D01*
X16312243Y-15972214D01*
X16283671Y-15957929D01*
X16269386Y-15943643D01*
X16569386Y-15700786D02*
X16583671Y-15686500D01*
X16612243Y-15672214D01*
X16683671Y-15672214D01*
X16712243Y-15686500D01*
X16726528Y-15700786D01*
X16740814Y-15729357D01*
X16740814Y-15757929D01*
X16726528Y-15800786D01*
X16555100Y-15972214D01*
X16740814Y-15972214D01*
X17097957Y-15972214D02*
X17097957Y-15672214D01*
X17226528Y-15972214D02*
X17226528Y-15815071D01*
X17212243Y-15786500D01*
X17183671Y-15772214D01*
X17140814Y-15772214D01*
X17112243Y-15786500D01*
X17097957Y-15800786D01*
X17412243Y-15972214D02*
X17383671Y-15957929D01*
X17369386Y-15943643D01*
X17355100Y-15915071D01*
X17355100Y-15829357D01*
X17369386Y-15800786D01*
X17383671Y-15786500D01*
X17412243Y-15772214D01*
X17455100Y-15772214D01*
X17483671Y-15786500D01*
X17497957Y-15800786D01*
X17512243Y-15829357D01*
X17512243Y-15915071D01*
X17497957Y-15943643D01*
X17483671Y-15957929D01*
X17455100Y-15972214D01*
X17412243Y-15972214D01*
X17683671Y-15972214D02*
X17655100Y-15957929D01*
X17640814Y-15929357D01*
X17640814Y-15672214D01*
X17912243Y-15957929D02*
X17883671Y-15972214D01*
X17826528Y-15972214D01*
X17797957Y-15957929D01*
X17783671Y-15929357D01*
X17783671Y-15815071D01*
X17797957Y-15786500D01*
X17826528Y-15772214D01*
X17883671Y-15772214D01*
X17912243Y-15786500D01*
X17926528Y-15815071D01*
X17926528Y-15843643D01*
X17783671Y-15872214D01*
X18040814Y-15957929D02*
X18069386Y-15972214D01*
X18126528Y-15972214D01*
X18155100Y-15957929D01*
X18169386Y-15929357D01*
X18169386Y-15915071D01*
X18155100Y-15886500D01*
X18126528Y-15872214D01*
X18083671Y-15872214D01*
X18055100Y-15857929D01*
X18040814Y-15829357D01*
X18040814Y-15815071D01*
X18055100Y-15786500D01*
X18083671Y-15772214D01*
X18126528Y-15772214D01*
X18155100Y-15786500D01*
X18269386Y-16086500D02*
X18283671Y-16072214D01*
X18312243Y-16029357D01*
X18326528Y-16000786D01*
X18340814Y-15957929D01*
X18355100Y-15886500D01*
X18355100Y-15829357D01*
X18340814Y-15757929D01*
X18326528Y-15715071D01*
X18312243Y-15686500D01*
X18283671Y-15643643D01*
X18269386Y-15629357D01*
X10595100Y-16187500D02*
X10595100Y-16277500D01*
X10550100Y-16232500D02*
X10640100Y-16232500D01*
X10983671Y-16068214D02*
X11012243Y-16068214D01*
X11040814Y-16082500D01*
X11055100Y-16096786D01*
X11069386Y-16125357D01*
X11083671Y-16182500D01*
X11083671Y-16253929D01*
X11069386Y-16311071D01*
X11055100Y-16339643D01*
X11040814Y-16353929D01*
X11012243Y-16368214D01*
X10983671Y-16368214D01*
X10955100Y-16353929D01*
X10940814Y-16339643D01*
X10926528Y-16311071D01*
X10912243Y-16253929D01*
X10912243Y-16182500D01*
X10926528Y-16125357D01*
X10940814Y-16096786D01*
X10955100Y-16082500D01*
X10983671Y-16068214D01*
X11212243Y-16339643D02*
X11226528Y-16353929D01*
X11212243Y-16368214D01*
X11197957Y-16353929D01*
X11212243Y-16339643D01*
X11212243Y-16368214D01*
X11369386Y-16368214D02*
X11426528Y-16368214D01*
X11455100Y-16353929D01*
X11469386Y-16339643D01*
X11497957Y-16296786D01*
X11512243Y-16239643D01*
X11512243Y-16125357D01*
X11497957Y-16096786D01*
X11483671Y-16082500D01*
X11455100Y-16068214D01*
X11397957Y-16068214D01*
X11369386Y-16082500D01*
X11355100Y-16096786D01*
X11340814Y-16125357D01*
X11340814Y-16196786D01*
X11355100Y-16225357D01*
X11369386Y-16239643D01*
X11397957Y-16253929D01*
X11455100Y-16253929D01*
X11483671Y-16239643D01*
X11497957Y-16225357D01*
X11512243Y-16196786D01*
X11697957Y-16068214D02*
X11726528Y-16068214D01*
X11755100Y-16082500D01*
X11769386Y-16096786D01*
X11783671Y-16125357D01*
X11797957Y-16182500D01*
X11797957Y-16253929D01*
X11783671Y-16311071D01*
X11769386Y-16339643D01*
X11755100Y-16353929D01*
X11726528Y-16368214D01*
X11697957Y-16368214D01*
X11669386Y-16353929D01*
X11655100Y-16339643D01*
X11640814Y-16311071D01*
X11626528Y-16253929D01*
X11626528Y-16182500D01*
X11640814Y-16125357D01*
X11655100Y-16096786D01*
X11669386Y-16082500D01*
X11697957Y-16068214D01*
X11983671Y-16068214D02*
X12012243Y-16068214D01*
X12040814Y-16082500D01*
X12055100Y-16096786D01*
X12069386Y-16125357D01*
X12083671Y-16182500D01*
X12083671Y-16253929D01*
X12069386Y-16311071D01*
X12055100Y-16339643D01*
X12040814Y-16353929D01*
X12012243Y-16368214D01*
X11983671Y-16368214D01*
X11955100Y-16353929D01*
X11940814Y-16339643D01*
X11926528Y-16311071D01*
X11912243Y-16253929D01*
X11912243Y-16182500D01*
X11926528Y-16125357D01*
X11940814Y-16096786D01*
X11955100Y-16082500D01*
X11983671Y-16068214D01*
X12212243Y-16368214D02*
X12212243Y-16168214D01*
X12212243Y-16196786D02*
X12226528Y-16182500D01*
X12255100Y-16168214D01*
X12297957Y-16168214D01*
X12326528Y-16182500D01*
X12340814Y-16211071D01*
X12340814Y-16368214D01*
X12340814Y-16211071D02*
X12355100Y-16182500D01*
X12383671Y-16168214D01*
X12426528Y-16168214D01*
X12455100Y-16182500D01*
X12469386Y-16211071D01*
X12469386Y-16368214D01*
X12612243Y-16368214D02*
X12612243Y-16168214D01*
X12612243Y-16196786D02*
X12626528Y-16182500D01*
X12655100Y-16168214D01*
X12697957Y-16168214D01*
X12726528Y-16182500D01*
X12740814Y-16211071D01*
X12740814Y-16368214D01*
X12740814Y-16211071D02*
X12755100Y-16182500D01*
X12783671Y-16168214D01*
X12826528Y-16168214D01*
X12855100Y-16182500D01*
X12869386Y-16211071D01*
X12869386Y-16368214D01*
X13455100Y-16053929D02*
X13197957Y-16439643D01*
X13840814Y-16068214D02*
X13869386Y-16068214D01*
X13897957Y-16082500D01*
X13912243Y-16096786D01*
X13926528Y-16125357D01*
X13940814Y-16182500D01*
X13940814Y-16253929D01*
X13926528Y-16311071D01*
X13912243Y-16339643D01*
X13897957Y-16353929D01*
X13869386Y-16368214D01*
X13840814Y-16368214D01*
X13812243Y-16353929D01*
X13797957Y-16339643D01*
X13783671Y-16311071D01*
X13769386Y-16253929D01*
X13769386Y-16182500D01*
X13783671Y-16125357D01*
X13797957Y-16096786D01*
X13812243Y-16082500D01*
X13840814Y-16068214D01*
X14069386Y-16339643D02*
X14083671Y-16353929D01*
X14069386Y-16368214D01*
X14055100Y-16353929D01*
X14069386Y-16339643D01*
X14069386Y-16368214D01*
X14269386Y-16068214D02*
X14297957Y-16068214D01*
X14326528Y-16082500D01*
X14340814Y-16096786D01*
X14355100Y-16125357D01*
X14369386Y-16182500D01*
X14369386Y-16253929D01*
X14355100Y-16311071D01*
X14340814Y-16339643D01*
X14326528Y-16353929D01*
X14297957Y-16368214D01*
X14269386Y-16368214D01*
X14240814Y-16353929D01*
X14226528Y-16339643D01*
X14212243Y-16311071D01*
X14197957Y-16253929D01*
X14197957Y-16182500D01*
X14212243Y-16125357D01*
X14226528Y-16096786D01*
X14240814Y-16082500D01*
X14269386Y-16068214D01*
X14469386Y-16068214D02*
X14655100Y-16068214D01*
X14555100Y-16182500D01*
X14597957Y-16182500D01*
X14626528Y-16196786D01*
X14640814Y-16211071D01*
X14655100Y-16239643D01*
X14655100Y-16311071D01*
X14640814Y-16339643D01*
X14626528Y-16353929D01*
X14597957Y-16368214D01*
X14512243Y-16368214D01*
X14483671Y-16353929D01*
X14469386Y-16339643D01*
X14926528Y-16068214D02*
X14783671Y-16068214D01*
X14769386Y-16211071D01*
X14783671Y-16196786D01*
X14812243Y-16182500D01*
X14883671Y-16182500D01*
X14912243Y-16196786D01*
X14926528Y-16211071D01*
X14940814Y-16239643D01*
X14940814Y-16311071D01*
X14926528Y-16339643D01*
X14912243Y-16353929D01*
X14883671Y-16368214D01*
X14812243Y-16368214D01*
X14783671Y-16353929D01*
X14769386Y-16339643D01*
X15197957Y-16168214D02*
X15197957Y-16368214D01*
X15126528Y-16053929D02*
X15055100Y-16268214D01*
X15240814Y-16268214D01*
X15340814Y-16068214D02*
X15340814Y-16125357D01*
X15455100Y-16068214D02*
X15455100Y-16125357D01*
X15897957Y-16482500D02*
X15883671Y-16468214D01*
X15855100Y-16425357D01*
X15840814Y-16396786D01*
X15826528Y-16353929D01*
X15812243Y-16282500D01*
X15812243Y-16225357D01*
X15826528Y-16153929D01*
X15840814Y-16111071D01*
X15855100Y-16082500D01*
X15883671Y-16039643D01*
X15897957Y-16025357D01*
X16140814Y-16168214D02*
X16140814Y-16368214D01*
X16069386Y-16053929D02*
X15997957Y-16268214D01*
X16183671Y-16268214D01*
X16526528Y-16368214D02*
X16526528Y-16068214D01*
X16655100Y-16368214D02*
X16655100Y-16211071D01*
X16640814Y-16182500D01*
X16612243Y-16168214D01*
X16569386Y-16168214D01*
X16540814Y-16182500D01*
X16526528Y-16196786D01*
X16840814Y-16368214D02*
X16812243Y-16353929D01*
X16797957Y-16339643D01*
X16783671Y-16311071D01*
X16783671Y-16225357D01*
X16797957Y-16196786D01*
X16812243Y-16182500D01*
X16840814Y-16168214D01*
X16883671Y-16168214D01*
X16912243Y-16182500D01*
X16926528Y-16196786D01*
X16940814Y-16225357D01*
X16940814Y-16311071D01*
X16926528Y-16339643D01*
X16912243Y-16353929D01*
X16883671Y-16368214D01*
X16840814Y-16368214D01*
X17112243Y-16368214D02*
X17083671Y-16353929D01*
X17069386Y-16325357D01*
X17069386Y-16068214D01*
X17340814Y-16353929D02*
X17312243Y-16368214D01*
X17255100Y-16368214D01*
X17226528Y-16353929D01*
X17212243Y-16325357D01*
X17212243Y-16211071D01*
X17226528Y-16182500D01*
X17255100Y-16168214D01*
X17312243Y-16168214D01*
X17340814Y-16182500D01*
X17355100Y-16211071D01*
X17355100Y-16239643D01*
X17212243Y-16268214D01*
X17469386Y-16353929D02*
X17497957Y-16368214D01*
X17555100Y-16368214D01*
X17583671Y-16353929D01*
X17597957Y-16325357D01*
X17597957Y-16311071D01*
X17583671Y-16282500D01*
X17555100Y-16268214D01*
X17512243Y-16268214D01*
X17483671Y-16253929D01*
X17469386Y-16225357D01*
X17469386Y-16211071D01*
X17483671Y-16182500D01*
X17512243Y-16168214D01*
X17555100Y-16168214D01*
X17583671Y-16182500D01*
X17697957Y-16482500D02*
X17712243Y-16468214D01*
X17740814Y-16425357D01*
X17755100Y-16396786D01*
X17769386Y-16353929D01*
X17783671Y-16282500D01*
X17783671Y-16225357D01*
X17769386Y-16153929D01*
X17755100Y-16111071D01*
X17740814Y-16082500D01*
X17712243Y-16039643D01*
X17697957Y-16025357D01*
X10610811Y-16699211D02*
X10610811Y-16557789D01*
X10469389Y-16557789D01*
X10469389Y-16699211D01*
X10610811Y-16699211D01*
X10912243Y-16492786D02*
X10926528Y-16478500D01*
X10955100Y-16464214D01*
X11026528Y-16464214D01*
X11055100Y-16478500D01*
X11069386Y-16492786D01*
X11083671Y-16521357D01*
X11083671Y-16549929D01*
X11069386Y-16592786D01*
X10897957Y-16764214D01*
X11083671Y-16764214D01*
X11212243Y-16735643D02*
X11226528Y-16749929D01*
X11212243Y-16764214D01*
X11197957Y-16749929D01*
X11212243Y-16735643D01*
X11212243Y-16764214D01*
X11412243Y-16464214D02*
X11440814Y-16464214D01*
X11469386Y-16478500D01*
X11483671Y-16492786D01*
X11497957Y-16521357D01*
X11512243Y-16578500D01*
X11512243Y-16649929D01*
X11497957Y-16707071D01*
X11483671Y-16735643D01*
X11469386Y-16749929D01*
X11440814Y-16764214D01*
X11412243Y-16764214D01*
X11383671Y-16749929D01*
X11369386Y-16735643D01*
X11355100Y-16707071D01*
X11340814Y-16649929D01*
X11340814Y-16578500D01*
X11355100Y-16521357D01*
X11369386Y-16492786D01*
X11383671Y-16478500D01*
X11412243Y-16464214D01*
X11697957Y-16464214D02*
X11726528Y-16464214D01*
X11755100Y-16478500D01*
X11769386Y-16492786D01*
X11783671Y-16521357D01*
X11797957Y-16578500D01*
X11797957Y-16649929D01*
X11783671Y-16707071D01*
X11769386Y-16735643D01*
X11755100Y-16749929D01*
X11726528Y-16764214D01*
X11697957Y-16764214D01*
X11669386Y-16749929D01*
X11655100Y-16735643D01*
X11640814Y-16707071D01*
X11626528Y-16649929D01*
X11626528Y-16578500D01*
X11640814Y-16521357D01*
X11655100Y-16492786D01*
X11669386Y-16478500D01*
X11697957Y-16464214D01*
X11983671Y-16464214D02*
X12012243Y-16464214D01*
X12040814Y-16478500D01*
X12055100Y-16492786D01*
X12069386Y-16521357D01*
X12083671Y-16578500D01*
X12083671Y-16649929D01*
X12069386Y-16707071D01*
X12055100Y-16735643D01*
X12040814Y-16749929D01*
X12012243Y-16764214D01*
X11983671Y-16764214D01*
X11955100Y-16749929D01*
X11940814Y-16735643D01*
X11926528Y-16707071D01*
X11912243Y-16649929D01*
X11912243Y-16578500D01*
X11926528Y-16521357D01*
X11940814Y-16492786D01*
X11955100Y-16478500D01*
X11983671Y-16464214D01*
X12212243Y-16764214D02*
X12212243Y-16564214D01*
X12212243Y-16592786D02*
X12226528Y-16578500D01*
X12255100Y-16564214D01*
X12297957Y-16564214D01*
X12326528Y-16578500D01*
X12340814Y-16607071D01*
X12340814Y-16764214D01*
X12340814Y-16607071D02*
X12355100Y-16578500D01*
X12383671Y-16564214D01*
X12426528Y-16564214D01*
X12455100Y-16578500D01*
X12469386Y-16607071D01*
X12469386Y-16764214D01*
X12612243Y-16764214D02*
X12612243Y-16564214D01*
X12612243Y-16592786D02*
X12626528Y-16578500D01*
X12655100Y-16564214D01*
X12697957Y-16564214D01*
X12726528Y-16578500D01*
X12740814Y-16607071D01*
X12740814Y-16764214D01*
X12740814Y-16607071D02*
X12755100Y-16578500D01*
X12783671Y-16564214D01*
X12826528Y-16564214D01*
X12855100Y-16578500D01*
X12869386Y-16607071D01*
X12869386Y-16764214D01*
X13455100Y-16449929D02*
X13197957Y-16835643D01*
X13840814Y-16464214D02*
X13869386Y-16464214D01*
X13897957Y-16478500D01*
X13912243Y-16492786D01*
X13926528Y-16521357D01*
X13940814Y-16578500D01*
X13940814Y-16649929D01*
X13926528Y-16707071D01*
X13912243Y-16735643D01*
X13897957Y-16749929D01*
X13869386Y-16764214D01*
X13840814Y-16764214D01*
X13812243Y-16749929D01*
X13797957Y-16735643D01*
X13783671Y-16707071D01*
X13769386Y-16649929D01*
X13769386Y-16578500D01*
X13783671Y-16521357D01*
X13797957Y-16492786D01*
X13812243Y-16478500D01*
X13840814Y-16464214D01*
X14069386Y-16735643D02*
X14083671Y-16749929D01*
X14069386Y-16764214D01*
X14055100Y-16749929D01*
X14069386Y-16735643D01*
X14069386Y-16764214D01*
X14269386Y-16464214D02*
X14297957Y-16464214D01*
X14326528Y-16478500D01*
X14340814Y-16492786D01*
X14355100Y-16521357D01*
X14369386Y-16578500D01*
X14369386Y-16649929D01*
X14355100Y-16707071D01*
X14340814Y-16735643D01*
X14326528Y-16749929D01*
X14297957Y-16764214D01*
X14269386Y-16764214D01*
X14240814Y-16749929D01*
X14226528Y-16735643D01*
X14212243Y-16707071D01*
X14197957Y-16649929D01*
X14197957Y-16578500D01*
X14212243Y-16521357D01*
X14226528Y-16492786D01*
X14240814Y-16478500D01*
X14269386Y-16464214D01*
X14469386Y-16464214D02*
X14669386Y-16464214D01*
X14540814Y-16764214D01*
X14826528Y-16592786D02*
X14797957Y-16578500D01*
X14783671Y-16564214D01*
X14769386Y-16535643D01*
X14769386Y-16521357D01*
X14783671Y-16492786D01*
X14797957Y-16478500D01*
X14826528Y-16464214D01*
X14883671Y-16464214D01*
X14912243Y-16478500D01*
X14926528Y-16492786D01*
X14940814Y-16521357D01*
X14940814Y-16535643D01*
X14926528Y-16564214D01*
X14912243Y-16578500D01*
X14883671Y-16592786D01*
X14826528Y-16592786D01*
X14797957Y-16607071D01*
X14783671Y-16621357D01*
X14769386Y-16649929D01*
X14769386Y-16707071D01*
X14783671Y-16735643D01*
X14797957Y-16749929D01*
X14826528Y-16764214D01*
X14883671Y-16764214D01*
X14912243Y-16749929D01*
X14926528Y-16735643D01*
X14940814Y-16707071D01*
X14940814Y-16649929D01*
X14926528Y-16621357D01*
X14912243Y-16607071D01*
X14883671Y-16592786D01*
X15040814Y-16464214D02*
X15240814Y-16464214D01*
X15112243Y-16764214D01*
X15340814Y-16464214D02*
X15340814Y-16521357D01*
X15455100Y-16464214D02*
X15455100Y-16521357D01*
X15897957Y-16878500D02*
X15883671Y-16864214D01*
X15855100Y-16821357D01*
X15840814Y-16792786D01*
X15826528Y-16749929D01*
X15812243Y-16678500D01*
X15812243Y-16621357D01*
X15826528Y-16549929D01*
X15840814Y-16507071D01*
X15855100Y-16478500D01*
X15883671Y-16435643D01*
X15897957Y-16421357D01*
X15997957Y-16492786D02*
X16012243Y-16478500D01*
X16040814Y-16464214D01*
X16112243Y-16464214D01*
X16140814Y-16478500D01*
X16155100Y-16492786D01*
X16169386Y-16521357D01*
X16169386Y-16549929D01*
X16155100Y-16592786D01*
X15983671Y-16764214D01*
X16169386Y-16764214D01*
X16526528Y-16764214D02*
X16526528Y-16464214D01*
X16655100Y-16764214D02*
X16655100Y-16607071D01*
X16640814Y-16578500D01*
X16612243Y-16564214D01*
X16569386Y-16564214D01*
X16540814Y-16578500D01*
X16526528Y-16592786D01*
X16840814Y-16764214D02*
X16812243Y-16749929D01*
X16797957Y-16735643D01*
X16783671Y-16707071D01*
X16783671Y-16621357D01*
X16797957Y-16592786D01*
X16812243Y-16578500D01*
X16840814Y-16564214D01*
X16883671Y-16564214D01*
X16912243Y-16578500D01*
X16926528Y-16592786D01*
X16940814Y-16621357D01*
X16940814Y-16707071D01*
X16926528Y-16735643D01*
X16912243Y-16749929D01*
X16883671Y-16764214D01*
X16840814Y-16764214D01*
X17112243Y-16764214D02*
X17083671Y-16749929D01*
X17069386Y-16721357D01*
X17069386Y-16464214D01*
X17340814Y-16749929D02*
X17312243Y-16764214D01*
X17255100Y-16764214D01*
X17226528Y-16749929D01*
X17212243Y-16721357D01*
X17212243Y-16607071D01*
X17226528Y-16578500D01*
X17255100Y-16564214D01*
X17312243Y-16564214D01*
X17340814Y-16578500D01*
X17355100Y-16607071D01*
X17355100Y-16635643D01*
X17212243Y-16664214D01*
X17469386Y-16749929D02*
X17497957Y-16764214D01*
X17555100Y-16764214D01*
X17583671Y-16749929D01*
X17597957Y-16721357D01*
X17597957Y-16707071D01*
X17583671Y-16678500D01*
X17555100Y-16664214D01*
X17512243Y-16664214D01*
X17483671Y-16649929D01*
X17469386Y-16621357D01*
X17469386Y-16607071D01*
X17483671Y-16578500D01*
X17512243Y-16564214D01*
X17555100Y-16564214D01*
X17583671Y-16578500D01*
X17697957Y-16878500D02*
X17712243Y-16864214D01*
X17740814Y-16821357D01*
X17755100Y-16792786D01*
X17769386Y-16749929D01*
X17783671Y-16678500D01*
X17783671Y-16621357D01*
X17769386Y-16549929D01*
X17755100Y-16507071D01*
X17740814Y-16478500D01*
X17712243Y-16435643D01*
X17697957Y-16421357D01*
M02*
