%TF.GenerationSoftware,KiCad,Pcbnew,(5.1.10)-1*%
%TF.CreationDate,2021-07-15T11:36:37+01:00*%
%TF.ProjectId,A600 68k PLCC to DIP64 v2,41363030-2036-4386-9b20-504c43432074,1*%
%TF.SameCoordinates,Original*%
%TF.FileFunction,Profile,NP*%
%FSLAX46Y46*%
G04 Gerber Fmt 4.6, Leading zero omitted, Abs format (unit mm)*
G04 Created by KiCad (PCBNEW (5.1.10)-1) date 2021-07-15 11:36:37*
%MOMM*%
%LPD*%
G01*
G04 APERTURE LIST*
%TA.AperFunction,Profile*%
%ADD10C,0.050000*%
%TD*%
G04 APERTURE END LIST*
D10*
X108966000Y-144780000D02*
G75*
G02*
X106426000Y-142240000I0J2540000D01*
G01*
X106426000Y-78105000D02*
X106426000Y-142240000D01*
X123825000Y-117475000D02*
X135255000Y-117475000D01*
X135255000Y-117475000D02*
G75*
G02*
X136525000Y-118745000I0J-1270000D01*
G01*
X208280000Y-78105000D02*
X208280000Y-121920000D01*
X108966000Y-75565000D02*
X205740000Y-75565000D01*
X149860000Y-127000000D02*
G75*
G02*
X152400000Y-124460000I2540000J0D01*
G01*
X208280000Y-121920000D02*
G75*
G02*
X205740000Y-124460000I-2540000J0D01*
G01*
X205740000Y-75565000D02*
G75*
G02*
X208280000Y-78105000I0J-2540000D01*
G01*
X106426000Y-78105000D02*
G75*
G02*
X108966000Y-75565000I2540000J0D01*
G01*
X149860000Y-142240000D02*
G75*
G02*
X147320000Y-144780000I-2540000J0D01*
G01*
X123825000Y-131445000D02*
G75*
G02*
X122555000Y-130175000I0J1270000D01*
G01*
X136525000Y-130175000D02*
G75*
G02*
X135255000Y-131445000I-1270000J0D01*
G01*
X122555000Y-118745000D02*
G75*
G02*
X123825000Y-117475000I1270000J0D01*
G01*
X122555000Y-130175000D02*
X122555000Y-118745000D01*
X135255000Y-131445000D02*
X123825000Y-131445000D01*
X136525000Y-118745000D02*
X136525000Y-130175000D01*
X152400000Y-124460000D02*
X205740000Y-124460000D01*
X149860000Y-127000000D02*
X149860000Y-142240000D01*
X147320000Y-144780000D02*
X108966000Y-144780000D01*
M02*
