%TF.GenerationSoftware,KiCad,Pcbnew,(5.1.10)-1*%
%TF.CreationDate,2021-07-15T11:36:37+01:00*%
%TF.ProjectId,A600 68k PLCC to DIP64 v2,41363030-2036-4386-9b20-504c43432074,1*%
%TF.SameCoordinates,Original*%
%TF.FileFunction,Legend,Top*%
%TF.FilePolarity,Positive*%
%FSLAX46Y46*%
G04 Gerber Fmt 4.6, Leading zero omitted, Abs format (unit mm)*
G04 Created by KiCad (PCBNEW (5.1.10)-1) date 2021-07-15 11:36:37*
%MOMM*%
%LPD*%
G01*
G04 APERTURE LIST*
%ADD10C,0.300000*%
%ADD11C,0.200000*%
%ADD12C,0.150000*%
%ADD13C,0.120000*%
G04 APERTURE END LIST*
D10*
X161103185Y-111260700D02*
X161817471Y-111260700D01*
X160960328Y-111689271D02*
X161460328Y-110189271D01*
X161960328Y-111689271D01*
X162460328Y-111689271D02*
X162460328Y-110189271D01*
X162960328Y-111260700D01*
X163460328Y-110189271D01*
X163460328Y-111689271D01*
X164174614Y-111689271D02*
X164174614Y-110189271D01*
X165674614Y-110260700D02*
X165531757Y-110189271D01*
X165317471Y-110189271D01*
X165103185Y-110260700D01*
X164960328Y-110403557D01*
X164888900Y-110546414D01*
X164817471Y-110832128D01*
X164817471Y-111046414D01*
X164888900Y-111332128D01*
X164960328Y-111474985D01*
X165103185Y-111617842D01*
X165317471Y-111689271D01*
X165460328Y-111689271D01*
X165674614Y-111617842D01*
X165746042Y-111546414D01*
X165746042Y-111046414D01*
X165460328Y-111046414D01*
X166317471Y-111260700D02*
X167031757Y-111260700D01*
X166174614Y-111689271D02*
X166674614Y-110189271D01*
X167174614Y-111689271D01*
X168746042Y-111260700D02*
X169460328Y-111260700D01*
X168603185Y-111689271D02*
X169103185Y-110189271D01*
X169603185Y-111689271D01*
X170746042Y-110189271D02*
X170460328Y-110189271D01*
X170317471Y-110260700D01*
X170246042Y-110332128D01*
X170103185Y-110546414D01*
X170031757Y-110832128D01*
X170031757Y-111403557D01*
X170103185Y-111546414D01*
X170174614Y-111617842D01*
X170317471Y-111689271D01*
X170603185Y-111689271D01*
X170746042Y-111617842D01*
X170817471Y-111546414D01*
X170888900Y-111403557D01*
X170888900Y-111046414D01*
X170817471Y-110903557D01*
X170746042Y-110832128D01*
X170603185Y-110760700D01*
X170317471Y-110760700D01*
X170174614Y-110832128D01*
X170103185Y-110903557D01*
X170031757Y-111046414D01*
X171817471Y-110189271D02*
X171960328Y-110189271D01*
X172103185Y-110260700D01*
X172174614Y-110332128D01*
X172246042Y-110474985D01*
X172317471Y-110760700D01*
X172317471Y-111117842D01*
X172246042Y-111403557D01*
X172174614Y-111546414D01*
X172103185Y-111617842D01*
X171960328Y-111689271D01*
X171817471Y-111689271D01*
X171674614Y-111617842D01*
X171603185Y-111546414D01*
X171531757Y-111403557D01*
X171460328Y-111117842D01*
X171460328Y-110760700D01*
X171531757Y-110474985D01*
X171603185Y-110332128D01*
X171674614Y-110260700D01*
X171817471Y-110189271D01*
X173246042Y-110189271D02*
X173388900Y-110189271D01*
X173531757Y-110260700D01*
X173603185Y-110332128D01*
X173674614Y-110474985D01*
X173746042Y-110760700D01*
X173746042Y-111117842D01*
X173674614Y-111403557D01*
X173603185Y-111546414D01*
X173531757Y-111617842D01*
X173388900Y-111689271D01*
X173246042Y-111689271D01*
X173103185Y-111617842D01*
X173031757Y-111546414D01*
X172960328Y-111403557D01*
X172888900Y-111117842D01*
X172888900Y-110760700D01*
X172960328Y-110474985D01*
X173031757Y-110332128D01*
X173103185Y-110260700D01*
X173246042Y-110189271D01*
X176174614Y-110189271D02*
X175888900Y-110189271D01*
X175746042Y-110260700D01*
X175674614Y-110332128D01*
X175531757Y-110546414D01*
X175460328Y-110832128D01*
X175460328Y-111403557D01*
X175531757Y-111546414D01*
X175603185Y-111617842D01*
X175746042Y-111689271D01*
X176031757Y-111689271D01*
X176174614Y-111617842D01*
X176246042Y-111546414D01*
X176317471Y-111403557D01*
X176317471Y-111046414D01*
X176246042Y-110903557D01*
X176174614Y-110832128D01*
X176031757Y-110760700D01*
X175746042Y-110760700D01*
X175603185Y-110832128D01*
X175531757Y-110903557D01*
X175460328Y-111046414D01*
X177174614Y-110832128D02*
X177031757Y-110760700D01*
X176960328Y-110689271D01*
X176888900Y-110546414D01*
X176888900Y-110474985D01*
X176960328Y-110332128D01*
X177031757Y-110260700D01*
X177174614Y-110189271D01*
X177460328Y-110189271D01*
X177603185Y-110260700D01*
X177674614Y-110332128D01*
X177746042Y-110474985D01*
X177746042Y-110546414D01*
X177674614Y-110689271D01*
X177603185Y-110760700D01*
X177460328Y-110832128D01*
X177174614Y-110832128D01*
X177031757Y-110903557D01*
X176960328Y-110974985D01*
X176888900Y-111117842D01*
X176888900Y-111403557D01*
X176960328Y-111546414D01*
X177031757Y-111617842D01*
X177174614Y-111689271D01*
X177460328Y-111689271D01*
X177603185Y-111617842D01*
X177674614Y-111546414D01*
X177746042Y-111403557D01*
X177746042Y-111117842D01*
X177674614Y-110974985D01*
X177603185Y-110903557D01*
X177460328Y-110832128D01*
X178388900Y-111689271D02*
X178388900Y-110189271D01*
X178531757Y-111117842D02*
X178960328Y-111689271D01*
X178960328Y-110689271D02*
X178388900Y-111260700D01*
X180746042Y-111689271D02*
X180746042Y-110189271D01*
X181317471Y-110189271D01*
X181460328Y-110260700D01*
X181531757Y-110332128D01*
X181603185Y-110474985D01*
X181603185Y-110689271D01*
X181531757Y-110832128D01*
X181460328Y-110903557D01*
X181317471Y-110974985D01*
X180746042Y-110974985D01*
X182960328Y-111689271D02*
X182246042Y-111689271D01*
X182246042Y-110189271D01*
X184317471Y-111546414D02*
X184246042Y-111617842D01*
X184031757Y-111689271D01*
X183888900Y-111689271D01*
X183674614Y-111617842D01*
X183531757Y-111474985D01*
X183460328Y-111332128D01*
X183388900Y-111046414D01*
X183388900Y-110832128D01*
X183460328Y-110546414D01*
X183531757Y-110403557D01*
X183674614Y-110260700D01*
X183888900Y-110189271D01*
X184031757Y-110189271D01*
X184246042Y-110260700D01*
X184317471Y-110332128D01*
X185817471Y-111546414D02*
X185746042Y-111617842D01*
X185531757Y-111689271D01*
X185388900Y-111689271D01*
X185174614Y-111617842D01*
X185031757Y-111474985D01*
X184960328Y-111332128D01*
X184888900Y-111046414D01*
X184888900Y-110832128D01*
X184960328Y-110546414D01*
X185031757Y-110403557D01*
X185174614Y-110260700D01*
X185388900Y-110189271D01*
X185531757Y-110189271D01*
X185746042Y-110260700D01*
X185817471Y-110332128D01*
X186388900Y-110332128D02*
X186460328Y-110260700D01*
X186603185Y-110189271D01*
X186960328Y-110189271D01*
X187103185Y-110260700D01*
X187174614Y-110332128D01*
X187246042Y-110474985D01*
X187246042Y-110617842D01*
X187174614Y-110832128D01*
X186317471Y-111689271D01*
X187246042Y-111689271D01*
X187888900Y-111689271D02*
X187888900Y-110189271D01*
X188246042Y-110189271D01*
X188460328Y-110260700D01*
X188603185Y-110403557D01*
X188674614Y-110546414D01*
X188746042Y-110832128D01*
X188746042Y-111046414D01*
X188674614Y-111332128D01*
X188603185Y-111474985D01*
X188460328Y-111617842D01*
X188246042Y-111689271D01*
X187888900Y-111689271D01*
X189388900Y-111689271D02*
X189388900Y-110189271D01*
X190103185Y-111689271D02*
X190103185Y-110189271D01*
X190674614Y-110189271D01*
X190817471Y-110260700D01*
X190888900Y-110332128D01*
X190960328Y-110474985D01*
X190960328Y-110689271D01*
X190888900Y-110832128D01*
X190817471Y-110903557D01*
X190674614Y-110974985D01*
X190103185Y-110974985D01*
X192603185Y-110689271D02*
X192960328Y-111689271D01*
X193317471Y-110689271D01*
X193817471Y-110332128D02*
X193888900Y-110260700D01*
X194031757Y-110189271D01*
X194388900Y-110189271D01*
X194531757Y-110260700D01*
X194603185Y-110332128D01*
X194674614Y-110474985D01*
X194674614Y-110617842D01*
X194603185Y-110832128D01*
X193746042Y-111689271D01*
X194674614Y-111689271D01*
D11*
X171847619Y-114703333D02*
X171800000Y-114655714D01*
X171704761Y-114512857D01*
X171657142Y-114417619D01*
X171609523Y-114274761D01*
X171561904Y-114036666D01*
X171561904Y-113846190D01*
X171609523Y-113608095D01*
X171657142Y-113465238D01*
X171704761Y-113370000D01*
X171800000Y-113227142D01*
X171847619Y-113179523D01*
X172657142Y-114274761D02*
X172561904Y-114322380D01*
X172371428Y-114322380D01*
X172276190Y-114274761D01*
X172228571Y-114227142D01*
X172180952Y-114131904D01*
X172180952Y-113846190D01*
X172228571Y-113750952D01*
X172276190Y-113703333D01*
X172371428Y-113655714D01*
X172561904Y-113655714D01*
X172657142Y-113703333D01*
X172990476Y-114703333D02*
X173038095Y-114655714D01*
X173133333Y-114512857D01*
X173180952Y-114417619D01*
X173228571Y-114274761D01*
X173276190Y-114036666D01*
X173276190Y-113846190D01*
X173228571Y-113608095D01*
X173180952Y-113465238D01*
X173133333Y-113370000D01*
X173038095Y-113227142D01*
X172990476Y-113179523D01*
X174466666Y-113417619D02*
X174514285Y-113370000D01*
X174609523Y-113322380D01*
X174847619Y-113322380D01*
X174942857Y-113370000D01*
X174990476Y-113417619D01*
X175038095Y-113512857D01*
X175038095Y-113608095D01*
X174990476Y-113750952D01*
X174419047Y-114322380D01*
X175038095Y-114322380D01*
X175657142Y-113322380D02*
X175752380Y-113322380D01*
X175847619Y-113370000D01*
X175895238Y-113417619D01*
X175942857Y-113512857D01*
X175990476Y-113703333D01*
X175990476Y-113941428D01*
X175942857Y-114131904D01*
X175895238Y-114227142D01*
X175847619Y-114274761D01*
X175752380Y-114322380D01*
X175657142Y-114322380D01*
X175561904Y-114274761D01*
X175514285Y-114227142D01*
X175466666Y-114131904D01*
X175419047Y-113941428D01*
X175419047Y-113703333D01*
X175466666Y-113512857D01*
X175514285Y-113417619D01*
X175561904Y-113370000D01*
X175657142Y-113322380D01*
X176371428Y-113417619D02*
X176419047Y-113370000D01*
X176514285Y-113322380D01*
X176752380Y-113322380D01*
X176847619Y-113370000D01*
X176895238Y-113417619D01*
X176942857Y-113512857D01*
X176942857Y-113608095D01*
X176895238Y-113750952D01*
X176323809Y-114322380D01*
X176942857Y-114322380D01*
X177561904Y-113322380D02*
X177657142Y-113322380D01*
X177752380Y-113370000D01*
X177800000Y-113417619D01*
X177847619Y-113512857D01*
X177895238Y-113703333D01*
X177895238Y-113941428D01*
X177847619Y-114131904D01*
X177800000Y-114227142D01*
X177752380Y-114274761D01*
X177657142Y-114322380D01*
X177561904Y-114322380D01*
X177466666Y-114274761D01*
X177419047Y-114227142D01*
X177371428Y-114131904D01*
X177323809Y-113941428D01*
X177323809Y-113703333D01*
X177371428Y-113512857D01*
X177419047Y-113417619D01*
X177466666Y-113370000D01*
X177561904Y-113322380D01*
X179561904Y-114322380D02*
X179085714Y-114322380D01*
X179085714Y-113322380D01*
X180276190Y-114274761D02*
X180180952Y-114322380D01*
X179990476Y-114322380D01*
X179895238Y-114274761D01*
X179847619Y-114179523D01*
X179847619Y-113798571D01*
X179895238Y-113703333D01*
X179990476Y-113655714D01*
X180180952Y-113655714D01*
X180276190Y-113703333D01*
X180323809Y-113798571D01*
X180323809Y-113893809D01*
X179847619Y-113989047D01*
X180752380Y-114322380D02*
X180752380Y-113655714D01*
X180752380Y-113750952D02*
X180800000Y-113703333D01*
X180895238Y-113655714D01*
X181038095Y-113655714D01*
X181133333Y-113703333D01*
X181180952Y-113798571D01*
X181180952Y-114322380D01*
X181180952Y-113798571D02*
X181228571Y-113703333D01*
X181323809Y-113655714D01*
X181466666Y-113655714D01*
X181561904Y-113703333D01*
X181609523Y-113798571D01*
X181609523Y-114322380D01*
X182514285Y-114322380D02*
X182514285Y-113798571D01*
X182466666Y-113703333D01*
X182371428Y-113655714D01*
X182180952Y-113655714D01*
X182085714Y-113703333D01*
X182514285Y-114274761D02*
X182419047Y-114322380D01*
X182180952Y-114322380D01*
X182085714Y-114274761D01*
X182038095Y-114179523D01*
X182038095Y-114084285D01*
X182085714Y-113989047D01*
X182180952Y-113941428D01*
X182419047Y-113941428D01*
X182514285Y-113893809D01*
X182990476Y-114322380D02*
X182990476Y-113655714D01*
X182990476Y-113846190D02*
X183038095Y-113750952D01*
X183085714Y-113703333D01*
X183180952Y-113655714D01*
X183276190Y-113655714D01*
X184038095Y-113655714D02*
X184038095Y-114322380D01*
X183609523Y-113655714D02*
X183609523Y-114179523D01*
X183657142Y-114274761D01*
X183752380Y-114322380D01*
X183895238Y-114322380D01*
X183990476Y-114274761D01*
X184038095Y-114227142D01*
X168633333Y-115498571D02*
X168776190Y-115546190D01*
X168823809Y-115593809D01*
X168871428Y-115689047D01*
X168871428Y-115831904D01*
X168823809Y-115927142D01*
X168776190Y-115974761D01*
X168680952Y-116022380D01*
X168300000Y-116022380D01*
X168300000Y-115022380D01*
X168633333Y-115022380D01*
X168728571Y-115070000D01*
X168776190Y-115117619D01*
X168823809Y-115212857D01*
X168823809Y-115308095D01*
X168776190Y-115403333D01*
X168728571Y-115450952D01*
X168633333Y-115498571D01*
X168300000Y-115498571D01*
X169728571Y-116022380D02*
X169728571Y-115498571D01*
X169680952Y-115403333D01*
X169585714Y-115355714D01*
X169395238Y-115355714D01*
X169300000Y-115403333D01*
X169728571Y-115974761D02*
X169633333Y-116022380D01*
X169395238Y-116022380D01*
X169300000Y-115974761D01*
X169252380Y-115879523D01*
X169252380Y-115784285D01*
X169300000Y-115689047D01*
X169395238Y-115641428D01*
X169633333Y-115641428D01*
X169728571Y-115593809D01*
X170157142Y-115974761D02*
X170252380Y-116022380D01*
X170442857Y-116022380D01*
X170538095Y-115974761D01*
X170585714Y-115879523D01*
X170585714Y-115831904D01*
X170538095Y-115736666D01*
X170442857Y-115689047D01*
X170300000Y-115689047D01*
X170204761Y-115641428D01*
X170157142Y-115546190D01*
X170157142Y-115498571D01*
X170204761Y-115403333D01*
X170300000Y-115355714D01*
X170442857Y-115355714D01*
X170538095Y-115403333D01*
X171395238Y-115974761D02*
X171300000Y-116022380D01*
X171109523Y-116022380D01*
X171014285Y-115974761D01*
X170966666Y-115879523D01*
X170966666Y-115498571D01*
X171014285Y-115403333D01*
X171109523Y-115355714D01*
X171300000Y-115355714D01*
X171395238Y-115403333D01*
X171442857Y-115498571D01*
X171442857Y-115593809D01*
X170966666Y-115689047D01*
X172300000Y-116022380D02*
X172300000Y-115022380D01*
X172300000Y-115974761D02*
X172204761Y-116022380D01*
X172014285Y-116022380D01*
X171919047Y-115974761D01*
X171871428Y-115927142D01*
X171823809Y-115831904D01*
X171823809Y-115546190D01*
X171871428Y-115450952D01*
X171919047Y-115403333D01*
X172014285Y-115355714D01*
X172204761Y-115355714D01*
X172300000Y-115403333D01*
X173680952Y-116022380D02*
X173585714Y-115974761D01*
X173538095Y-115927142D01*
X173490476Y-115831904D01*
X173490476Y-115546190D01*
X173538095Y-115450952D01*
X173585714Y-115403333D01*
X173680952Y-115355714D01*
X173823809Y-115355714D01*
X173919047Y-115403333D01*
X173966666Y-115450952D01*
X174014285Y-115546190D01*
X174014285Y-115831904D01*
X173966666Y-115927142D01*
X173919047Y-115974761D01*
X173823809Y-116022380D01*
X173680952Y-116022380D01*
X174442857Y-115355714D02*
X174442857Y-116022380D01*
X174442857Y-115450952D02*
X174490476Y-115403333D01*
X174585714Y-115355714D01*
X174728571Y-115355714D01*
X174823809Y-115403333D01*
X174871428Y-115498571D01*
X174871428Y-116022380D01*
X176014285Y-115355714D02*
X176204761Y-116022380D01*
X176395238Y-115546190D01*
X176585714Y-116022380D01*
X176776190Y-115355714D01*
X177300000Y-116022380D02*
X177204761Y-115974761D01*
X177157142Y-115927142D01*
X177109523Y-115831904D01*
X177109523Y-115546190D01*
X177157142Y-115450952D01*
X177204761Y-115403333D01*
X177300000Y-115355714D01*
X177442857Y-115355714D01*
X177538095Y-115403333D01*
X177585714Y-115450952D01*
X177633333Y-115546190D01*
X177633333Y-115831904D01*
X177585714Y-115927142D01*
X177538095Y-115974761D01*
X177442857Y-116022380D01*
X177300000Y-116022380D01*
X178061904Y-116022380D02*
X178061904Y-115355714D01*
X178061904Y-115546190D02*
X178109523Y-115450952D01*
X178157142Y-115403333D01*
X178252380Y-115355714D01*
X178347619Y-115355714D01*
X178680952Y-116022380D02*
X178680952Y-115022380D01*
X178776190Y-115641428D02*
X179061904Y-116022380D01*
X179061904Y-115355714D02*
X178680952Y-115736666D01*
X180252380Y-116022380D02*
X180252380Y-115022380D01*
X180252380Y-115403333D02*
X180347619Y-115355714D01*
X180538095Y-115355714D01*
X180633333Y-115403333D01*
X180680952Y-115450952D01*
X180728571Y-115546190D01*
X180728571Y-115831904D01*
X180680952Y-115927142D01*
X180633333Y-115974761D01*
X180538095Y-116022380D01*
X180347619Y-116022380D01*
X180252380Y-115974761D01*
X181061904Y-115355714D02*
X181300000Y-116022380D01*
X181538095Y-115355714D02*
X181300000Y-116022380D01*
X181204761Y-116260476D01*
X181157142Y-116308095D01*
X181061904Y-116355714D01*
X182680952Y-116022380D02*
X182680952Y-115022380D01*
X183252380Y-116022380D02*
X182823809Y-115450952D01*
X183252380Y-115022380D02*
X182680952Y-115593809D01*
X183823809Y-116022380D02*
X183728571Y-115974761D01*
X183680952Y-115879523D01*
X183680952Y-115022380D01*
X184633333Y-115355714D02*
X184633333Y-116022380D01*
X184204761Y-115355714D02*
X184204761Y-115879523D01*
X184252380Y-115974761D01*
X184347619Y-116022380D01*
X184490476Y-116022380D01*
X184585714Y-115974761D01*
X184633333Y-115927142D01*
X185538095Y-116022380D02*
X185538095Y-115022380D01*
X185538095Y-115974761D02*
X185442857Y-116022380D01*
X185252380Y-116022380D01*
X185157142Y-115974761D01*
X185109523Y-115927142D01*
X185061904Y-115831904D01*
X185061904Y-115546190D01*
X185109523Y-115450952D01*
X185157142Y-115403333D01*
X185252380Y-115355714D01*
X185442857Y-115355714D01*
X185538095Y-115403333D01*
X186442857Y-115355714D02*
X186442857Y-116165238D01*
X186395238Y-116260476D01*
X186347619Y-116308095D01*
X186252380Y-116355714D01*
X186109523Y-116355714D01*
X186014285Y-116308095D01*
X186442857Y-115974761D02*
X186347619Y-116022380D01*
X186157142Y-116022380D01*
X186061904Y-115974761D01*
X186014285Y-115927142D01*
X185966666Y-115831904D01*
X185966666Y-115546190D01*
X186014285Y-115450952D01*
X186061904Y-115403333D01*
X186157142Y-115355714D01*
X186347619Y-115355714D01*
X186442857Y-115403333D01*
X187300000Y-115974761D02*
X187204761Y-116022380D01*
X187014285Y-116022380D01*
X186919047Y-115974761D01*
X186871428Y-115879523D01*
X186871428Y-115498571D01*
X186919047Y-115403333D01*
X187014285Y-115355714D01*
X187204761Y-115355714D01*
X187300000Y-115403333D01*
X187347619Y-115498571D01*
X187347619Y-115593809D01*
X186871428Y-115689047D01*
X157704761Y-117055714D02*
X157704761Y-117865238D01*
X157657142Y-117960476D01*
X157609523Y-118008095D01*
X157514285Y-118055714D01*
X157371428Y-118055714D01*
X157276190Y-118008095D01*
X157704761Y-117674761D02*
X157609523Y-117722380D01*
X157419047Y-117722380D01*
X157323809Y-117674761D01*
X157276190Y-117627142D01*
X157228571Y-117531904D01*
X157228571Y-117246190D01*
X157276190Y-117150952D01*
X157323809Y-117103333D01*
X157419047Y-117055714D01*
X157609523Y-117055714D01*
X157704761Y-117103333D01*
X158180952Y-117722380D02*
X158180952Y-117055714D01*
X158180952Y-116722380D02*
X158133333Y-116770000D01*
X158180952Y-116817619D01*
X158228571Y-116770000D01*
X158180952Y-116722380D01*
X158180952Y-116817619D01*
X158514285Y-117055714D02*
X158895238Y-117055714D01*
X158657142Y-116722380D02*
X158657142Y-117579523D01*
X158704761Y-117674761D01*
X158800000Y-117722380D01*
X158895238Y-117722380D01*
X159228571Y-117722380D02*
X159228571Y-116722380D01*
X159657142Y-117722380D02*
X159657142Y-117198571D01*
X159609523Y-117103333D01*
X159514285Y-117055714D01*
X159371428Y-117055714D01*
X159276190Y-117103333D01*
X159228571Y-117150952D01*
X160561904Y-117055714D02*
X160561904Y-117722380D01*
X160133333Y-117055714D02*
X160133333Y-117579523D01*
X160180952Y-117674761D01*
X160276190Y-117722380D01*
X160419047Y-117722380D01*
X160514285Y-117674761D01*
X160561904Y-117627142D01*
X161038095Y-117722380D02*
X161038095Y-116722380D01*
X161038095Y-117103333D02*
X161133333Y-117055714D01*
X161323809Y-117055714D01*
X161419047Y-117103333D01*
X161466666Y-117150952D01*
X161514285Y-117246190D01*
X161514285Y-117531904D01*
X161466666Y-117627142D01*
X161419047Y-117674761D01*
X161323809Y-117722380D01*
X161133333Y-117722380D01*
X161038095Y-117674761D01*
X161942857Y-117627142D02*
X161990476Y-117674761D01*
X161942857Y-117722380D01*
X161895238Y-117674761D01*
X161942857Y-117627142D01*
X161942857Y-117722380D01*
X162847619Y-117674761D02*
X162752380Y-117722380D01*
X162561904Y-117722380D01*
X162466666Y-117674761D01*
X162419047Y-117627142D01*
X162371428Y-117531904D01*
X162371428Y-117246190D01*
X162419047Y-117150952D01*
X162466666Y-117103333D01*
X162561904Y-117055714D01*
X162752380Y-117055714D01*
X162847619Y-117103333D01*
X163419047Y-117722380D02*
X163323809Y-117674761D01*
X163276190Y-117627142D01*
X163228571Y-117531904D01*
X163228571Y-117246190D01*
X163276190Y-117150952D01*
X163323809Y-117103333D01*
X163419047Y-117055714D01*
X163561904Y-117055714D01*
X163657142Y-117103333D01*
X163704761Y-117150952D01*
X163752380Y-117246190D01*
X163752380Y-117531904D01*
X163704761Y-117627142D01*
X163657142Y-117674761D01*
X163561904Y-117722380D01*
X163419047Y-117722380D01*
X164180952Y-117722380D02*
X164180952Y-117055714D01*
X164180952Y-117150952D02*
X164228571Y-117103333D01*
X164323809Y-117055714D01*
X164466666Y-117055714D01*
X164561904Y-117103333D01*
X164609523Y-117198571D01*
X164609523Y-117722380D01*
X164609523Y-117198571D02*
X164657142Y-117103333D01*
X164752380Y-117055714D01*
X164895238Y-117055714D01*
X164990476Y-117103333D01*
X165038095Y-117198571D01*
X165038095Y-117722380D01*
X166228571Y-116674761D02*
X165371428Y-117960476D01*
X167038095Y-117722380D02*
X166561904Y-117722380D01*
X166561904Y-116722380D01*
X167752380Y-117674761D02*
X167657142Y-117722380D01*
X167466666Y-117722380D01*
X167371428Y-117674761D01*
X167323809Y-117579523D01*
X167323809Y-117198571D01*
X167371428Y-117103333D01*
X167466666Y-117055714D01*
X167657142Y-117055714D01*
X167752380Y-117103333D01*
X167800000Y-117198571D01*
X167800000Y-117293809D01*
X167323809Y-117389047D01*
X168228571Y-117722380D02*
X168228571Y-117055714D01*
X168228571Y-117150952D02*
X168276190Y-117103333D01*
X168371428Y-117055714D01*
X168514285Y-117055714D01*
X168609523Y-117103333D01*
X168657142Y-117198571D01*
X168657142Y-117722380D01*
X168657142Y-117198571D02*
X168704761Y-117103333D01*
X168800000Y-117055714D01*
X168942857Y-117055714D01*
X169038095Y-117103333D01*
X169085714Y-117198571D01*
X169085714Y-117722380D01*
X169990476Y-117722380D02*
X169990476Y-117198571D01*
X169942857Y-117103333D01*
X169847619Y-117055714D01*
X169657142Y-117055714D01*
X169561904Y-117103333D01*
X169990476Y-117674761D02*
X169895238Y-117722380D01*
X169657142Y-117722380D01*
X169561904Y-117674761D01*
X169514285Y-117579523D01*
X169514285Y-117484285D01*
X169561904Y-117389047D01*
X169657142Y-117341428D01*
X169895238Y-117341428D01*
X169990476Y-117293809D01*
X170466666Y-117722380D02*
X170466666Y-117055714D01*
X170466666Y-117246190D02*
X170514285Y-117150952D01*
X170561904Y-117103333D01*
X170657142Y-117055714D01*
X170752380Y-117055714D01*
X171514285Y-117055714D02*
X171514285Y-117722380D01*
X171085714Y-117055714D02*
X171085714Y-117579523D01*
X171133333Y-117674761D01*
X171228571Y-117722380D01*
X171371428Y-117722380D01*
X171466666Y-117674761D01*
X171514285Y-117627142D01*
X171895238Y-116722380D02*
X172561904Y-117722380D01*
X172561904Y-116722380D02*
X171895238Y-117722380D01*
X173657142Y-116674761D02*
X172800000Y-117960476D01*
X173942857Y-117436666D02*
X174419047Y-117436666D01*
X173847619Y-117722380D02*
X174180952Y-116722380D01*
X174514285Y-117722380D01*
X174847619Y-117722380D02*
X174847619Y-117055714D01*
X174847619Y-117150952D02*
X174895238Y-117103333D01*
X174990476Y-117055714D01*
X175133333Y-117055714D01*
X175228571Y-117103333D01*
X175276190Y-117198571D01*
X175276190Y-117722380D01*
X175276190Y-117198571D02*
X175323809Y-117103333D01*
X175419047Y-117055714D01*
X175561904Y-117055714D01*
X175657142Y-117103333D01*
X175704761Y-117198571D01*
X175704761Y-117722380D01*
X176180952Y-117722380D02*
X176180952Y-117055714D01*
X176180952Y-116722380D02*
X176133333Y-116770000D01*
X176180952Y-116817619D01*
X176228571Y-116770000D01*
X176180952Y-116722380D01*
X176180952Y-116817619D01*
X177085714Y-117055714D02*
X177085714Y-117865238D01*
X177038095Y-117960476D01*
X176990476Y-118008095D01*
X176895238Y-118055714D01*
X176752380Y-118055714D01*
X176657142Y-118008095D01*
X177085714Y-117674761D02*
X176990476Y-117722380D01*
X176800000Y-117722380D01*
X176704761Y-117674761D01*
X176657142Y-117627142D01*
X176609523Y-117531904D01*
X176609523Y-117246190D01*
X176657142Y-117150952D01*
X176704761Y-117103333D01*
X176800000Y-117055714D01*
X176990476Y-117055714D01*
X177085714Y-117103333D01*
X177990476Y-117722380D02*
X177990476Y-117198571D01*
X177942857Y-117103333D01*
X177847619Y-117055714D01*
X177657142Y-117055714D01*
X177561904Y-117103333D01*
X177990476Y-117674761D02*
X177895238Y-117722380D01*
X177657142Y-117722380D01*
X177561904Y-117674761D01*
X177514285Y-117579523D01*
X177514285Y-117484285D01*
X177561904Y-117389047D01*
X177657142Y-117341428D01*
X177895238Y-117341428D01*
X177990476Y-117293809D01*
X178466666Y-117341428D02*
X179228571Y-117341428D01*
X179657142Y-117436666D02*
X180133333Y-117436666D01*
X179561904Y-117722380D02*
X179895238Y-116722380D01*
X180228571Y-117722380D01*
X180990476Y-116722380D02*
X180800000Y-116722380D01*
X180704761Y-116770000D01*
X180657142Y-116817619D01*
X180561904Y-116960476D01*
X180514285Y-117150952D01*
X180514285Y-117531904D01*
X180561904Y-117627142D01*
X180609523Y-117674761D01*
X180704761Y-117722380D01*
X180895238Y-117722380D01*
X180990476Y-117674761D01*
X181038095Y-117627142D01*
X181085714Y-117531904D01*
X181085714Y-117293809D01*
X181038095Y-117198571D01*
X180990476Y-117150952D01*
X180895238Y-117103333D01*
X180704761Y-117103333D01*
X180609523Y-117150952D01*
X180561904Y-117198571D01*
X180514285Y-117293809D01*
X181704761Y-116722380D02*
X181800000Y-116722380D01*
X181895238Y-116770000D01*
X181942857Y-116817619D01*
X181990476Y-116912857D01*
X182038095Y-117103333D01*
X182038095Y-117341428D01*
X181990476Y-117531904D01*
X181942857Y-117627142D01*
X181895238Y-117674761D01*
X181800000Y-117722380D01*
X181704761Y-117722380D01*
X181609523Y-117674761D01*
X181561904Y-117627142D01*
X181514285Y-117531904D01*
X181466666Y-117341428D01*
X181466666Y-117103333D01*
X181514285Y-116912857D01*
X181561904Y-116817619D01*
X181609523Y-116770000D01*
X181704761Y-116722380D01*
X182657142Y-116722380D02*
X182752380Y-116722380D01*
X182847619Y-116770000D01*
X182895238Y-116817619D01*
X182942857Y-116912857D01*
X182990476Y-117103333D01*
X182990476Y-117341428D01*
X182942857Y-117531904D01*
X182895238Y-117627142D01*
X182847619Y-117674761D01*
X182752380Y-117722380D01*
X182657142Y-117722380D01*
X182561904Y-117674761D01*
X182514285Y-117627142D01*
X182466666Y-117531904D01*
X182419047Y-117341428D01*
X182419047Y-117103333D01*
X182466666Y-116912857D01*
X182514285Y-116817619D01*
X182561904Y-116770000D01*
X182657142Y-116722380D01*
X183419047Y-117341428D02*
X184180952Y-117341428D01*
X185085714Y-116722380D02*
X184895238Y-116722380D01*
X184800000Y-116770000D01*
X184752380Y-116817619D01*
X184657142Y-116960476D01*
X184609523Y-117150952D01*
X184609523Y-117531904D01*
X184657142Y-117627142D01*
X184704761Y-117674761D01*
X184800000Y-117722380D01*
X184990476Y-117722380D01*
X185085714Y-117674761D01*
X185133333Y-117627142D01*
X185180952Y-117531904D01*
X185180952Y-117293809D01*
X185133333Y-117198571D01*
X185085714Y-117150952D01*
X184990476Y-117103333D01*
X184800000Y-117103333D01*
X184704761Y-117150952D01*
X184657142Y-117198571D01*
X184609523Y-117293809D01*
X185752380Y-117150952D02*
X185657142Y-117103333D01*
X185609523Y-117055714D01*
X185561904Y-116960476D01*
X185561904Y-116912857D01*
X185609523Y-116817619D01*
X185657142Y-116770000D01*
X185752380Y-116722380D01*
X185942857Y-116722380D01*
X186038095Y-116770000D01*
X186085714Y-116817619D01*
X186133333Y-116912857D01*
X186133333Y-116960476D01*
X186085714Y-117055714D01*
X186038095Y-117103333D01*
X185942857Y-117150952D01*
X185752380Y-117150952D01*
X185657142Y-117198571D01*
X185609523Y-117246190D01*
X185561904Y-117341428D01*
X185561904Y-117531904D01*
X185609523Y-117627142D01*
X185657142Y-117674761D01*
X185752380Y-117722380D01*
X185942857Y-117722380D01*
X186038095Y-117674761D01*
X186085714Y-117627142D01*
X186133333Y-117531904D01*
X186133333Y-117341428D01*
X186085714Y-117246190D01*
X186038095Y-117198571D01*
X185942857Y-117150952D01*
X186561904Y-117722380D02*
X186561904Y-116722380D01*
X186657142Y-117341428D02*
X186942857Y-117722380D01*
X186942857Y-117055714D02*
X186561904Y-117436666D01*
X187371428Y-117341428D02*
X188133333Y-117341428D01*
X188609523Y-117722380D02*
X188609523Y-116722380D01*
X188990476Y-116722380D01*
X189085714Y-116770000D01*
X189133333Y-116817619D01*
X189180952Y-116912857D01*
X189180952Y-117055714D01*
X189133333Y-117150952D01*
X189085714Y-117198571D01*
X188990476Y-117246190D01*
X188609523Y-117246190D01*
X190085714Y-117722380D02*
X189609523Y-117722380D01*
X189609523Y-116722380D01*
X190990476Y-117627142D02*
X190942857Y-117674761D01*
X190800000Y-117722380D01*
X190704761Y-117722380D01*
X190561904Y-117674761D01*
X190466666Y-117579523D01*
X190419047Y-117484285D01*
X190371428Y-117293809D01*
X190371428Y-117150952D01*
X190419047Y-116960476D01*
X190466666Y-116865238D01*
X190561904Y-116770000D01*
X190704761Y-116722380D01*
X190800000Y-116722380D01*
X190942857Y-116770000D01*
X190990476Y-116817619D01*
X191990476Y-117627142D02*
X191942857Y-117674761D01*
X191800000Y-117722380D01*
X191704761Y-117722380D01*
X191561904Y-117674761D01*
X191466666Y-117579523D01*
X191419047Y-117484285D01*
X191371428Y-117293809D01*
X191371428Y-117150952D01*
X191419047Y-116960476D01*
X191466666Y-116865238D01*
X191561904Y-116770000D01*
X191704761Y-116722380D01*
X191800000Y-116722380D01*
X191942857Y-116770000D01*
X191990476Y-116817619D01*
X192371428Y-116817619D02*
X192419047Y-116770000D01*
X192514285Y-116722380D01*
X192752380Y-116722380D01*
X192847619Y-116770000D01*
X192895238Y-116817619D01*
X192942857Y-116912857D01*
X192942857Y-117008095D01*
X192895238Y-117150952D01*
X192323809Y-117722380D01*
X192942857Y-117722380D01*
X193371428Y-117722380D02*
X193371428Y-116722380D01*
X193609523Y-116722380D01*
X193752380Y-116770000D01*
X193847619Y-116865238D01*
X193895238Y-116960476D01*
X193942857Y-117150952D01*
X193942857Y-117293809D01*
X193895238Y-117484285D01*
X193847619Y-117579523D01*
X193752380Y-117674761D01*
X193609523Y-117722380D01*
X193371428Y-117722380D01*
X194371428Y-117722380D02*
X194371428Y-116722380D01*
X194847619Y-117722380D02*
X194847619Y-116722380D01*
X195228571Y-116722380D01*
X195323809Y-116770000D01*
X195371428Y-116817619D01*
X195419047Y-116912857D01*
X195419047Y-117055714D01*
X195371428Y-117150952D01*
X195323809Y-117198571D01*
X195228571Y-117246190D01*
X194847619Y-117246190D01*
X195847619Y-117341428D02*
X196609523Y-117341428D01*
X196990476Y-117055714D02*
X197228571Y-117722380D01*
X197466666Y-117055714D01*
X197800000Y-116817619D02*
X197847619Y-116770000D01*
X197942857Y-116722380D01*
X198180952Y-116722380D01*
X198276190Y-116770000D01*
X198323809Y-116817619D01*
X198371428Y-116912857D01*
X198371428Y-117008095D01*
X198323809Y-117150952D01*
X197752380Y-117722380D01*
X198371428Y-117722380D01*
D12*
%TO.C,U1*%
X143155810Y-114300000D02*
G75*
G03*
X143155810Y-114300000I-915810J0D01*
G01*
X143155810Y-127000000D02*
G75*
G03*
X143155810Y-127000000I-915810J0D01*
G01*
X138075810Y-134620000D02*
G75*
G03*
X138075810Y-134620000I-915810J0D01*
G01*
X125375810Y-134620000D02*
G75*
G03*
X125375810Y-134620000I-915810J0D01*
G01*
X117755810Y-127000000D02*
G75*
G03*
X117755810Y-127000000I-915810J0D01*
G01*
X117755810Y-114300000D02*
G75*
G03*
X117755810Y-114300000I-915810J0D01*
G01*
X121920000Y-135509000D02*
X121920000Y-136144000D01*
X121920000Y-136271000D02*
X121666000Y-136017000D01*
X122174000Y-136017000D02*
X121920000Y-136271000D01*
X128651000Y-112776000D02*
X127762000Y-113665000D01*
X127762000Y-113665000D02*
X127762000Y-113284000D01*
X128143000Y-113665000D02*
X127762000Y-113665000D01*
X127000000Y-113411000D02*
X127000000Y-112649000D01*
X127000000Y-112649000D02*
X126746000Y-112903000D01*
X127254000Y-112903000D02*
X127000000Y-112649000D01*
X117602000Y-115189000D02*
X118491000Y-116078000D01*
X118491000Y-116078000D02*
X118491000Y-115697000D01*
X118110000Y-116078000D02*
X118491000Y-116078000D01*
X118491000Y-116840000D02*
X117729000Y-116840000D01*
X117729000Y-116840000D02*
X117983000Y-117094000D01*
X117983000Y-116586000D02*
X117729000Y-116840000D01*
X120142000Y-136525000D02*
X121158000Y-135509000D01*
X121158000Y-135509000D02*
X120777000Y-135509000D01*
X121158000Y-135890000D02*
X121158000Y-135509000D01*
X141478000Y-133858000D02*
X140462000Y-132842000D01*
X140462000Y-132842000D02*
X140462000Y-133223000D01*
X140843000Y-132842000D02*
X140462000Y-132842000D01*
X137922000Y-113538000D02*
X137922000Y-113157000D01*
X138938000Y-112522000D02*
X137922000Y-113538000D01*
X138303000Y-113538000D02*
X137922000Y-113538000D01*
X140589000Y-132080000D02*
X141351000Y-132080000D01*
X141351000Y-132080000D02*
X141097000Y-131826000D01*
X141097000Y-132334000D02*
X141351000Y-132080000D01*
X137414000Y-112903000D02*
X137160000Y-112649000D01*
X137160000Y-113411000D02*
X137160000Y-112649000D01*
X137160000Y-112649000D02*
X136906000Y-112903000D01*
D13*
%TO.C,U2*%
X115450000Y-105530000D02*
X196970000Y-105530000D01*
X115450000Y-79890000D02*
X115450000Y-105530000D01*
X196970000Y-79890000D02*
X115450000Y-79890000D01*
X196970000Y-105530000D02*
X196970000Y-93710000D01*
X115450000Y-102700000D02*
X196970000Y-102700000D01*
X115450000Y-82720000D02*
X115450000Y-102700000D01*
X196970000Y-82720000D02*
X115450000Y-82720000D01*
X196970000Y-91710000D02*
X196970000Y-79890000D01*
X196970000Y-93710000D02*
G75*
G02*
X196970000Y-91710000I0J1000000D01*
G01*
%TO.C,R1*%
X113265852Y-115698200D02*
X112743348Y-115698200D01*
X113265852Y-117118200D02*
X112743348Y-117118200D01*
%TO.C,R2*%
X163568748Y-78180000D02*
X164091252Y-78180000D01*
X163568748Y-76760000D02*
X164091252Y-76760000D01*
%TO.C,R1*%
D12*
X112837933Y-118510580D02*
X112504600Y-118034390D01*
X112266504Y-118510580D02*
X112266504Y-117510580D01*
X112647457Y-117510580D01*
X112742695Y-117558200D01*
X112790314Y-117605819D01*
X112837933Y-117701057D01*
X112837933Y-117843914D01*
X112790314Y-117939152D01*
X112742695Y-117986771D01*
X112647457Y-118034390D01*
X112266504Y-118034390D01*
X113790314Y-118510580D02*
X113218885Y-118510580D01*
X113504600Y-118510580D02*
X113504600Y-117510580D01*
X113409361Y-117653438D01*
X113314123Y-117748676D01*
X113218885Y-117796295D01*
%TO.C,R2*%
X160488333Y-77922380D02*
X160155000Y-77446190D01*
X159916904Y-77922380D02*
X159916904Y-76922380D01*
X160297857Y-76922380D01*
X160393095Y-76970000D01*
X160440714Y-77017619D01*
X160488333Y-77112857D01*
X160488333Y-77255714D01*
X160440714Y-77350952D01*
X160393095Y-77398571D01*
X160297857Y-77446190D01*
X159916904Y-77446190D01*
X160869285Y-77017619D02*
X160916904Y-76970000D01*
X161012142Y-76922380D01*
X161250238Y-76922380D01*
X161345476Y-76970000D01*
X161393095Y-77017619D01*
X161440714Y-77112857D01*
X161440714Y-77208095D01*
X161393095Y-77350952D01*
X160821666Y-77922380D01*
X161440714Y-77922380D01*
%TD*%
M02*
