M48
; DRILL file {KiCad (5.1.6)-1} date 12/02/20 16:58:13
; FORMAT={-:-/ absolute / inch / decimal}
; #@! TF.CreationDate,2020-12-02T16:58:13+00:00
; #@! TF.GenerationSoftware,Kicad,Pcbnew,(5.1.6)-1
FMAT,2
INCH
T1C0.0118
T2C0.0157
T3C0.0315
T4C0.0787
%
G90
G05
T1
X4.2518Y-3.037
X4.2518Y-3.478
X4.2518Y-5.1472
X4.2518Y-5.5882
X4.305Y-3.8875
X4.3148Y-4.2969
X4.4093Y-4.6433
X4.4723Y-3.2575
X4.4723Y-5.3677
X4.525Y-3.6669
X4.595Y-4.23
X4.6297Y-5.6512
X4.6927Y-3.037
X4.695Y-4.23
X4.71Y-3.96
X4.745Y-3.445
X4.745Y-5.05
X4.76Y-4.165
X4.76Y-4.8583
X4.76Y-5.237
X4.7711Y-4.0184
X4.82Y-4.21
X4.875Y-4.265
X4.93Y-4.32
X4.9447Y-5.5252
X4.98Y-3.37
X4.995Y-4.255
X5.02Y-3.875
X5.04Y-3.11
X5.055Y-4.195
X5.12Y-3.875
X5.145Y-4.195
X5.1875Y-4.23
X5.215Y-3.875
X5.2282Y-5.2102
X5.2597Y-5.6512
X5.2875Y-4.0025
X5.29Y-4.23
X5.315Y-3.875
X5.3856Y-3.037
X5.39Y-4.2275
X5.415Y-3.875
X5.436Y-4.285
X5.494Y-4.226
X5.51Y-3.875
X5.5431Y-5.4937
X5.59Y-4.315
X5.63Y-4.275
X5.635Y-4.185
X5.6376Y-3.8559
X5.645Y-4.375
X5.6691Y-5.1787
X5.68Y-4.225
X5.7225Y-3.9575
X5.73Y-4.175
X5.7321Y-3.1315
X5.802Y-4.225
X5.8266Y-4.8638
X5.8266Y-5.6512
X5.8581Y-4.4543
X5.872Y-4.265
X5.965Y-3.6984
X5.965Y-4.0225
X6.039Y-4.404
X6.0471Y-4.0449
X6.05Y-4.266
X6.0786Y-3.037
X6.0786Y-4.6748
X6.264Y-4.3283
X6.267Y-3.842
X6.3305Y-4.8638
X6.45Y-3.115
X6.4565Y-4.5488
X6.488Y-3.5724
X6.5195Y-4.1709
X6.677Y-3.8559
X6.677Y-4.7693
X6.74Y-4.3913
X6.7715Y-3.415
X6.833Y-4.032
X6.8345Y-3.037
X6.9605Y-3.6669
X6.9605Y-4.1709
X6.9605Y-4.6118
X7.0864Y-3.289
X7.1494Y-4.8638
X7.1809Y-4.3913
X7.2124Y-3.8559
X7.2754Y-3.037
X7.3384Y-3.5094
X7.3699Y-4.6433
X7.4014Y-4.1709
X7.5589Y-3.289
X7.5589Y-3.7299
X7.5904Y-4.4228
X7.5904Y-4.8638
X7.7164Y-4.0134
X7.7479Y-3.037
X7.7793Y-3.5094
X7.8108Y-4.6433
X7.9053Y-4.2654
X7.9368Y-3.825
X7.9683Y-3.2575
X8.0943Y-4.8638
X8.1258Y-4.075
X8.1573Y-3.5724
X8.1573Y-4.4543
T2
X5.6451Y-3.9526
X5.653Y-4.4445
X5.8154Y-4.685
X5.834Y-3.814
X5.892Y-4.707
X4.3063Y-4.7531
X4.3236Y-4.7114
X4.3236Y-4.7949
X4.3654Y-4.6941
X4.3654Y-4.8122
X4.4071Y-4.7114
X4.4071Y-4.7949
X4.4244Y-4.7531
X7.9874Y-4.7531
X8.0047Y-4.7114
X8.0047Y-4.7949
X8.0465Y-4.6941
X8.0465Y-4.8122
X8.0882Y-4.7114
X8.0882Y-4.7949
X8.1055Y-4.7531
T3
X4.6Y-4.5
X4.6Y-4.6
X4.6Y-4.7
X4.6Y-4.8
X4.6Y-4.9
X4.6Y-5.0
X4.6Y-5.1
X4.6Y-5.2
X4.6Y-5.3
X4.7Y-4.4
X4.7Y-4.5
X4.7Y-4.6
X4.7Y-4.7
X4.7Y-4.8
X4.7Y-4.9
X4.7Y-5.0
X4.7Y-5.1
X4.7Y-5.2
X4.7Y-5.3
X4.7Y-5.4
X4.8Y-4.4
X4.8Y-4.5
X4.8Y-5.3
X4.8Y-5.4
X4.9Y-4.4
X4.9Y-4.5
X4.9Y-5.3
X4.9Y-5.4
X5.0Y-4.4
X5.0Y-4.5
X5.0Y-5.3
X5.0Y-5.4
X5.1Y-4.4
X5.1Y-4.5
X5.1Y-5.3
X5.1Y-5.4
X5.2Y-4.4
X5.2Y-4.5
X5.2Y-5.3
X5.2Y-5.4
X5.3Y-4.4
X5.3Y-4.5
X5.3Y-5.3
X5.3Y-5.4
X5.4Y-4.4
X5.4Y-4.5
X5.4Y-5.3
X5.4Y-5.4
X5.5Y-4.4
X5.5Y-4.5
X5.5Y-4.6
X5.5Y-4.7
X5.5Y-4.8
X5.5Y-4.9
X5.5Y-5.0
X5.5Y-5.1
X5.5Y-5.2
X5.5Y-5.3
X5.5Y-5.4
X5.6Y-4.5
X5.6Y-4.6
X5.6Y-4.7
X5.6Y-4.8
X5.6Y-4.9
X5.6Y-5.0
X5.6Y-5.1
X5.6Y-5.2
X5.6Y-5.3
X4.6Y-3.2
X4.6Y-4.1
X4.7Y-3.2
X4.7Y-4.1
X4.8Y-3.2
X4.8Y-4.1
X4.9Y-3.2
X4.9Y-4.1
X5.0Y-3.2
X5.0Y-4.1
X5.1Y-3.2
X5.1Y-4.1
X5.2Y-3.2
X5.2Y-4.1
X5.3Y-3.2
X5.3Y-4.1
X5.4Y-3.2
X5.4Y-4.1
X5.5Y-3.2
X5.5Y-4.1
X5.6Y-3.2
X5.6Y-4.1
X5.7Y-3.2
X5.7Y-4.1
X5.8Y-3.2
X5.8Y-4.1
X5.9Y-3.2
X5.9Y-4.1
X6.0Y-3.2
X6.0Y-4.1
X6.1Y-3.2
X6.1Y-4.1
X6.2Y-3.2
X6.2Y-4.1
X6.3Y-3.2
X6.3Y-4.1
X6.4Y-3.2
X6.4Y-4.1
X6.5Y-3.2
X6.5Y-4.1
X6.6Y-3.2
X6.6Y-4.1
X6.7Y-3.2
X6.7Y-4.1
X6.8Y-3.2
X6.8Y-4.1
X6.9Y-3.2
X6.9Y-4.1
X7.0Y-3.2
X7.0Y-4.1
X7.1Y-3.2
X7.1Y-4.1
X7.2Y-3.2
X7.2Y-4.1
X7.3Y-3.2
X7.3Y-4.1
X7.4Y-3.2
X7.4Y-4.1
X7.5Y-3.2
X7.5Y-4.1
X7.6Y-3.2
X7.6Y-4.1
X7.7Y-3.2
X7.7Y-4.1
T4
X4.3654Y-4.7531
X8.0465Y-4.7531
T0
M30
