M48
; DRILL file {KiCad (5.1.12)-1} date 01/03/22 18:38:47
; FORMAT={-:-/ absolute / metric / decimal}
; #@! TF.CreationDate,2022-01-03T18:38:47+00:00
; #@! TF.GenerationSoftware,Kicad,Pcbnew,(5.1.12)-1
; #@! TF.FileFunction,Plated,1,4,PTH
FMAT,2
METRIC
T1C0.400
T2C0.800
T3C0.900
T4C2.000
%
G90
G05
T1
X109.38Y-120.73
X109.819Y-119.669
X109.819Y-121.791
X110.88Y-119.23
X110.88Y-122.23
X111.941Y-119.669
X111.941Y-121.791
X112.38Y-120.73
X202.88Y-120.73
X203.319Y-119.669
X203.319Y-121.791
X204.38Y-119.23
X204.38Y-122.23
X205.441Y-119.669
X205.441Y-121.791
X205.88Y-120.73
T2
X116.84Y-81.28
X116.84Y-104.14
X116.84Y-114.3
X116.84Y-116.84
X116.84Y-119.38
X116.84Y-121.92
X116.84Y-124.46
X116.84Y-127.0
X116.84Y-129.54
X116.84Y-132.08
X116.84Y-134.62
X119.38Y-81.28
X119.38Y-104.14
X119.38Y-111.76
X119.38Y-114.3
X119.38Y-116.84
X119.38Y-119.38
X119.38Y-121.92
X119.38Y-124.46
X119.38Y-127.0
X119.38Y-129.54
X119.38Y-132.08
X119.38Y-134.62
X119.38Y-137.16
X121.92Y-81.28
X121.92Y-104.14
X121.92Y-111.76
X121.92Y-114.3
X121.92Y-134.62
X121.92Y-137.16
X124.46Y-81.28
X124.46Y-104.14
X124.46Y-111.76
X124.46Y-114.3
X124.46Y-134.62
X124.46Y-137.16
X127.0Y-81.28
X127.0Y-104.14
X127.0Y-111.76
X127.0Y-114.3
X127.0Y-134.62
X127.0Y-137.16
X129.54Y-81.28
X129.54Y-104.14
X129.54Y-111.76
X129.54Y-114.3
X129.54Y-134.62
X129.54Y-137.16
X132.08Y-81.28
X132.08Y-104.14
X132.08Y-111.76
X132.08Y-114.3
X132.08Y-134.62
X132.08Y-137.16
X134.62Y-81.28
X134.62Y-104.14
X134.62Y-111.76
X134.62Y-114.3
X134.62Y-134.62
X134.62Y-137.16
X137.16Y-81.28
X137.16Y-104.14
X137.16Y-111.76
X137.16Y-114.3
X137.16Y-134.62
X137.16Y-137.16
X139.7Y-81.28
X139.7Y-104.14
X139.7Y-111.76
X139.7Y-114.3
X139.7Y-116.84
X139.7Y-119.38
X139.7Y-121.92
X139.7Y-124.46
X139.7Y-127.0
X139.7Y-129.54
X139.7Y-132.08
X139.7Y-134.62
X139.7Y-137.16
X142.24Y-81.28
X142.24Y-104.14
X142.24Y-114.3
X142.24Y-116.84
X142.24Y-119.38
X142.24Y-121.92
X142.24Y-124.46
X142.24Y-127.0
X142.24Y-129.54
X142.24Y-132.08
X142.24Y-134.62
X144.78Y-81.28
X144.78Y-104.14
X147.32Y-81.28
X147.32Y-104.14
X149.86Y-81.28
X149.86Y-104.14
X152.4Y-81.28
X152.4Y-104.14
X154.94Y-81.28
X154.94Y-104.14
X157.48Y-81.28
X157.48Y-104.14
X160.02Y-81.28
X160.02Y-104.14
X162.56Y-81.28
X162.56Y-104.14
X165.1Y-81.28
X165.1Y-104.14
X167.64Y-81.28
X167.64Y-104.14
X170.18Y-81.28
X170.18Y-104.14
X172.72Y-81.28
X172.72Y-104.14
X175.26Y-81.28
X175.26Y-104.14
X177.8Y-81.28
X177.8Y-104.14
X180.34Y-81.28
X180.34Y-104.14
X182.88Y-81.28
X182.88Y-104.14
X185.42Y-81.28
X185.42Y-104.14
X187.96Y-81.28
X187.96Y-104.14
X190.5Y-81.28
X190.5Y-104.14
X193.04Y-81.28
X193.04Y-104.14
X195.58Y-81.28
X195.58Y-104.14
T3
X194.84Y-108.645
X194.84Y-111.145
X194.84Y-113.645
X194.84Y-116.145
T4
X110.88Y-120.73
X204.38Y-120.73
T0
M30
