G04 #@! TF.GenerationSoftware,KiCad,Pcbnew,(5.1.12)-1*
G04 #@! TF.CreationDate,2022-01-03T17:24:41+00:00*
G04 #@! TF.ProjectId,A600_68k_PLCC_to_DIP64_v2,41363030-5f36-4386-9b5f-504c43435f74,B*
G04 #@! TF.SameCoordinates,Original*
G04 #@! TF.FileFunction,Legend,Top*
G04 #@! TF.FilePolarity,Positive*
%FSLAX46Y46*%
G04 Gerber Fmt 4.6, Leading zero omitted, Abs format (unit mm)*
G04 Created by KiCad (PCBNEW (5.1.12)-1) date 2022-01-03 17:24:41*
%MOMM*%
%LPD*%
G01*
G04 APERTURE LIST*
%ADD10C,0.150000*%
%ADD11C,0.300000*%
%ADD12C,0.200000*%
%ADD13C,0.120000*%
%ADD14C,0.127000*%
%ADD15C,1.422400*%
%ADD16R,1.422400X1.422400*%
%ADD17C,0.700000*%
%ADD18C,4.000000*%
%ADD19C,1.408000*%
%ADD20R,1.408000X1.408000*%
G04 APERTURE END LIST*
D10*
X190127380Y-117117380D02*
X189127380Y-117117380D01*
X189127380Y-116736428D01*
X189175000Y-116641190D01*
X189222619Y-116593571D01*
X189317857Y-116545952D01*
X189460714Y-116545952D01*
X189555952Y-116593571D01*
X189603571Y-116641190D01*
X189651190Y-116736428D01*
X189651190Y-117117380D01*
X189127380Y-115926904D02*
X189127380Y-115736428D01*
X189175000Y-115641190D01*
X189270238Y-115545952D01*
X189460714Y-115498333D01*
X189794047Y-115498333D01*
X189984523Y-115545952D01*
X190079761Y-115641190D01*
X190127380Y-115736428D01*
X190127380Y-115926904D01*
X190079761Y-116022142D01*
X189984523Y-116117380D01*
X189794047Y-116165000D01*
X189460714Y-116165000D01*
X189270238Y-116117380D01*
X189175000Y-116022142D01*
X189127380Y-115926904D01*
X189127380Y-115165000D02*
X190127380Y-114926904D01*
X189413095Y-114736428D01*
X190127380Y-114545952D01*
X189127380Y-114307857D01*
X189603571Y-113926904D02*
X189603571Y-113593571D01*
X190127380Y-113450714D02*
X190127380Y-113926904D01*
X189127380Y-113926904D01*
X189127380Y-113450714D01*
X190127380Y-112450714D02*
X189651190Y-112784047D01*
X190127380Y-113022142D02*
X189127380Y-113022142D01*
X189127380Y-112641190D01*
X189175000Y-112545952D01*
X189222619Y-112498333D01*
X189317857Y-112450714D01*
X189460714Y-112450714D01*
X189555952Y-112498333D01*
X189603571Y-112545952D01*
X189651190Y-112641190D01*
X189651190Y-113022142D01*
X190127380Y-111260238D02*
X189127380Y-111260238D01*
X190127380Y-110784047D02*
X189127380Y-110784047D01*
X190127380Y-110212619D01*
X189127380Y-110212619D01*
X190777380Y-115117380D02*
X190777380Y-114926904D01*
X190825000Y-114831666D01*
X190920238Y-114736428D01*
X191110714Y-114688809D01*
X191444047Y-114688809D01*
X191634523Y-114736428D01*
X191729761Y-114831666D01*
X191777380Y-114926904D01*
X191777380Y-115117380D01*
X191729761Y-115212619D01*
X191634523Y-115307857D01*
X191444047Y-115355476D01*
X191110714Y-115355476D01*
X190920238Y-115307857D01*
X190825000Y-115212619D01*
X190777380Y-115117380D01*
X191777380Y-114260238D02*
X190777380Y-114260238D01*
X191777380Y-113688809D01*
X190777380Y-113688809D01*
X191777380Y-112736428D02*
X191777380Y-113212619D01*
X190777380Y-113212619D01*
X191301190Y-112212619D02*
X191777380Y-112212619D01*
X190777380Y-112545952D02*
X191301190Y-112212619D01*
X190777380Y-111879285D01*
D11*
X152213185Y-117725000D02*
X152927471Y-117725000D01*
X152070328Y-118153571D02*
X152570328Y-116653571D01*
X153070328Y-118153571D01*
X153570328Y-118153571D02*
X153570328Y-116653571D01*
X154070328Y-117725000D01*
X154570328Y-116653571D01*
X154570328Y-118153571D01*
X155284614Y-118153571D02*
X155284614Y-116653571D01*
X156784614Y-116725000D02*
X156641757Y-116653571D01*
X156427471Y-116653571D01*
X156213185Y-116725000D01*
X156070328Y-116867857D01*
X155998900Y-117010714D01*
X155927471Y-117296428D01*
X155927471Y-117510714D01*
X155998900Y-117796428D01*
X156070328Y-117939285D01*
X156213185Y-118082142D01*
X156427471Y-118153571D01*
X156570328Y-118153571D01*
X156784614Y-118082142D01*
X156856042Y-118010714D01*
X156856042Y-117510714D01*
X156570328Y-117510714D01*
X157427471Y-117725000D02*
X158141757Y-117725000D01*
X157284614Y-118153571D02*
X157784614Y-116653571D01*
X158284614Y-118153571D01*
X159856042Y-117725000D02*
X160570328Y-117725000D01*
X159713185Y-118153571D02*
X160213185Y-116653571D01*
X160713185Y-118153571D01*
X161856042Y-116653571D02*
X161570328Y-116653571D01*
X161427471Y-116725000D01*
X161356042Y-116796428D01*
X161213185Y-117010714D01*
X161141757Y-117296428D01*
X161141757Y-117867857D01*
X161213185Y-118010714D01*
X161284614Y-118082142D01*
X161427471Y-118153571D01*
X161713185Y-118153571D01*
X161856042Y-118082142D01*
X161927471Y-118010714D01*
X161998900Y-117867857D01*
X161998900Y-117510714D01*
X161927471Y-117367857D01*
X161856042Y-117296428D01*
X161713185Y-117225000D01*
X161427471Y-117225000D01*
X161284614Y-117296428D01*
X161213185Y-117367857D01*
X161141757Y-117510714D01*
X162927471Y-116653571D02*
X163070328Y-116653571D01*
X163213185Y-116725000D01*
X163284614Y-116796428D01*
X163356042Y-116939285D01*
X163427471Y-117225000D01*
X163427471Y-117582142D01*
X163356042Y-117867857D01*
X163284614Y-118010714D01*
X163213185Y-118082142D01*
X163070328Y-118153571D01*
X162927471Y-118153571D01*
X162784614Y-118082142D01*
X162713185Y-118010714D01*
X162641757Y-117867857D01*
X162570328Y-117582142D01*
X162570328Y-117225000D01*
X162641757Y-116939285D01*
X162713185Y-116796428D01*
X162784614Y-116725000D01*
X162927471Y-116653571D01*
X164356042Y-116653571D02*
X164498900Y-116653571D01*
X164641757Y-116725000D01*
X164713185Y-116796428D01*
X164784614Y-116939285D01*
X164856042Y-117225000D01*
X164856042Y-117582142D01*
X164784614Y-117867857D01*
X164713185Y-118010714D01*
X164641757Y-118082142D01*
X164498900Y-118153571D01*
X164356042Y-118153571D01*
X164213185Y-118082142D01*
X164141757Y-118010714D01*
X164070328Y-117867857D01*
X163998900Y-117582142D01*
X163998900Y-117225000D01*
X164070328Y-116939285D01*
X164141757Y-116796428D01*
X164213185Y-116725000D01*
X164356042Y-116653571D01*
X167284614Y-116653571D02*
X166998900Y-116653571D01*
X166856042Y-116725000D01*
X166784614Y-116796428D01*
X166641757Y-117010714D01*
X166570328Y-117296428D01*
X166570328Y-117867857D01*
X166641757Y-118010714D01*
X166713185Y-118082142D01*
X166856042Y-118153571D01*
X167141757Y-118153571D01*
X167284614Y-118082142D01*
X167356042Y-118010714D01*
X167427471Y-117867857D01*
X167427471Y-117510714D01*
X167356042Y-117367857D01*
X167284614Y-117296428D01*
X167141757Y-117225000D01*
X166856042Y-117225000D01*
X166713185Y-117296428D01*
X166641757Y-117367857D01*
X166570328Y-117510714D01*
X168284614Y-117296428D02*
X168141757Y-117225000D01*
X168070328Y-117153571D01*
X167998900Y-117010714D01*
X167998900Y-116939285D01*
X168070328Y-116796428D01*
X168141757Y-116725000D01*
X168284614Y-116653571D01*
X168570328Y-116653571D01*
X168713185Y-116725000D01*
X168784614Y-116796428D01*
X168856042Y-116939285D01*
X168856042Y-117010714D01*
X168784614Y-117153571D01*
X168713185Y-117225000D01*
X168570328Y-117296428D01*
X168284614Y-117296428D01*
X168141757Y-117367857D01*
X168070328Y-117439285D01*
X167998900Y-117582142D01*
X167998900Y-117867857D01*
X168070328Y-118010714D01*
X168141757Y-118082142D01*
X168284614Y-118153571D01*
X168570328Y-118153571D01*
X168713185Y-118082142D01*
X168784614Y-118010714D01*
X168856042Y-117867857D01*
X168856042Y-117582142D01*
X168784614Y-117439285D01*
X168713185Y-117367857D01*
X168570328Y-117296428D01*
X169498900Y-118153571D02*
X169498900Y-116653571D01*
X169641757Y-117582142D02*
X170070328Y-118153571D01*
X170070328Y-117153571D02*
X169498900Y-117725000D01*
X171856042Y-118153571D02*
X171856042Y-116653571D01*
X172427471Y-116653571D01*
X172570328Y-116725000D01*
X172641757Y-116796428D01*
X172713185Y-116939285D01*
X172713185Y-117153571D01*
X172641757Y-117296428D01*
X172570328Y-117367857D01*
X172427471Y-117439285D01*
X171856042Y-117439285D01*
X174070328Y-118153571D02*
X173356042Y-118153571D01*
X173356042Y-116653571D01*
X175427471Y-118010714D02*
X175356042Y-118082142D01*
X175141757Y-118153571D01*
X174998900Y-118153571D01*
X174784614Y-118082142D01*
X174641757Y-117939285D01*
X174570328Y-117796428D01*
X174498900Y-117510714D01*
X174498900Y-117296428D01*
X174570328Y-117010714D01*
X174641757Y-116867857D01*
X174784614Y-116725000D01*
X174998900Y-116653571D01*
X175141757Y-116653571D01*
X175356042Y-116725000D01*
X175427471Y-116796428D01*
X176927471Y-118010714D02*
X176856042Y-118082142D01*
X176641757Y-118153571D01*
X176498900Y-118153571D01*
X176284614Y-118082142D01*
X176141757Y-117939285D01*
X176070328Y-117796428D01*
X175998900Y-117510714D01*
X175998900Y-117296428D01*
X176070328Y-117010714D01*
X176141757Y-116867857D01*
X176284614Y-116725000D01*
X176498900Y-116653571D01*
X176641757Y-116653571D01*
X176856042Y-116725000D01*
X176927471Y-116796428D01*
X177498900Y-116796428D02*
X177570328Y-116725000D01*
X177713185Y-116653571D01*
X178070328Y-116653571D01*
X178213185Y-116725000D01*
X178284614Y-116796428D01*
X178356042Y-116939285D01*
X178356042Y-117082142D01*
X178284614Y-117296428D01*
X177427471Y-118153571D01*
X178356042Y-118153571D01*
X178998900Y-118153571D02*
X178998900Y-116653571D01*
X179356042Y-116653571D01*
X179570328Y-116725000D01*
X179713185Y-116867857D01*
X179784614Y-117010714D01*
X179856042Y-117296428D01*
X179856042Y-117510714D01*
X179784614Y-117796428D01*
X179713185Y-117939285D01*
X179570328Y-118082142D01*
X179356042Y-118153571D01*
X178998900Y-118153571D01*
X180498900Y-118153571D02*
X180498900Y-116653571D01*
X181213185Y-118153571D02*
X181213185Y-116653571D01*
X181784614Y-116653571D01*
X181927471Y-116725000D01*
X181998900Y-116796428D01*
X182070328Y-116939285D01*
X182070328Y-117153571D01*
X181998900Y-117296428D01*
X181927471Y-117367857D01*
X181784614Y-117439285D01*
X181213185Y-117439285D01*
X183713185Y-117153571D02*
X184070328Y-118153571D01*
X184427471Y-117153571D01*
X184927471Y-116796428D02*
X184998900Y-116725000D01*
X185141757Y-116653571D01*
X185498900Y-116653571D01*
X185641757Y-116725000D01*
X185713185Y-116796428D01*
X185784614Y-116939285D01*
X185784614Y-117082142D01*
X185713185Y-117296428D01*
X184856042Y-118153571D01*
X185784614Y-118153571D01*
D12*
X162957619Y-121268333D02*
X162910000Y-121220714D01*
X162814761Y-121077857D01*
X162767142Y-120982619D01*
X162719523Y-120839761D01*
X162671904Y-120601666D01*
X162671904Y-120411190D01*
X162719523Y-120173095D01*
X162767142Y-120030238D01*
X162814761Y-119935000D01*
X162910000Y-119792142D01*
X162957619Y-119744523D01*
X163767142Y-120839761D02*
X163671904Y-120887380D01*
X163481428Y-120887380D01*
X163386190Y-120839761D01*
X163338571Y-120792142D01*
X163290952Y-120696904D01*
X163290952Y-120411190D01*
X163338571Y-120315952D01*
X163386190Y-120268333D01*
X163481428Y-120220714D01*
X163671904Y-120220714D01*
X163767142Y-120268333D01*
X164100476Y-121268333D02*
X164148095Y-121220714D01*
X164243333Y-121077857D01*
X164290952Y-120982619D01*
X164338571Y-120839761D01*
X164386190Y-120601666D01*
X164386190Y-120411190D01*
X164338571Y-120173095D01*
X164290952Y-120030238D01*
X164243333Y-119935000D01*
X164148095Y-119792142D01*
X164100476Y-119744523D01*
X165576666Y-119982619D02*
X165624285Y-119935000D01*
X165719523Y-119887380D01*
X165957619Y-119887380D01*
X166052857Y-119935000D01*
X166100476Y-119982619D01*
X166148095Y-120077857D01*
X166148095Y-120173095D01*
X166100476Y-120315952D01*
X165529047Y-120887380D01*
X166148095Y-120887380D01*
X166767142Y-119887380D02*
X166862380Y-119887380D01*
X166957619Y-119935000D01*
X167005238Y-119982619D01*
X167052857Y-120077857D01*
X167100476Y-120268333D01*
X167100476Y-120506428D01*
X167052857Y-120696904D01*
X167005238Y-120792142D01*
X166957619Y-120839761D01*
X166862380Y-120887380D01*
X166767142Y-120887380D01*
X166671904Y-120839761D01*
X166624285Y-120792142D01*
X166576666Y-120696904D01*
X166529047Y-120506428D01*
X166529047Y-120268333D01*
X166576666Y-120077857D01*
X166624285Y-119982619D01*
X166671904Y-119935000D01*
X166767142Y-119887380D01*
X167481428Y-119982619D02*
X167529047Y-119935000D01*
X167624285Y-119887380D01*
X167862380Y-119887380D01*
X167957619Y-119935000D01*
X168005238Y-119982619D01*
X168052857Y-120077857D01*
X168052857Y-120173095D01*
X168005238Y-120315952D01*
X167433809Y-120887380D01*
X168052857Y-120887380D01*
X168433809Y-119982619D02*
X168481428Y-119935000D01*
X168576666Y-119887380D01*
X168814761Y-119887380D01*
X168910000Y-119935000D01*
X168957619Y-119982619D01*
X169005238Y-120077857D01*
X169005238Y-120173095D01*
X168957619Y-120315952D01*
X168386190Y-120887380D01*
X169005238Y-120887380D01*
X170671904Y-120887380D02*
X170195714Y-120887380D01*
X170195714Y-119887380D01*
X171386190Y-120839761D02*
X171290952Y-120887380D01*
X171100476Y-120887380D01*
X171005238Y-120839761D01*
X170957619Y-120744523D01*
X170957619Y-120363571D01*
X171005238Y-120268333D01*
X171100476Y-120220714D01*
X171290952Y-120220714D01*
X171386190Y-120268333D01*
X171433809Y-120363571D01*
X171433809Y-120458809D01*
X170957619Y-120554047D01*
X171862380Y-120887380D02*
X171862380Y-120220714D01*
X171862380Y-120315952D02*
X171910000Y-120268333D01*
X172005238Y-120220714D01*
X172148095Y-120220714D01*
X172243333Y-120268333D01*
X172290952Y-120363571D01*
X172290952Y-120887380D01*
X172290952Y-120363571D02*
X172338571Y-120268333D01*
X172433809Y-120220714D01*
X172576666Y-120220714D01*
X172671904Y-120268333D01*
X172719523Y-120363571D01*
X172719523Y-120887380D01*
X173624285Y-120887380D02*
X173624285Y-120363571D01*
X173576666Y-120268333D01*
X173481428Y-120220714D01*
X173290952Y-120220714D01*
X173195714Y-120268333D01*
X173624285Y-120839761D02*
X173529047Y-120887380D01*
X173290952Y-120887380D01*
X173195714Y-120839761D01*
X173148095Y-120744523D01*
X173148095Y-120649285D01*
X173195714Y-120554047D01*
X173290952Y-120506428D01*
X173529047Y-120506428D01*
X173624285Y-120458809D01*
X174100476Y-120887380D02*
X174100476Y-120220714D01*
X174100476Y-120411190D02*
X174148095Y-120315952D01*
X174195714Y-120268333D01*
X174290952Y-120220714D01*
X174386190Y-120220714D01*
X175148095Y-120220714D02*
X175148095Y-120887380D01*
X174719523Y-120220714D02*
X174719523Y-120744523D01*
X174767142Y-120839761D01*
X174862380Y-120887380D01*
X175005238Y-120887380D01*
X175100476Y-120839761D01*
X175148095Y-120792142D01*
X148814761Y-121920714D02*
X148814761Y-122730238D01*
X148767142Y-122825476D01*
X148719523Y-122873095D01*
X148624285Y-122920714D01*
X148481428Y-122920714D01*
X148386190Y-122873095D01*
X148814761Y-122539761D02*
X148719523Y-122587380D01*
X148529047Y-122587380D01*
X148433809Y-122539761D01*
X148386190Y-122492142D01*
X148338571Y-122396904D01*
X148338571Y-122111190D01*
X148386190Y-122015952D01*
X148433809Y-121968333D01*
X148529047Y-121920714D01*
X148719523Y-121920714D01*
X148814761Y-121968333D01*
X149290952Y-122587380D02*
X149290952Y-121920714D01*
X149290952Y-121587380D02*
X149243333Y-121635000D01*
X149290952Y-121682619D01*
X149338571Y-121635000D01*
X149290952Y-121587380D01*
X149290952Y-121682619D01*
X149624285Y-121920714D02*
X150005238Y-121920714D01*
X149767142Y-121587380D02*
X149767142Y-122444523D01*
X149814761Y-122539761D01*
X149910000Y-122587380D01*
X150005238Y-122587380D01*
X150338571Y-122587380D02*
X150338571Y-121587380D01*
X150767142Y-122587380D02*
X150767142Y-122063571D01*
X150719523Y-121968333D01*
X150624285Y-121920714D01*
X150481428Y-121920714D01*
X150386190Y-121968333D01*
X150338571Y-122015952D01*
X151671904Y-121920714D02*
X151671904Y-122587380D01*
X151243333Y-121920714D02*
X151243333Y-122444523D01*
X151290952Y-122539761D01*
X151386190Y-122587380D01*
X151529047Y-122587380D01*
X151624285Y-122539761D01*
X151671904Y-122492142D01*
X152148095Y-122587380D02*
X152148095Y-121587380D01*
X152148095Y-121968333D02*
X152243333Y-121920714D01*
X152433809Y-121920714D01*
X152529047Y-121968333D01*
X152576666Y-122015952D01*
X152624285Y-122111190D01*
X152624285Y-122396904D01*
X152576666Y-122492142D01*
X152529047Y-122539761D01*
X152433809Y-122587380D01*
X152243333Y-122587380D01*
X152148095Y-122539761D01*
X153052857Y-122492142D02*
X153100476Y-122539761D01*
X153052857Y-122587380D01*
X153005238Y-122539761D01*
X153052857Y-122492142D01*
X153052857Y-122587380D01*
X153957619Y-122539761D02*
X153862380Y-122587380D01*
X153671904Y-122587380D01*
X153576666Y-122539761D01*
X153529047Y-122492142D01*
X153481428Y-122396904D01*
X153481428Y-122111190D01*
X153529047Y-122015952D01*
X153576666Y-121968333D01*
X153671904Y-121920714D01*
X153862380Y-121920714D01*
X153957619Y-121968333D01*
X154529047Y-122587380D02*
X154433809Y-122539761D01*
X154386190Y-122492142D01*
X154338571Y-122396904D01*
X154338571Y-122111190D01*
X154386190Y-122015952D01*
X154433809Y-121968333D01*
X154529047Y-121920714D01*
X154671904Y-121920714D01*
X154767142Y-121968333D01*
X154814761Y-122015952D01*
X154862380Y-122111190D01*
X154862380Y-122396904D01*
X154814761Y-122492142D01*
X154767142Y-122539761D01*
X154671904Y-122587380D01*
X154529047Y-122587380D01*
X155290952Y-122587380D02*
X155290952Y-121920714D01*
X155290952Y-122015952D02*
X155338571Y-121968333D01*
X155433809Y-121920714D01*
X155576666Y-121920714D01*
X155671904Y-121968333D01*
X155719523Y-122063571D01*
X155719523Y-122587380D01*
X155719523Y-122063571D02*
X155767142Y-121968333D01*
X155862380Y-121920714D01*
X156005238Y-121920714D01*
X156100476Y-121968333D01*
X156148095Y-122063571D01*
X156148095Y-122587380D01*
X157338571Y-121539761D02*
X156481428Y-122825476D01*
X158148095Y-122587380D02*
X157671904Y-122587380D01*
X157671904Y-121587380D01*
X158862380Y-122539761D02*
X158767142Y-122587380D01*
X158576666Y-122587380D01*
X158481428Y-122539761D01*
X158433809Y-122444523D01*
X158433809Y-122063571D01*
X158481428Y-121968333D01*
X158576666Y-121920714D01*
X158767142Y-121920714D01*
X158862380Y-121968333D01*
X158910000Y-122063571D01*
X158910000Y-122158809D01*
X158433809Y-122254047D01*
X159338571Y-122587380D02*
X159338571Y-121920714D01*
X159338571Y-122015952D02*
X159386190Y-121968333D01*
X159481428Y-121920714D01*
X159624285Y-121920714D01*
X159719523Y-121968333D01*
X159767142Y-122063571D01*
X159767142Y-122587380D01*
X159767142Y-122063571D02*
X159814761Y-121968333D01*
X159910000Y-121920714D01*
X160052857Y-121920714D01*
X160148095Y-121968333D01*
X160195714Y-122063571D01*
X160195714Y-122587380D01*
X161100476Y-122587380D02*
X161100476Y-122063571D01*
X161052857Y-121968333D01*
X160957619Y-121920714D01*
X160767142Y-121920714D01*
X160671904Y-121968333D01*
X161100476Y-122539761D02*
X161005238Y-122587380D01*
X160767142Y-122587380D01*
X160671904Y-122539761D01*
X160624285Y-122444523D01*
X160624285Y-122349285D01*
X160671904Y-122254047D01*
X160767142Y-122206428D01*
X161005238Y-122206428D01*
X161100476Y-122158809D01*
X161576666Y-122587380D02*
X161576666Y-121920714D01*
X161576666Y-122111190D02*
X161624285Y-122015952D01*
X161671904Y-121968333D01*
X161767142Y-121920714D01*
X161862380Y-121920714D01*
X162624285Y-121920714D02*
X162624285Y-122587380D01*
X162195714Y-121920714D02*
X162195714Y-122444523D01*
X162243333Y-122539761D01*
X162338571Y-122587380D01*
X162481428Y-122587380D01*
X162576666Y-122539761D01*
X162624285Y-122492142D01*
X163005238Y-121587380D02*
X163671904Y-122587380D01*
X163671904Y-121587380D02*
X163005238Y-122587380D01*
X164767142Y-121539761D02*
X163910000Y-122825476D01*
X165052857Y-122301666D02*
X165529047Y-122301666D01*
X164957619Y-122587380D02*
X165290952Y-121587380D01*
X165624285Y-122587380D01*
X165957619Y-122587380D02*
X165957619Y-121920714D01*
X165957619Y-122015952D02*
X166005238Y-121968333D01*
X166100476Y-121920714D01*
X166243333Y-121920714D01*
X166338571Y-121968333D01*
X166386190Y-122063571D01*
X166386190Y-122587380D01*
X166386190Y-122063571D02*
X166433809Y-121968333D01*
X166529047Y-121920714D01*
X166671904Y-121920714D01*
X166767142Y-121968333D01*
X166814761Y-122063571D01*
X166814761Y-122587380D01*
X167290952Y-122587380D02*
X167290952Y-121920714D01*
X167290952Y-121587380D02*
X167243333Y-121635000D01*
X167290952Y-121682619D01*
X167338571Y-121635000D01*
X167290952Y-121587380D01*
X167290952Y-121682619D01*
X168195714Y-121920714D02*
X168195714Y-122730238D01*
X168148095Y-122825476D01*
X168100476Y-122873095D01*
X168005238Y-122920714D01*
X167862380Y-122920714D01*
X167767142Y-122873095D01*
X168195714Y-122539761D02*
X168100476Y-122587380D01*
X167910000Y-122587380D01*
X167814761Y-122539761D01*
X167767142Y-122492142D01*
X167719523Y-122396904D01*
X167719523Y-122111190D01*
X167767142Y-122015952D01*
X167814761Y-121968333D01*
X167910000Y-121920714D01*
X168100476Y-121920714D01*
X168195714Y-121968333D01*
X169100476Y-122587380D02*
X169100476Y-122063571D01*
X169052857Y-121968333D01*
X168957619Y-121920714D01*
X168767142Y-121920714D01*
X168671904Y-121968333D01*
X169100476Y-122539761D02*
X169005238Y-122587380D01*
X168767142Y-122587380D01*
X168671904Y-122539761D01*
X168624285Y-122444523D01*
X168624285Y-122349285D01*
X168671904Y-122254047D01*
X168767142Y-122206428D01*
X169005238Y-122206428D01*
X169100476Y-122158809D01*
X169576666Y-122206428D02*
X170338571Y-122206428D01*
X170767142Y-122301666D02*
X171243333Y-122301666D01*
X170671904Y-122587380D02*
X171005238Y-121587380D01*
X171338571Y-122587380D01*
X172100476Y-121587380D02*
X171910000Y-121587380D01*
X171814761Y-121635000D01*
X171767142Y-121682619D01*
X171671904Y-121825476D01*
X171624285Y-122015952D01*
X171624285Y-122396904D01*
X171671904Y-122492142D01*
X171719523Y-122539761D01*
X171814761Y-122587380D01*
X172005238Y-122587380D01*
X172100476Y-122539761D01*
X172148095Y-122492142D01*
X172195714Y-122396904D01*
X172195714Y-122158809D01*
X172148095Y-122063571D01*
X172100476Y-122015952D01*
X172005238Y-121968333D01*
X171814761Y-121968333D01*
X171719523Y-122015952D01*
X171671904Y-122063571D01*
X171624285Y-122158809D01*
X172814761Y-121587380D02*
X172910000Y-121587380D01*
X173005238Y-121635000D01*
X173052857Y-121682619D01*
X173100476Y-121777857D01*
X173148095Y-121968333D01*
X173148095Y-122206428D01*
X173100476Y-122396904D01*
X173052857Y-122492142D01*
X173005238Y-122539761D01*
X172910000Y-122587380D01*
X172814761Y-122587380D01*
X172719523Y-122539761D01*
X172671904Y-122492142D01*
X172624285Y-122396904D01*
X172576666Y-122206428D01*
X172576666Y-121968333D01*
X172624285Y-121777857D01*
X172671904Y-121682619D01*
X172719523Y-121635000D01*
X172814761Y-121587380D01*
X173767142Y-121587380D02*
X173862380Y-121587380D01*
X173957619Y-121635000D01*
X174005238Y-121682619D01*
X174052857Y-121777857D01*
X174100476Y-121968333D01*
X174100476Y-122206428D01*
X174052857Y-122396904D01*
X174005238Y-122492142D01*
X173957619Y-122539761D01*
X173862380Y-122587380D01*
X173767142Y-122587380D01*
X173671904Y-122539761D01*
X173624285Y-122492142D01*
X173576666Y-122396904D01*
X173529047Y-122206428D01*
X173529047Y-121968333D01*
X173576666Y-121777857D01*
X173624285Y-121682619D01*
X173671904Y-121635000D01*
X173767142Y-121587380D01*
X174529047Y-122206428D02*
X175290952Y-122206428D01*
X176195714Y-121587380D02*
X176005238Y-121587380D01*
X175910000Y-121635000D01*
X175862380Y-121682619D01*
X175767142Y-121825476D01*
X175719523Y-122015952D01*
X175719523Y-122396904D01*
X175767142Y-122492142D01*
X175814761Y-122539761D01*
X175910000Y-122587380D01*
X176100476Y-122587380D01*
X176195714Y-122539761D01*
X176243333Y-122492142D01*
X176290952Y-122396904D01*
X176290952Y-122158809D01*
X176243333Y-122063571D01*
X176195714Y-122015952D01*
X176100476Y-121968333D01*
X175910000Y-121968333D01*
X175814761Y-122015952D01*
X175767142Y-122063571D01*
X175719523Y-122158809D01*
X176862380Y-122015952D02*
X176767142Y-121968333D01*
X176719523Y-121920714D01*
X176671904Y-121825476D01*
X176671904Y-121777857D01*
X176719523Y-121682619D01*
X176767142Y-121635000D01*
X176862380Y-121587380D01*
X177052857Y-121587380D01*
X177148095Y-121635000D01*
X177195714Y-121682619D01*
X177243333Y-121777857D01*
X177243333Y-121825476D01*
X177195714Y-121920714D01*
X177148095Y-121968333D01*
X177052857Y-122015952D01*
X176862380Y-122015952D01*
X176767142Y-122063571D01*
X176719523Y-122111190D01*
X176671904Y-122206428D01*
X176671904Y-122396904D01*
X176719523Y-122492142D01*
X176767142Y-122539761D01*
X176862380Y-122587380D01*
X177052857Y-122587380D01*
X177148095Y-122539761D01*
X177195714Y-122492142D01*
X177243333Y-122396904D01*
X177243333Y-122206428D01*
X177195714Y-122111190D01*
X177148095Y-122063571D01*
X177052857Y-122015952D01*
X177671904Y-122587380D02*
X177671904Y-121587380D01*
X177767142Y-122206428D02*
X178052857Y-122587380D01*
X178052857Y-121920714D02*
X177671904Y-122301666D01*
X178481428Y-122206428D02*
X179243333Y-122206428D01*
X179719523Y-122587380D02*
X179719523Y-121587380D01*
X180100476Y-121587380D01*
X180195714Y-121635000D01*
X180243333Y-121682619D01*
X180290952Y-121777857D01*
X180290952Y-121920714D01*
X180243333Y-122015952D01*
X180195714Y-122063571D01*
X180100476Y-122111190D01*
X179719523Y-122111190D01*
X181195714Y-122587380D02*
X180719523Y-122587380D01*
X180719523Y-121587380D01*
X182100476Y-122492142D02*
X182052857Y-122539761D01*
X181910000Y-122587380D01*
X181814761Y-122587380D01*
X181671904Y-122539761D01*
X181576666Y-122444523D01*
X181529047Y-122349285D01*
X181481428Y-122158809D01*
X181481428Y-122015952D01*
X181529047Y-121825476D01*
X181576666Y-121730238D01*
X181671904Y-121635000D01*
X181814761Y-121587380D01*
X181910000Y-121587380D01*
X182052857Y-121635000D01*
X182100476Y-121682619D01*
X183100476Y-122492142D02*
X183052857Y-122539761D01*
X182910000Y-122587380D01*
X182814761Y-122587380D01*
X182671904Y-122539761D01*
X182576666Y-122444523D01*
X182529047Y-122349285D01*
X182481428Y-122158809D01*
X182481428Y-122015952D01*
X182529047Y-121825476D01*
X182576666Y-121730238D01*
X182671904Y-121635000D01*
X182814761Y-121587380D01*
X182910000Y-121587380D01*
X183052857Y-121635000D01*
X183100476Y-121682619D01*
X183481428Y-121682619D02*
X183529047Y-121635000D01*
X183624285Y-121587380D01*
X183862380Y-121587380D01*
X183957619Y-121635000D01*
X184005238Y-121682619D01*
X184052857Y-121777857D01*
X184052857Y-121873095D01*
X184005238Y-122015952D01*
X183433809Y-122587380D01*
X184052857Y-122587380D01*
X184481428Y-122587380D02*
X184481428Y-121587380D01*
X184719523Y-121587380D01*
X184862380Y-121635000D01*
X184957619Y-121730238D01*
X185005238Y-121825476D01*
X185052857Y-122015952D01*
X185052857Y-122158809D01*
X185005238Y-122349285D01*
X184957619Y-122444523D01*
X184862380Y-122539761D01*
X184719523Y-122587380D01*
X184481428Y-122587380D01*
X185481428Y-122587380D02*
X185481428Y-121587380D01*
X185957619Y-122587380D02*
X185957619Y-121587380D01*
X186338571Y-121587380D01*
X186433809Y-121635000D01*
X186481428Y-121682619D01*
X186529047Y-121777857D01*
X186529047Y-121920714D01*
X186481428Y-122015952D01*
X186433809Y-122063571D01*
X186338571Y-122111190D01*
X185957619Y-122111190D01*
X186957619Y-122206428D02*
X187719523Y-122206428D01*
X188100476Y-121920714D02*
X188338571Y-122587380D01*
X188576666Y-121920714D01*
X188910000Y-121682619D02*
X188957619Y-121635000D01*
X189052857Y-121587380D01*
X189290952Y-121587380D01*
X189386190Y-121635000D01*
X189433809Y-121682619D01*
X189481428Y-121777857D01*
X189481428Y-121873095D01*
X189433809Y-122015952D01*
X188862380Y-122587380D01*
X189481428Y-122587380D01*
D10*
X137160000Y-112649000D02*
X136906000Y-112903000D01*
X137160000Y-113411000D02*
X137160000Y-112649000D01*
X137414000Y-112903000D02*
X137160000Y-112649000D01*
X141097000Y-132334000D02*
X141351000Y-132080000D01*
X141351000Y-132080000D02*
X141097000Y-131826000D01*
X140589000Y-132080000D02*
X141351000Y-132080000D01*
X138303000Y-113538000D02*
X137922000Y-113538000D01*
X138938000Y-112522000D02*
X137922000Y-113538000D01*
X137922000Y-113538000D02*
X137922000Y-113157000D01*
X140843000Y-132842000D02*
X140462000Y-132842000D01*
X140462000Y-132842000D02*
X140462000Y-133223000D01*
X141478000Y-133858000D02*
X140462000Y-132842000D01*
X121158000Y-135890000D02*
X121158000Y-135509000D01*
X121158000Y-135509000D02*
X120777000Y-135509000D01*
X120142000Y-136525000D02*
X121158000Y-135509000D01*
X117983000Y-116586000D02*
X117729000Y-116840000D01*
X117729000Y-116840000D02*
X117983000Y-117094000D01*
X118491000Y-116840000D02*
X117729000Y-116840000D01*
X118110000Y-116078000D02*
X118491000Y-116078000D01*
X118491000Y-116078000D02*
X118491000Y-115697000D01*
X117602000Y-115189000D02*
X118491000Y-116078000D01*
X127254000Y-112903000D02*
X127000000Y-112649000D01*
X127000000Y-112649000D02*
X126746000Y-112903000D01*
X127000000Y-113411000D02*
X127000000Y-112649000D01*
X128143000Y-113665000D02*
X127762000Y-113665000D01*
X127762000Y-113665000D02*
X127762000Y-113284000D01*
X128651000Y-112776000D02*
X127762000Y-113665000D01*
X122174000Y-136017000D02*
X121920000Y-136271000D01*
X121920000Y-136271000D02*
X121666000Y-136017000D01*
X121920000Y-135509000D02*
X121920000Y-136144000D01*
X117755810Y-114300000D02*
G75*
G03*
X117755810Y-114300000I-915810J0D01*
G01*
X117755810Y-127000000D02*
G75*
G03*
X117755810Y-127000000I-915810J0D01*
G01*
X125375810Y-134620000D02*
G75*
G03*
X125375810Y-134620000I-915810J0D01*
G01*
X138075810Y-134620000D02*
G75*
G03*
X138075810Y-134620000I-915810J0D01*
G01*
X143155810Y-127000000D02*
G75*
G03*
X143155810Y-127000000I-915810J0D01*
G01*
X143155810Y-114300000D02*
G75*
G03*
X143155810Y-114300000I-915810J0D01*
G01*
D13*
X115450000Y-105530000D02*
X196970000Y-105530000D01*
X115450000Y-79890000D02*
X115450000Y-105530000D01*
X196970000Y-79890000D02*
X115450000Y-79890000D01*
X196970000Y-105530000D02*
X196970000Y-93710000D01*
X115450000Y-102700000D02*
X196970000Y-102700000D01*
X115450000Y-82720000D02*
X115450000Y-102700000D01*
X196970000Y-82720000D02*
X115450000Y-82720000D01*
X196970000Y-91710000D02*
X196970000Y-79890000D01*
X196970000Y-93710000D02*
G75*
G02*
X196970000Y-91710000I0J1000000D01*
G01*
X120931000Y-121299248D02*
X120931000Y-121821752D01*
X122401000Y-121299248D02*
X122401000Y-121821752D01*
X120931000Y-126611748D02*
X120931000Y-127134252D01*
X122401000Y-126611748D02*
X122401000Y-127134252D01*
X123944748Y-133196000D02*
X124467252Y-133196000D01*
X123944748Y-131726000D02*
X124467252Y-131726000D01*
X143918000Y-125214748D02*
X143918000Y-125737252D01*
X145388000Y-125214748D02*
X145388000Y-125737252D01*
X124232936Y-117321000D02*
X124687064Y-117321000D01*
X124232936Y-115851000D02*
X124687064Y-115851000D01*
X163602936Y-78205000D02*
X164057064Y-78205000D01*
X163602936Y-76735000D02*
X164057064Y-76735000D01*
X190126252Y-107850000D02*
X189603748Y-107850000D01*
X190126252Y-109320000D02*
X189603748Y-109320000D01*
D14*
X197240000Y-107395000D02*
X197240000Y-117395000D01*
X198640000Y-107395000D02*
X198640000Y-117395000D01*
D12*
X194490000Y-106595000D02*
G75*
G03*
X194490000Y-106595000I-100000J0D01*
G01*
D14*
X197240000Y-107395000D02*
X192640000Y-107395000D01*
X198640000Y-107395000D02*
X197240000Y-107395000D01*
X206140000Y-107395000D02*
X198640000Y-107395000D01*
X206140000Y-117395000D02*
X206140000Y-107395000D01*
X198640000Y-117395000D02*
X206140000Y-117395000D01*
X197240000Y-117395000D02*
X198640000Y-117395000D01*
X192640000Y-117395000D02*
X197240000Y-117395000D01*
X192640000Y-107395000D02*
X192640000Y-117395000D01*
D10*
X122023142Y-118806166D02*
X122070761Y-118853785D01*
X122118380Y-118996642D01*
X122118380Y-119091880D01*
X122070761Y-119234738D01*
X121975523Y-119329976D01*
X121880285Y-119377595D01*
X121689809Y-119425214D01*
X121546952Y-119425214D01*
X121356476Y-119377595D01*
X121261238Y-119329976D01*
X121166000Y-119234738D01*
X121118380Y-119091880D01*
X121118380Y-118996642D01*
X121166000Y-118853785D01*
X121213619Y-118806166D01*
X122118380Y-117853785D02*
X122118380Y-118425214D01*
X122118380Y-118139500D02*
X121118380Y-118139500D01*
X121261238Y-118234738D01*
X121356476Y-118329976D01*
X121404095Y-118425214D01*
X122023142Y-130087666D02*
X122070761Y-130135285D01*
X122118380Y-130278142D01*
X122118380Y-130373380D01*
X122070761Y-130516238D01*
X121975523Y-130611476D01*
X121880285Y-130659095D01*
X121689809Y-130706714D01*
X121546952Y-130706714D01*
X121356476Y-130659095D01*
X121261238Y-130611476D01*
X121166000Y-130516238D01*
X121118380Y-130373380D01*
X121118380Y-130278142D01*
X121166000Y-130135285D01*
X121213619Y-130087666D01*
X121213619Y-129706714D02*
X121166000Y-129659095D01*
X121118380Y-129563857D01*
X121118380Y-129325761D01*
X121166000Y-129230523D01*
X121213619Y-129182904D01*
X121308857Y-129135285D01*
X121404095Y-129135285D01*
X121546952Y-129182904D01*
X122118380Y-129754333D01*
X122118380Y-129135285D01*
X127087333Y-132818142D02*
X127039714Y-132865761D01*
X126896857Y-132913380D01*
X126801619Y-132913380D01*
X126658761Y-132865761D01*
X126563523Y-132770523D01*
X126515904Y-132675285D01*
X126468285Y-132484809D01*
X126468285Y-132341952D01*
X126515904Y-132151476D01*
X126563523Y-132056238D01*
X126658761Y-131961000D01*
X126801619Y-131913380D01*
X126896857Y-131913380D01*
X127039714Y-131961000D01*
X127087333Y-132008619D01*
X127420666Y-131913380D02*
X128039714Y-131913380D01*
X127706380Y-132294333D01*
X127849238Y-132294333D01*
X127944476Y-132341952D01*
X127992095Y-132389571D01*
X128039714Y-132484809D01*
X128039714Y-132722904D01*
X127992095Y-132818142D01*
X127944476Y-132865761D01*
X127849238Y-132913380D01*
X127563523Y-132913380D01*
X127468285Y-132865761D01*
X127420666Y-132818142D01*
X146690142Y-125642666D02*
X146737761Y-125690285D01*
X146785380Y-125833142D01*
X146785380Y-125928380D01*
X146737761Y-126071238D01*
X146642523Y-126166476D01*
X146547285Y-126214095D01*
X146356809Y-126261714D01*
X146213952Y-126261714D01*
X146023476Y-126214095D01*
X145928238Y-126166476D01*
X145833000Y-126071238D01*
X145785380Y-125928380D01*
X145785380Y-125833142D01*
X145833000Y-125690285D01*
X145880619Y-125642666D01*
X146118714Y-124785523D02*
X146785380Y-124785523D01*
X145737761Y-125023619D02*
X146452047Y-125261714D01*
X146452047Y-124642666D01*
X127214333Y-117038380D02*
X126881000Y-116562190D01*
X126642904Y-117038380D02*
X126642904Y-116038380D01*
X127023857Y-116038380D01*
X127119095Y-116086000D01*
X127166714Y-116133619D01*
X127214333Y-116228857D01*
X127214333Y-116371714D01*
X127166714Y-116466952D01*
X127119095Y-116514571D01*
X127023857Y-116562190D01*
X126642904Y-116562190D01*
X128166714Y-117038380D02*
X127595285Y-117038380D01*
X127881000Y-117038380D02*
X127881000Y-116038380D01*
X127785761Y-116181238D01*
X127690523Y-116276476D01*
X127595285Y-116324095D01*
X166584333Y-77922380D02*
X166251000Y-77446190D01*
X166012904Y-77922380D02*
X166012904Y-76922380D01*
X166393857Y-76922380D01*
X166489095Y-76970000D01*
X166536714Y-77017619D01*
X166584333Y-77112857D01*
X166584333Y-77255714D01*
X166536714Y-77350952D01*
X166489095Y-77398571D01*
X166393857Y-77446190D01*
X166012904Y-77446190D01*
X166965285Y-77017619D02*
X167012904Y-76970000D01*
X167108142Y-76922380D01*
X167346238Y-76922380D01*
X167441476Y-76970000D01*
X167489095Y-77017619D01*
X167536714Y-77112857D01*
X167536714Y-77208095D01*
X167489095Y-77350952D01*
X166917666Y-77922380D01*
X167536714Y-77922380D01*
X186523333Y-108942142D02*
X186475714Y-108989761D01*
X186332857Y-109037380D01*
X186237619Y-109037380D01*
X186094761Y-108989761D01*
X185999523Y-108894523D01*
X185951904Y-108799285D01*
X185904285Y-108608809D01*
X185904285Y-108465952D01*
X185951904Y-108275476D01*
X185999523Y-108180238D01*
X186094761Y-108085000D01*
X186237619Y-108037380D01*
X186332857Y-108037380D01*
X186475714Y-108085000D01*
X186523333Y-108132619D01*
X187428095Y-108037380D02*
X186951904Y-108037380D01*
X186904285Y-108513571D01*
X186951904Y-108465952D01*
X187047142Y-108418333D01*
X187285238Y-108418333D01*
X187380476Y-108465952D01*
X187428095Y-108513571D01*
X187475714Y-108608809D01*
X187475714Y-108846904D01*
X187428095Y-108942142D01*
X187380476Y-108989761D01*
X187285238Y-109037380D01*
X187047142Y-109037380D01*
X186951904Y-108989761D01*
X186904285Y-108942142D01*
%LPC*%
D15*
X127000000Y-114300000D03*
X124460000Y-114300000D03*
X121920000Y-114300000D03*
X119380000Y-114300000D03*
X129540000Y-114300000D03*
X132080000Y-114300000D03*
X134620000Y-114300000D03*
X137160000Y-114300000D03*
D16*
X129540000Y-111760000D03*
D15*
X127000000Y-111760000D03*
X124460000Y-111760000D03*
X121920000Y-111760000D03*
X119380000Y-111760000D03*
X132080000Y-111760000D03*
X134620000Y-111760000D03*
X137160000Y-111760000D03*
X119380000Y-116840000D03*
X119380000Y-119380000D03*
X119380000Y-121920000D03*
X119380000Y-124460000D03*
X119380000Y-127000000D03*
X119380000Y-129540000D03*
X119380000Y-132080000D03*
X119380000Y-134620000D03*
X116840000Y-114300000D03*
X116840000Y-116840000D03*
X116840000Y-119380000D03*
X116840000Y-121920000D03*
X116840000Y-124460000D03*
X116840000Y-127000000D03*
X116840000Y-129540000D03*
X116840000Y-132080000D03*
X116840000Y-134620000D03*
X121920000Y-134620000D03*
X124460000Y-134620000D03*
X127000000Y-134620000D03*
X129540000Y-134620000D03*
X132080000Y-134620000D03*
X134620000Y-134620000D03*
X137160000Y-134620000D03*
X139700000Y-134620000D03*
X142240000Y-134620000D03*
X119380000Y-137160000D03*
X121920000Y-137160000D03*
X124460000Y-137160000D03*
X127000000Y-137160000D03*
X129540000Y-137160000D03*
X132080000Y-137160000D03*
X134620000Y-137160000D03*
X137160000Y-137160000D03*
X139700000Y-137160000D03*
X139700000Y-132080000D03*
X139700000Y-129540000D03*
X139700000Y-127000000D03*
X139700000Y-124460000D03*
X139700000Y-121920000D03*
X139700000Y-119380000D03*
X139700000Y-116840000D03*
X139700000Y-114300000D03*
X139700000Y-111760000D03*
X142240000Y-132080000D03*
X142240000Y-129540000D03*
X142240000Y-127000000D03*
X142240000Y-124460000D03*
X142240000Y-121920000D03*
X142240000Y-119380000D03*
X142240000Y-116840000D03*
X142240000Y-114300000D03*
X195580000Y-104140000D03*
X116840000Y-81280000D03*
X193040000Y-104140000D03*
X119380000Y-81280000D03*
X190500000Y-104140000D03*
X121920000Y-81280000D03*
X187960000Y-104140000D03*
X124460000Y-81280000D03*
X185420000Y-104140000D03*
X127000000Y-81280000D03*
X182880000Y-104140000D03*
X129540000Y-81280000D03*
X180340000Y-104140000D03*
X132080000Y-81280000D03*
X177800000Y-104140000D03*
X134620000Y-81280000D03*
X175260000Y-104140000D03*
X137160000Y-81280000D03*
X172720000Y-104140000D03*
X139700000Y-81280000D03*
X170180000Y-104140000D03*
X142240000Y-81280000D03*
X167640000Y-104140000D03*
X144780000Y-81280000D03*
X165100000Y-104140000D03*
X147320000Y-81280000D03*
X162560000Y-104140000D03*
X149860000Y-81280000D03*
X160020000Y-104140000D03*
X152400000Y-81280000D03*
X157480000Y-104140000D03*
X154940000Y-81280000D03*
X154940000Y-104140000D03*
X157480000Y-81280000D03*
X152400000Y-104140000D03*
X160020000Y-81280000D03*
X149860000Y-104140000D03*
X162560000Y-81280000D03*
X147320000Y-104140000D03*
X165100000Y-81280000D03*
X144780000Y-104140000D03*
X167640000Y-81280000D03*
X142240000Y-104140000D03*
X170180000Y-81280000D03*
X139700000Y-104140000D03*
X172720000Y-81280000D03*
X137160000Y-104140000D03*
X175260000Y-81280000D03*
X134620000Y-104140000D03*
X177800000Y-81280000D03*
X132080000Y-104140000D03*
X180340000Y-81280000D03*
X129540000Y-104140000D03*
X182880000Y-81280000D03*
X127000000Y-104140000D03*
X185420000Y-81280000D03*
X124460000Y-104140000D03*
X187960000Y-81280000D03*
X121920000Y-104140000D03*
X190500000Y-81280000D03*
X119380000Y-104140000D03*
X193040000Y-81280000D03*
X116840000Y-104140000D03*
D16*
X195580000Y-81280000D03*
D17*
X111941000Y-119669000D03*
X110880000Y-119230000D03*
X109819000Y-119669000D03*
X109380000Y-120730000D03*
X109819000Y-121791000D03*
X110880000Y-122230000D03*
X111941000Y-121791000D03*
X112380000Y-120730000D03*
D18*
X110880000Y-120730000D03*
D17*
X205441000Y-119669000D03*
X204380000Y-119230000D03*
X203319000Y-119669000D03*
X202880000Y-120730000D03*
X203319000Y-121791000D03*
X204380000Y-122230000D03*
X205441000Y-121791000D03*
X205880000Y-120730000D03*
D18*
X204380000Y-120730000D03*
G36*
G01*
X121191000Y-122010500D02*
X122141000Y-122010500D01*
G75*
G02*
X122391000Y-122260500I0J-250000D01*
G01*
X122391000Y-122935500D01*
G75*
G02*
X122141000Y-123185500I-250000J0D01*
G01*
X121191000Y-123185500D01*
G75*
G02*
X120941000Y-122935500I0J250000D01*
G01*
X120941000Y-122260500D01*
G75*
G02*
X121191000Y-122010500I250000J0D01*
G01*
G37*
G36*
G01*
X121191000Y-119935500D02*
X122141000Y-119935500D01*
G75*
G02*
X122391000Y-120185500I0J-250000D01*
G01*
X122391000Y-120860500D01*
G75*
G02*
X122141000Y-121110500I-250000J0D01*
G01*
X121191000Y-121110500D01*
G75*
G02*
X120941000Y-120860500I0J250000D01*
G01*
X120941000Y-120185500D01*
G75*
G02*
X121191000Y-119935500I250000J0D01*
G01*
G37*
G36*
G01*
X121191000Y-127323000D02*
X122141000Y-127323000D01*
G75*
G02*
X122391000Y-127573000I0J-250000D01*
G01*
X122391000Y-128248000D01*
G75*
G02*
X122141000Y-128498000I-250000J0D01*
G01*
X121191000Y-128498000D01*
G75*
G02*
X120941000Y-128248000I0J250000D01*
G01*
X120941000Y-127573000D01*
G75*
G02*
X121191000Y-127323000I250000J0D01*
G01*
G37*
G36*
G01*
X121191000Y-125248000D02*
X122141000Y-125248000D01*
G75*
G02*
X122391000Y-125498000I0J-250000D01*
G01*
X122391000Y-126173000D01*
G75*
G02*
X122141000Y-126423000I-250000J0D01*
G01*
X121191000Y-126423000D01*
G75*
G02*
X120941000Y-126173000I0J250000D01*
G01*
X120941000Y-125498000D01*
G75*
G02*
X121191000Y-125248000I250000J0D01*
G01*
G37*
G36*
G01*
X124656000Y-132936000D02*
X124656000Y-131986000D01*
G75*
G02*
X124906000Y-131736000I250000J0D01*
G01*
X125581000Y-131736000D01*
G75*
G02*
X125831000Y-131986000I0J-250000D01*
G01*
X125831000Y-132936000D01*
G75*
G02*
X125581000Y-133186000I-250000J0D01*
G01*
X124906000Y-133186000D01*
G75*
G02*
X124656000Y-132936000I0J250000D01*
G01*
G37*
G36*
G01*
X122581000Y-132936000D02*
X122581000Y-131986000D01*
G75*
G02*
X122831000Y-131736000I250000J0D01*
G01*
X123506000Y-131736000D01*
G75*
G02*
X123756000Y-131986000I0J-250000D01*
G01*
X123756000Y-132936000D01*
G75*
G02*
X123506000Y-133186000I-250000J0D01*
G01*
X122831000Y-133186000D01*
G75*
G02*
X122581000Y-132936000I0J250000D01*
G01*
G37*
G36*
G01*
X144178000Y-125926000D02*
X145128000Y-125926000D01*
G75*
G02*
X145378000Y-126176000I0J-250000D01*
G01*
X145378000Y-126851000D01*
G75*
G02*
X145128000Y-127101000I-250000J0D01*
G01*
X144178000Y-127101000D01*
G75*
G02*
X143928000Y-126851000I0J250000D01*
G01*
X143928000Y-126176000D01*
G75*
G02*
X144178000Y-125926000I250000J0D01*
G01*
G37*
G36*
G01*
X144178000Y-123851000D02*
X145128000Y-123851000D01*
G75*
G02*
X145378000Y-124101000I0J-250000D01*
G01*
X145378000Y-124776000D01*
G75*
G02*
X145128000Y-125026000I-250000J0D01*
G01*
X144178000Y-125026000D01*
G75*
G02*
X143928000Y-124776000I0J250000D01*
G01*
X143928000Y-124101000D01*
G75*
G02*
X144178000Y-123851000I250000J0D01*
G01*
G37*
G36*
G01*
X124860000Y-117036001D02*
X124860000Y-116135999D01*
G75*
G02*
X125109999Y-115886000I249999J0D01*
G01*
X125810001Y-115886000D01*
G75*
G02*
X126060000Y-116135999I0J-249999D01*
G01*
X126060000Y-117036001D01*
G75*
G02*
X125810001Y-117286000I-249999J0D01*
G01*
X125109999Y-117286000D01*
G75*
G02*
X124860000Y-117036001I0J249999D01*
G01*
G37*
G36*
G01*
X122860000Y-117036001D02*
X122860000Y-116135999D01*
G75*
G02*
X123109999Y-115886000I249999J0D01*
G01*
X123810001Y-115886000D01*
G75*
G02*
X124060000Y-116135999I0J-249999D01*
G01*
X124060000Y-117036001D01*
G75*
G02*
X123810001Y-117286000I-249999J0D01*
G01*
X123109999Y-117286000D01*
G75*
G02*
X122860000Y-117036001I0J249999D01*
G01*
G37*
G36*
G01*
X164230000Y-77920001D02*
X164230000Y-77019999D01*
G75*
G02*
X164479999Y-76770000I249999J0D01*
G01*
X165180001Y-76770000D01*
G75*
G02*
X165430000Y-77019999I0J-249999D01*
G01*
X165430000Y-77920001D01*
G75*
G02*
X165180001Y-78170000I-249999J0D01*
G01*
X164479999Y-78170000D01*
G75*
G02*
X164230000Y-77920001I0J249999D01*
G01*
G37*
G36*
G01*
X162230000Y-77920001D02*
X162230000Y-77019999D01*
G75*
G02*
X162479999Y-76770000I249999J0D01*
G01*
X163180001Y-76770000D01*
G75*
G02*
X163430000Y-77019999I0J-249999D01*
G01*
X163430000Y-77920001D01*
G75*
G02*
X163180001Y-78170000I-249999J0D01*
G01*
X162479999Y-78170000D01*
G75*
G02*
X162230000Y-77920001I0J249999D01*
G01*
G37*
G36*
G01*
X191490000Y-108170275D02*
X191490000Y-109119725D01*
G75*
G02*
X191239725Y-109370000I-250275J0D01*
G01*
X190565275Y-109370000D01*
G75*
G02*
X190315000Y-109119725I0J250275D01*
G01*
X190315000Y-108170275D01*
G75*
G02*
X190565275Y-107920000I250275J0D01*
G01*
X191239725Y-107920000D01*
G75*
G02*
X191490000Y-108170275I0J-250275D01*
G01*
G37*
G36*
G01*
X189415000Y-108110000D02*
X189415000Y-109060000D01*
G75*
G02*
X189165000Y-109310000I-250000J0D01*
G01*
X188490000Y-109310000D01*
G75*
G02*
X188240000Y-109060000I0J250000D01*
G01*
X188240000Y-108110000D01*
G75*
G02*
X188490000Y-107860000I250000J0D01*
G01*
X189165000Y-107860000D01*
G75*
G02*
X189415000Y-108110000I0J-250000D01*
G01*
G37*
D19*
X194840000Y-116145000D03*
X194840000Y-113645000D03*
X194840000Y-111145000D03*
D20*
X194840000Y-108645000D03*
M02*
